<svg aria-hidden="true" style="width:0;height:0;position:absolute;overflow:hidden" xmlns="http://www.w3.org/2000/svg"><defs><symbol id="icon-telegram" viewBox="0 0 44 32"><path d="m17.343 21.048-.675 8.86c.966 0 1.384-.387 1.885-.852l4.527-4.038 9.381 6.412c1.72.895 2.933.424 3.397-1.477l6.157-26.929.002-.002c.546-2.374-.92-3.302-2.596-2.72L3.227 13.235c-2.47.895-2.433 2.18-.42 2.762l9.253 2.686L33.554 6.131c1.012-.625 1.931-.279 1.175.346l-17.386 14.57z"/></symbol><symbol id="icon-ep_arrow-right-bold" viewBox="0 0 32 32"><path d="M10.586 3.272a2 2 0 0 0 0 2.828l9.9 9.9-9.9 9.9a1.998 1.998 0 0 0 .025 2.804 2.001 2.001 0 0 0 2.804.025l11.314-11.314a2 2 0 0 0 0-2.828L13.415 3.273a2 2 0 0 0-2.828 0z"/></symbol><symbol id="icon-inee" viewBox="0 0 32 32"><path d="M16 0C7.212 0 0 7.212 0 16c0 7.499 5.262 14.312 12.25 16v-5.293c-.692.152-1.33.156-2.034-.052-.946-.279-1.714-.909-2.284-1.869-.364-.613-1.008-1.278-1.68-1.23l-.165-1.868c1.453-.124 2.711.886 3.457 2.14.332.558.713.884 1.203 1.029.473.14.982.072 1.574-.137.149-1.186.692-1.63 1.102-2.255v-.001c-4.167-.622-5.828-2.832-6.488-4.578-.874-2.317-.405-5.212 1.14-7.041.03-.036.084-.129.063-.194-.708-2.139.155-3.909.187-4.097.817.242.95-.243 3.551 1.337l.449.27c.188.112.129.048.317.034A13.544 13.544 0 0 1 16 7.723c1.136.015 2.273.178 3.404.484l.145.015c-.013-.002.04-.009.127-.062 3.248-1.968 3.132-1.324 4.003-1.608.032.188.883 1.987.182 4.099-.095.291 2.816 2.956 1.203 7.235-.659 1.746-2.32 3.957-6.487 4.578v.001c.534.814 1.176 1.247 1.173 2.927V32C26.738 30.312 32 23.499 32 16c0-8.788-7.212-16-16-16z"/></symbol><symbol id="icon-Vector-1" viewBox="0 0 17 32"><path d="M15.959 14.685c1.642-4.393-1.758-6.797-4.012-8.377-.431-.323-.862-.624-1.211-.901-.624-.519-1.083-1.204-1.324-1.972s-.252-1.59-.033-2.365a.454.454 0 0 0-.134-.459c-.063-.057-.14-.096-.224-.112s-.17-.01-.25.018a7.628 7.628 0 0 0-2.09 1.228c-.601.457-1.088 1.043-1.423 1.714s-.511 1.408-.512 2.156c-.425.33-.801.718-1.116 1.151-.58.78-.87 1.732-.823 2.698-.69.625-1.204 1.416-1.492 2.295s-.339 1.817-.15 2.722c-.275.164-.487.412-.605.706s-.135.618-.047.923c.087.304.273.572.53.762s.569.292.89.29h.03v2.498c0 .253.102.497.284.676s.429.28.686.28h.754l1.228 10.493c.026.234.138.45.315.606s.407.244.646.243h5.111c.239 0 .469-.087.647-.244s.291-.372.319-.606l1.228-10.493h.754c.257 0 .504-.101.686-.28s.284-.422.284-.676v-2.498h.03c.39 0 .764-.153 1.039-.424s.43-.64.43-1.024a1.41 1.41 0 0 0-.431-1.032l-.013.004zM4.896 6.715c.621 2.298 3.017 3.203 5.202 4.01a.477.477 0 0 0 .571-.059.458.458 0 0 0-.052-.71.475.475 0 0 0-.188-.079c-2.353-.879-4.573-1.699-4.741-4.048-.039-.646.084-1.291.358-1.879s.692-1.099 1.215-1.49c.328-.269.68-.508 1.052-.714-.024.294-.024.59 0 .884.05.673.237 1.33.549 1.93s.744 1.133 1.27 1.566c.358.302.802.612 1.293.943 1.133.803 2.422 1.699 3.241 2.914a4.482 4.482 0 0 1 .47 4.312h-1.905c-3.926 0-8.438-1.071-9.33-4.07-.177-.617-.176-1.27.004-1.887s.531-1.171 1.013-1.601l-.022-.021zM8.43 21.197l1.44 1.419-1.44 1.419-1.439-1.427 1.439-1.41zm3.301 3.726-1.19 1.172-1.439-1.419 1.439-1.415 1.25 1.228-.06.433zM8.43 28.177l-1.439-1.419 1.439-1.419 1.44 1.419-1.44 1.419zm-.659-3.492-1.439 1.419-1.198-1.181-.052-.425 1.25-1.228 1.439 1.415zm-2.103 2.073-.289.285-.073-.646.362.361zm-.151 1.453.815-.803 1.582 1.572a.72.72 0 0 0 .03.093H5.617l-.099-.862zm5.016-.803.815.803-.099.85H8.857l1.676-1.652zm.948-.365-.289-.285.366-.361-.078.646zm.431-3.713-.72-.722.914-.901-.194 1.623zm-1.383-1.368L9.163 20.62h2.732l-1.366 1.342zm-4.202 0L4.961 20.62h2.732l-1.366 1.342zm4.655 9.074H5.875c-.008-.001-.015-.004-.02-.01s-.009-.012-.01-.02l-.121-1.02h5.413l-.116 1.02c-.001.008-.005.016-.012.021s-.014.008-.023.008h-.004zm3.952-14.801h-1.5a.468.468 0 0 0-.361.119.45.45 0 0 0-.114.529.446.446 0 0 0 .114.155.486.486 0 0 0 .361.119h.534v2.498c-.001.008-.005.016-.011.021s-.014.008-.023.008H2.914c-.008 0-.017-.003-.023-.008s-.01-.013-.011-.021v-2.498h8.537c.116-.011.224-.064.303-.15a.458.458 0 0 0 0-.622.474.474 0 0 0-.303-.15H1.936a.547.547 0 0 1-.409-.136.534.534 0 0 1-.128-.6.542.542 0 0 1 .318-.286.543.543 0 0 1 .219-.025h.978c.116-.011.224-.064.303-.15a.458.458 0 0 0 0-.622.474.474 0 0 0-.303-.15h-.862a4.499 4.499 0 0 1 .94-3.695c.302.926 1.077 2.192 3.017 3.199 1.823.939 4.236 1.419 7.171 1.419h1.724a.543.543 0 0 1 .409.135.518.518 0 0 1 .128.6.542.542 0 0 1-.318.286.562.562 0 0 1-.219.026h.03z"/></symbol><symbol id="icon-ice-crema" viewBox="0 0 32 32"><path d="M16.108.107c.08.214.241 1.252.241 1.573 0 .797-.295 1.54-.837 2.122-.449.482-.897.75-1.975 1.185-1.198.489-1.694.783-2.256 1.339-.569.569-.904 1.192-1.024 1.921-.134.797 0 1.359.408 1.68l.208.161-.328.208c-.663.435-1.868 1.459-2.075 1.774-.402.603-.361 1.165.094 1.392l.214.107-.241.228c-.361.341-.435.576-.382 1.192.033.408.02.629-.074.964-.114.435-.114.442.033.75.147.301.562.683.937.843.181.08.187.107.228.723.02.355.053 1.486.08 2.517.02 1.031.067 1.975.107 2.089a.79.79 0 0 0 .274.361c.388.268.656.556.83.89.194.382.408 1.319 1.058 4.559l.455 2.276.281.268c.536.529 1.56.77 3.247.77 1.694 0 2.705-.234 3.24-.763l.288-.274.415-2.109c.917-4.613.997-4.867 1.714-5.436.221-.181.435-.402.475-.502.047-.114.094-.991.127-2.316.027-1.178.067-2.343.094-2.591l.04-.449.435-.328c.549-.422.763-.803.763-1.393-.007-.696-.462-1.459-1.292-2.142l-.395-.321.194-.274c.81-1.118.301-2.664-1.205-3.695l-.455-.315.167-.174c.743-.797.864-3.173.241-4.827-.375-.984-1.232-2.055-2.283-2.845C17.659.857 16.239 0 16.112 0c-.027 0-.027.047-.007.107zm1.928 2.336c.355.348.783.823.951 1.064.997 1.392 1.252 3.14.649 4.425-.241.522-.964 1.299-1.633 1.761-1.024.71-3.327 1.901-4.934 2.557-2.584 1.051-4.084 1.252-4.258.562-.067-.261.127-.469.951-1.018.743-.509 4.077-2.986 4.137-3.086.02-.027-.321.127-.75.341-1.453.736-2.142.596-2.109-.428.02-.743.556-1.587 1.299-2.069.187-.12.77-.388 1.305-.603 1.761-.71 2.296-1.071 2.892-1.962.355-.529.743-1.506.77-1.921.007-.147.034-.261.054-.261s.321.288.676.636zm1.828 7.606c.489.274.997.743 1.218 1.111.388.663.187 1.325-.649 2.169-.91.924-2.464 1.808-4.171 2.37-1.573.515-3.079.756-5.235.83l-1.339.047.87.054c1.125.074 3.3.007 4.144-.127 2.243-.355 4.151-1.064 5.516-2.042.308-.221.629-.402.716-.402.221 0 1.185.924 1.379 1.312.107.221.134.382.114.596-.1.89-1.185 1.366-3.802 1.68-3.2.382-7.384.007-9.172-.817-.844-.388-.984-.609-.77-1.198.067-.187.08-.408.054-.723-.033-.415-.027-.469.12-.623.335-.361.897-.569 2.959-1.091a28.11 28.11 0 0 0 2.176-.656c1.138-.415 3.274-1.493 4.264-2.156.93-.616 1.064-.643 1.607-.335zm-8.89 8.194c1.406.408 2.651.529 4.967.482 1.741-.034 2.812-.141 4.358-.415.315-.053.589-.1.623-.1.074 0 .053 2.571-.027 3.247-.087.716-.281 1.272-.489 1.406-.214.141-1.285.288-2.718.368-2.939.161-5.958 0-6.895-.375-.509-.207-.562-.475-.569-2.959 0-1.654.013-1.881.1-1.848.053.02.348.107.649.194zm1.586 5.69c.482.06 1.004.121 1.165.141l.288.034-.254.281c-.328.355-.83 1.064-1.011 1.426-.207.415-.274.442-.582.274l-.261-.147-.147-.91c-.08-.495-.167-.971-.187-1.051-.06-.174-.12-.174.991-.047zm7.137-.074c0 .013-.033.187-.067.382-.04.201-.208 1.292-.375 2.43-.341 2.377-.569 3.495-.777 3.869-.288.502-.977.797-2.095.89-.435.034-1.747-.053-1.821-.12-.053-.06 1.098-1.486 1.279-1.58.167-.094.214-.08.783.214.663.348.997.402.997.181s-.174-.435-.602-.73c-.395-.281-.536-.442-.536-.629 0-.053.194-.355.428-.669s.576-.817.75-1.118l.328-.542.301.04c.609.087.77.08.75-.053-.013-.067-.127-.261-.254-.422-.127-.167-.228-.335-.228-.368 0-.127.623-1.299.823-1.546.174-.214.315-.321.315-.228zm-4.184.536c.335.221 1.593 1.312 1.674 1.446.034.06-1.259 2.082-1.513 2.37-.027.034-.167-.033-.308-.141a22.133 22.133 0 0 0-1.165-.803l-.904-.596.542-.917c.964-1.613.944-1.587 1.151-1.587.107 0 .341.1.522.228zm2.537.241c-.234.288-.428.469-.509.469-.174 0-.455-.154-.93-.502l-.395-.288.79-.047c.428-.02.844-.047.917-.06.536-.087.536-.08.127.428zm-5.061 3.22c.616.241 1.66.81 1.962 1.064.214.174.214.187.127.402a6.675 6.675 0 0 1-.415.716c-.174.268-.375.602-.449.743-.214.415-.281.449-.723.328-.475-.141-.73-.382-.864-.817-.181-.609-.469-2.33-.435-2.598.013-.1.295-.04.797.161z"/></symbol><symbol id="icon-weight" viewBox="0 0 32 32"><path d="M0 0h32v32H0V0z"/><path d="M-989.333-132.444H224v1928H-989.333v-1928z"/><path d="M14.177.547c-3.974.589-7.247 2.796-8.451 5.685-.384.913-.488 1.473-.488 2.573.007.812.037 1.114.162 1.552.259.863.443 1.301.827 1.919l.355.575-.399.489c-3.154 3.924-3.502 9.444-.872 13.793.982 1.632 2.585 3.234 4.152 4.169l.465.273 12.743-.108.303-.165c1.056-.597 2.549-1.926 3.383-3.004a12.61 12.61 0 0 0 2.423-5.621c.118-.74.118-2.932-.007-3.63-.377-2.149-1.182-3.989-2.453-5.621-.244-.309-.436-.568-.436-.589 0-.014.133-.237.288-.489a7.762 7.762 0 0 0 .864-1.962c.199-.719.199-2.516 0-3.234-.709-2.552-2.837-4.679-5.843-5.851C20.351.97 18.91.618 17.98.503c-.864-.101-2.999-.079-3.804.043zm4.499 1.171c3.945.769 6.833 3.184 7.365 6.16.118.668.044 1.804-.155 2.437-.199.618-.569 1.344-1.005 1.962-.177.252-.325.539-.325.633s.155.338.377.582c1.847 2.048 2.822 4.614 2.822 7.389-.007 3.155-1.219 5.922-3.553 8.093-.399.374-.968.841-1.271 1.042l-.554.374-12.211.05-.473-.302c-1.714-1.114-3.258-2.954-4.115-4.909-1.079-2.472-1.189-5.34-.31-7.913.465-1.337 1.086-2.429 2.031-3.579.384-.46.561-.733.561-.863 0-.108-.192-.46-.443-.827-.886-1.287-1.248-2.717-1.034-4.068.222-1.366.842-2.487 1.987-3.601 1.492-1.445 3.575-2.401 6.02-2.76 1.012-.151 3.25-.093 4.285.101z"/><path d="M14.51 2.983c-3.029.496-5.4 2.178-6.176 4.384-.177.496-.207.69-.207 1.402s.03.906.207 1.402c.111.316.318.755.458.977.384.618.554.64 1.315.18a11.949 11.949 0 0 1 3.804-1.488c.916-.187 2.674-.259 3.671-.144 1.559.18 3.25.74 4.602 1.538.384.223.776.41.872.41.561 0 1.278-1.617 1.278-2.875 0-2.796-2.674-5.189-6.464-5.786-.805-.129-2.585-.129-3.361 0zm3.656 1.15c1.271.273 2.438.791 3.317 1.473 1.182.913 1.817 2.185 1.714 3.414-.037.489-.222 1.15-.332 1.222-.029.014-.443-.158-.916-.388a14.721 14.721 0 0 0-3.228-1.1c-.687-.144-.975-.165-2.512-.158-1.514 0-1.832.022-2.489.158a13.254 13.254 0 0 0-3.117 1.064c-1.101.525-1.042.532-1.241-.115-.258-.841-.096-1.955.406-2.796.266-.446.997-1.186 1.529-1.553 1.012-.697 1.899-1.013 3.804-1.358.391-.072 2.563.029 3.066.137zM16.962 13.405c-.207.259-.207.503.007.712.14.137.281.173.79.208.99.072 1.935.359 2.785.848.606.359 1.529 1.229 1.943 1.854.613.898 1.034 2.185 1.034 3.134 0 .331.029.431.185.575.236.237.547.237.776 0 .163-.165.17-.208.125-.913-.207-3.479-3.184-6.382-6.744-6.577l-.739-.043-.163.201z"/></symbol><symbol id="icon-cow" viewBox="0 0 31 32"><path d="M6.002.778c-.254.219-.979 1.733-1.24 2.559-.31 1.024-.416 1.791-.373 2.852.056 1.514.437 2.661 1.275 3.861.218.314.394.585.394.607 0 .015-.134.029-.303.029-.726 0-2.085.241-3.128.556C.972 11.739 0 12.609 0 13.582c0 .344.31.929.641 1.228.641.578 2.043 1.126 3.55 1.389.521.095 2.071.256 2.416.263.063 0 .085.336.085 1.44 0 .951.035 1.689.106 2.142.254 1.623 1.043 3.341 2.085 4.555l.359.417-.24.387c-.352.548-.486.965-.528 1.587-.106 1.492.824 2.815 2.62 3.744 3.423 1.777 8.742 1.082 10.735-1.404.972-1.214 1.085-2.603.317-3.861l-.239-.388.43-.519c.803-.965 1.324-1.93 1.719-3.151.331-1.038.458-2.04.458-3.627 0-.724.021-1.323.056-1.323.324-.007 1.881-.175 2.374-.263 1.515-.263 2.888-.804 3.55-1.389.331-.3.641-.885.641-1.228 0-1.082-1.099-1.96-3.142-2.486-.669-.175-1.93-.387-2.543-.424l-.289-.022.317-.439c.394-.534.888-1.572 1.078-2.252.535-1.967.204-4.255-.944-6.442-.479-.907-.81-1.119-1.198-.76-.148.139-.211.329-.352 1.016-.437 2.186-1.247 3.919-2.43 5.199l-.521.57H9.967l-.465-.505c-1.155-1.272-1.993-3.071-2.43-5.264-.141-.687-.204-.877-.352-1.016-.232-.212-.458-.205-.718.022zm.901 4.336c.373.819.838 1.587 1.388 2.296l.437.563-.458.344a4.6 4.6 0 0 0-1.141 1.331l-.134.241-.338-.461c-1.155-1.594-1.444-3.546-.831-5.571.296-.98.289-.972.556-.124.127.409.366 1.031.521 1.382zm18.336-1.543a7.22 7.22 0 0 1 .402 2.464c0 1.331-.352 2.457-1.092 3.466l-.331.453-.247-.417a4.38 4.38 0 0 0-1.233-1.353c-.19-.124-.338-.249-.338-.263 0-.022.134-.19.303-.373.782-.87 1.62-2.435 2.036-3.78.127-.417.254-.76.275-.76s.127.256.225.563zM21.64 8.916c.782.329 1.529 1.272 1.648 2.069.063.439.211.717.402.76.084.015.669.066 1.296.11 2.226.146 3.98.621 4.727 1.272.345.307.31.563-.106.877-.831.629-2.627 1.104-4.459 1.184-1.212.051-1.465.088-1.627.256-.12.124-.134.256-.134 1.579 0 1.791-.092 2.822-.317 3.656-.317 1.133-.944 2.34-1.677 3.195l-.303.351-.627-.373a7.77 7.77 0 0 0-2.325-.943c-2.67-.636-5.621-.249-7.608 1.002l-.458.293-.289-.344c-.394-.461-1.014-1.448-1.261-2.003-.542-1.258-.704-2.281-.704-4.533 0-2.186.113-2.025-1.507-2.113-2.071-.11-3.649-.483-4.642-1.111-.733-.468-.613-.885.409-1.375.979-.475 2.325-.76 4.191-.877 1.451-.095 1.486-.117 1.62-.819.197-1.06.979-1.938 1.965-2.215.246-.073 1.627-.088 5.854-.08l5.53.015.401.168zm-3.959 15.135c1.726.424 3.015 1.214 3.571 2.193.134.227.19.461.218.819.028.446.007.556-.162.921-.782 1.66-3.656 2.756-6.579 2.508-3.515-.293-5.826-2.252-4.917-4.175.493-1.038 2.163-2.033 3.924-2.325.289-.044.578-.095.634-.11s.69-.015 1.409 0c.979.022 1.451.066 1.902.168z"/><path d="M10.693 12.579c-.437.146-.733.336-1.127.731-.345.329-.373.717-.085.95.268.219.521.19.845-.095.409-.358.726-.505 1.12-.505.394-.007.697.132 1.12.505.324.285.578.314.845.095.141-.117.183-.212.183-.431 0-.227-.049-.329-.296-.578-.697-.702-1.733-.972-2.606-.673zM18.906 12.571c-.451.168-1.029.548-1.261.833-.225.278-.232.592 0 .826.232.249.514.234.852-.044.831-.687 1.451-.709 2.219-.073.197.168.423.3.493.3.345 0 .627-.307.627-.673 0-.234-.585-.775-1.113-1.031-.585-.285-1.282-.336-1.817-.139zM11.714 26.106c-.204.197-.275.483-.169.709.078.183.197.256.683.388.218.058.31.132.387.314.099.241.106.241.648.263l.542.022v-.205c-.007-.293-.169-.717-.38-1.009-.247-.336-.676-.556-1.162-.6-.331-.029-.416-.015-.549.117zM18.442 26.054c-.352.095-.859.57-1 .943a2.54 2.54 0 0 0-.134.665c-.014.314.014.388.183.541.416.366.965.08.965-.504 0-.285.211-.483.585-.556.394-.073.535-.234.542-.607 0-.49-.437-.68-1.141-.483z"/></symbol><symbol id="icon-fbb" viewBox="0 0 16 32"><path d="M14.143 15.972h-4.034v14.865H3.997V15.972H1.09v-5.224h2.907V7.367c0-2.418 1.142-6.203 6.166-6.203l4.527.019v5.071h-3.285c-.539 0-1.296.271-1.296 1.424v3.075h4.567l-.534 5.219z"/></symbol><symbol id="icon-charm_menu-hamburger-1" viewBox="0 0 47 32"><path stroke-linejoin="round" stroke-linecap="round" stroke-width="4.364" d="M1.96 29.154h42.965M1.96 15.615h42.965M1.96 2.077h42.965"/></symbol><symbol id="icon-Vector-2" viewBox="0 0 32 32"><path d="M18.088 15.585 30.37 3.39a1.464 1.464 0 0 0-.078-1.997 1.489 1.489 0 0 0-2.011-.077L16 13.511 3.719 1.302a1.493 1.493 0 0 0-2.104 0c-.279.277-.436.653-.436 1.044s.157.767.436 1.044l12.296 12.195L1.615 27.78a1.472 1.472 0 0 0-.517 1.061 1.46 1.46 0 0 0 .94 1.426 1.489 1.489 0 0 0 1.666-.413L16 17.659l12.281 12.195a1.49 1.49 0 0 0 2.011-.077 1.468 1.468 0 0 0 .078-1.997L18.088 15.585z"/></symbol><symbol id="icon-Arrow" viewBox="0 0 82 32"><path d="M81.414 17.414a2 2 0 0 0 0-2.828L68.686 1.858a2 2 0 1 0-2.828 2.828L77.172 16 65.858 27.314a2 2 0 1 0 2.828 2.828l12.728-12.728zM0 18h80v-4H0v4z"/></symbol><symbol id="icon-untitled" viewBox="0 0 104 32"><path d="M85.595 17.785c.214 1.507-.745 2.915-2.143 3.146s-2.705-.803-2.92-2.31c-.214-1.507.745-2.915 2.143-3.146s2.705.803 2.92 2.31zm4.968-4.544c.214 1.507-.745 2.915-2.143 3.146s-2.705-.803-2.92-2.31c-.214-1.507.745-2.915 2.143-3.146s2.705.803 2.92 2.31zm5.747-5.138c.214 1.507-.745 2.915-2.143 3.146s-2.705-.803-2.92-2.31c-.214-1.507.745-2.915 2.143-3.146s2.705.803 2.92 2.31zm5.39-4.613c.214 1.507-.745 2.915-2.143 3.146s-2.705-.803-2.92-2.31c-.214-1.507.745-2.915 2.143-3.146s2.705.803 2.92 2.31zM5.12 16.519c0 1.466-1.146 2.654-2.56 2.654S0 17.985 0 16.519s1.146-2.654 2.56-2.654 2.56 1.188 2.56 2.654zm5.545-3.539c0 1.466-1.146 2.654-2.56 2.654s-2.56-1.188-2.56-2.654 1.146-2.654 2.56-2.654 2.56 1.188 2.56 2.654zm6.401-3.981c0 1.466-1.146 2.654-2.56 2.654s-2.56-1.188-2.56-2.654 1.146-2.654 2.56-2.654 2.56 1.188 2.56 2.654zm5.972-3.539c0 1.466-1.146 2.654-2.56 2.654s-2.56-1.188-2.56-2.654 1.146-2.654 2.56-2.654 2.56 1.188 2.56 2.654zM7.68 23.153c0 1.466-1.146 2.654-2.56 2.654s-2.56-1.188-2.56-2.654 1.146-2.654 2.56-2.654 2.56 1.188 2.56 2.654zm5.546-3.538c0 1.466-1.146 2.654-2.56 2.654s-2.56-1.188-2.56-2.654 1.146-2.654 2.56-2.654 2.56 1.188 2.56 2.654zm6.401-3.981c0 1.466-1.146 2.654-2.56 2.654s-2.56-1.188-2.56-2.654 1.146-2.654 2.56-2.654 2.56 1.188 2.56 2.654zm5.971-3.539c0 1.466-1.146 2.654-2.56 2.654s-2.56-1.188-2.56-2.654 1.146-2.654 2.56-2.654 2.56 1.188 2.56 2.654zm-11.52 14.596c0 1.466-1.146 2.654-2.56 2.654s-2.56-1.188-2.56-2.654 1.146-2.654 2.56-2.654 2.56 1.188 2.56 2.654zm5.547-3.538c0 1.466-1.146 2.654-2.56 2.654s-2.56-1.188-2.56-2.654 1.146-2.654 2.56-2.654 2.56 1.188 2.56 2.654zm6.399-3.981c0 1.466-1.146 2.654-2.56 2.654s-2.56-1.188-2.56-2.654 1.146-2.654 2.56-2.654 2.56 1.188 2.56 2.654zm5.972-3.538c0 1.466-1.146 2.654-2.56 2.654s-2.56-1.188-2.56-2.654 1.146-2.654 2.56-2.654 2.56 1.188 2.56 2.654zM21.33 28.904c0 1.466-1.146 2.654-2.56 2.654s-2.56-1.188-2.56-2.654 1.146-2.654 2.56-2.654 2.56 1.188 2.56 2.654zm5.546-3.539c0 1.466-1.146 2.654-2.56 2.654s-2.56-1.188-2.56-2.654 1.146-2.654 2.56-2.654 2.56 1.188 2.56 2.654zm6.402-3.981c0 1.466-1.146 2.654-2.56 2.654s-2.56-1.188-2.56-2.654 1.146-2.654 2.56-2.654 2.56 1.188 2.56 2.654zm5.97-3.538c0 1.466-1.146 2.654-2.56 2.654s-2.56-1.188-2.56-2.654 1.146-2.654 2.56-2.654 2.56 1.188 2.56 2.654z"/><path d="M30.717 29.346c0 1.466-1.146 2.654-2.56 2.654s-2.56-1.188-2.56-2.654 1.146-2.654 2.56-2.654 2.56 1.188 2.56 2.654zm5.546-3.538c0 1.466-1.146 2.654-2.56 2.654s-2.56-1.188-2.56-2.654 1.146-2.654 2.56-2.654 2.56 1.188 2.56 2.654zm6.401-3.982c0 1.466-1.146 2.654-2.56 2.654s-2.56-1.188-2.56-2.654 1.146-2.654 2.56-2.654 2.56 1.188 2.56 2.654zm5.971-3.538c0 1.466-1.146 2.654-2.56 2.654s-2.56-1.188-2.56-2.654 1.146-2.654 2.56-2.654 2.56 1.188 2.56 2.654zm-6.824 11.058c0 1.466-1.146 2.654-2.56 2.654s-2.56-1.188-2.56-2.654 1.146-2.654 2.56-2.654 2.56 1.188 2.56 2.654zm5.545-3.539c0 1.466-1.146 2.654-2.56 2.654s-2.56-1.188-2.56-2.654 1.146-2.654 2.56-2.654 2.56 1.188 2.56 2.654zm6.4-3.981c0 1.466-1.146 2.654-2.56 2.654s-2.56-1.188-2.56-2.654 1.146-2.654 2.56-2.654 2.56 1.188 2.56 2.654zm5.973-3.538c0 1.466-1.146 2.654-2.56 2.654s-2.56-1.188-2.56-2.654 1.146-2.654 2.56-2.654 2.56 1.188 2.56 2.654z"/><path d="M51.194 28.904c0 1.466-1.146 2.654-2.56 2.654s-2.56-1.188-2.56-2.654 1.146-2.654 2.56-2.654 2.56 1.188 2.56 2.654zm5.546-3.539c0 1.466-1.146 2.654-2.56 2.654s-2.56-1.188-2.56-2.654 1.146-2.654 2.56-2.654 2.56 1.188 2.56 2.654zm6.401-3.981c0 1.466-1.146 2.654-2.56 2.654s-2.56-1.188-2.56-2.654 1.146-2.654 2.56-2.654 2.56 1.188 2.56 2.654zm5.971-3.538c0 1.466-1.146 2.654-2.56 2.654s-2.56-1.188-2.56-2.654 1.146-2.654 2.56-2.654 2.56 1.188 2.56 2.654zm-7.253 10.615c0 1.466-1.146 2.654-2.56 2.654s-2.56-1.188-2.56-2.654 1.146-2.654 2.56-2.654 2.56 1.188 2.56 2.654zm5.546-3.538c0 1.466-1.146 2.654-2.56 2.654s-2.56-1.188-2.56-2.654 1.146-2.654 2.56-2.654 2.56 1.188 2.56 2.654zm6.401-3.981c0 1.466-1.146 2.654-2.56 2.654s-2.56-1.188-2.56-2.654 1.146-2.654 2.56-2.654 2.56 1.188 2.56 2.654zm5.972-3.539c0 1.466-1.146 2.654-2.56 2.654s-2.56-1.188-2.56-2.654 1.146-2.654 2.56-2.654 2.56 1.188 2.56 2.654z"/><path d="M71.672 16.961c0 1.466-1.146 2.654-2.56 2.654s-2.56-1.188-2.56-2.654 1.146-2.654 2.56-2.654 2.56 1.188 2.56 2.654zm5.546-3.539c0 1.466-1.146 2.654-2.56 2.654s-2.56-1.188-2.56-2.654 1.146-2.654 2.56-2.654 2.56 1.188 2.56 2.654zm6.4-3.981c0 1.466-1.146 2.654-2.56 2.654s-2.56-1.188-2.56-2.654 1.146-2.654 2.56-2.654 2.56 1.188 2.56 2.654zm5.972-3.538c0 1.466-1.146 2.654-2.56 2.654s-2.56-1.188-2.56-2.654 1.146-2.654 2.56-2.654 2.56 1.188 2.56 2.654z"/></symbol><symbol id="icon-Group-124" viewBox="0 0 81 32"><path d="M32.761 29.617c0 .982-.739 1.778-1.65 1.778s-1.65-.796-1.65-1.778.739-1.778 1.65-1.778 1.65.796 1.65 1.778zm3.575-2.372c0 .982-.739 1.778-1.65 1.778s-1.65-.796-1.65-1.778.739-1.778 1.65-1.778 1.65.796 1.65 1.778zm4.125-2.667c0 .982-.739 1.778-1.65 1.778s-1.65-.796-1.65-1.778.739-1.778 1.65-1.778 1.65.796 1.65 1.778zm3.851-2.371c0 .982-.739 1.778-1.65 1.778s-1.65-.796-1.65-1.778.739-1.778 1.65-1.778 1.65.796 1.65 1.778zm-2.202 6.224c0 .982-.739 1.778-1.65 1.778s-1.65-.796-1.65-1.778.739-1.778 1.65-1.778 1.65.796 1.65 1.778zm3.576-2.371c0 .982-.739 1.778-1.65 1.778s-1.65-.796-1.65-1.778.739-1.778 1.65-1.778 1.65.796 1.65 1.778zm4.125-2.668c0 .982-.739 1.778-1.65 1.778s-1.65-.796-1.65-1.778.739-1.778 1.65-1.778 1.65.796 1.65 1.778zm3.851-2.371c0 .982-.739 1.778-1.65 1.778s-1.65-.796-1.65-1.778.739-1.778 1.65-1.778 1.65.796 1.65 1.778zm-3.575 6.521c0 .982-.739 1.778-1.65 1.778s-1.65-.796-1.65-1.778.739-1.778 1.65-1.778 1.65.796 1.65 1.778zm3.576-2.371c0 .982-.739 1.778-1.65 1.778s-1.65-.796-1.65-1.778.739-1.778 1.65-1.778 1.65.796 1.65 1.778zm4.126-2.668c0 .982-.739 1.778-1.65 1.778s-1.65-.796-1.65-1.778.739-1.778 1.65-1.778 1.65.796 1.65 1.778zm3.848-2.371c0 .982-.739 1.778-1.65 1.778s-1.65-.796-1.65-1.778.739-1.778 1.65-1.778 1.65.796 1.65 1.778zm-3.85 6.225c0 .982-.739 1.778-1.65 1.778s-1.65-.796-1.65-1.778.739-1.778 1.65-1.778 1.65.796 1.65 1.778zm3.575-2.372c0 .982-.739 1.778-1.65 1.778s-1.65-.796-1.65-1.778.739-1.778 1.65-1.778 1.65.796 1.65 1.778zm4.125-2.667c0 .982-.739 1.778-1.65 1.778s-1.65-.796-1.65-1.778.739-1.778 1.65-1.778 1.65.796 1.65 1.778zm3.851-2.371c0 .982-.739 1.778-1.65 1.778s-1.65-.796-1.65-1.778.739-1.778 1.65-1.778 1.65.796 1.65 1.778zm-9.075 10.67c0 .982-.739 1.778-1.65 1.778s-1.65-.796-1.65-1.778.739-1.778 1.65-1.778 1.65.796 1.65 1.778zm3.575-2.372c0 .982-.739 1.778-1.65 1.778s-1.65-.796-1.65-1.778.739-1.778 1.65-1.778 1.65.796 1.65 1.778zm4.951 2.668c0 .982-.739 1.778-1.65 1.778s-1.65-.796-1.65-1.778.739-1.778 1.65-1.778 1.65.796 1.65 1.778zm-.824-5.335c0 .982-.739 1.778-1.65 1.778s-1.65-.796-1.65-1.778.739-1.778 1.65-1.778 1.65.796 1.65 1.778zm4.949 2.667c0 .982-.739 1.778-1.65 1.778s-1.65-.796-1.65-1.778.739-1.778 1.65-1.778 1.65.796 1.65 1.778zm3.851 2.668c0 .982-.739 1.778-1.65 1.778s-1.65-.796-1.65-1.778.739-1.778 1.65-1.778 1.65.796 1.65 1.778zm-4.951-7.706c0 .982-.739 1.778-1.65 1.778s-1.65-.796-1.65-1.778.739-1.778 1.65-1.778 1.65.796 1.65 1.778zm4.951 2.667c0 .982-.739 1.778-1.65 1.778s-1.65-.796-1.65-1.778.739-1.778 1.65-1.778 1.65.796 1.65 1.778zm3.85 2.668c0 .982-.739 1.778-1.65 1.778s-1.65-.796-1.65-1.778.739-1.778 1.65-1.778 1.65.796 1.65 1.778zM15.986 10.055c0 .982-.739 1.778-1.65 1.778s-1.65-.796-1.65-1.778.739-1.778 1.65-1.778 1.65.796 1.65 1.778zm3.574-2.371c0 .982-.739 1.778-1.65 1.778s-1.65-.796-1.65-1.778.739-1.778 1.65-1.778 1.65.796 1.65 1.778zm4.127-2.668c0 .982-.739 1.778-1.65 1.778s-1.65-.796-1.65-1.778.739-1.778 1.65-1.778 1.65.796 1.65 1.778zm3.849-2.371c0 .982-.739 1.778-1.65 1.778s-1.65-.796-1.65-1.778.739-1.778 1.65-1.778 1.65.796 1.65 1.778zM9.109 9.758c0 .982-.739 1.778-1.65 1.778s-1.65-.796-1.65-1.778.739-1.778 1.65-1.778 1.65.796 1.65 1.778zm3.575-2.371c0 .982-.739 1.778-1.65 1.778s-1.65-.796-1.65-1.778.739-1.778 1.65-1.778 1.65.796 1.65 1.778zm4.125-2.667c0 .982-.739 1.778-1.65 1.778s-1.65-.796-1.65-1.778.739-1.778 1.65-1.778 1.65.796 1.65 1.778zm3.85-2.371c0 .982-.739 1.778-1.65 1.778s-1.65-.796-1.65-1.778.739-1.778 1.65-1.778 1.65.796 1.65 1.778zm3.851 27.268c0 .982-.739 1.778-1.65 1.778s-1.65-.796-1.65-1.778.739-1.778 1.65-1.778 1.65.796 1.65 1.778zm3.575-2.372c0 .982-.739 1.778-1.65 1.778s-1.65-.796-1.65-1.778.739-1.778 1.65-1.778 1.65.796 1.65 1.778zm4.125-2.667c0 .982-.739 1.778-1.65 1.778s-1.65-.796-1.65-1.778.739-1.778 1.65-1.778 1.65.796 1.65 1.778zm3.85-2.371c0 .982-.739 1.778-1.65 1.778s-1.65-.796-1.65-1.778.739-1.778 1.65-1.778 1.65.796 1.65 1.778zm-15.95 5.631c0 .982-.739 1.778-1.65 1.778s-1.65-.796-1.65-1.778.739-1.778 1.65-1.778 1.65.796 1.65 1.778zm3.575-2.371c0 .982-.739 1.778-1.65 1.778s-1.65-.796-1.65-1.778.739-1.778 1.65-1.778 1.65.796 1.65 1.778zm4.125-2.668c0 .982-.739 1.778-1.65 1.778s-1.65-.796-1.65-1.778.739-1.778 1.65-1.778 1.65.796 1.65 1.778zm3.85-2.37c0 .982-.739 1.778-1.65 1.778s-1.65-.796-1.65-1.778.739-1.778 1.65-1.778 1.65.796 1.65 1.778zm-9.9 1.185c0 .982-.739 1.778-1.65 1.778s-1.65-.796-1.65-1.778.739-1.778 1.65-1.778 1.65.796 1.65 1.778zm3.574-2.371c0 .982-.739 1.778-1.65 1.778s-1.65-.796-1.65-1.778.739-1.778 1.65-1.778 1.65.796 1.65 1.778zm4.127-2.668c0 .982-.739 1.778-1.65 1.778s-1.65-.796-1.65-1.778.739-1.778 1.65-1.778 1.65.796 1.65 1.778zm3.849-2.371c0 .982-.739 1.778-1.65 1.778s-1.65-.796-1.65-1.778.739-1.778 1.65-1.778 1.65.796 1.65 1.778zM21.76 11.24c0 .982-.739 1.778-1.65 1.778s-1.65-.796-1.65-1.778.739-1.778 1.65-1.778 1.65.796 1.65 1.778zm3.574-2.371c0 .982-.739 1.778-1.65 1.778s-1.65-.796-1.65-1.778.739-1.778 1.65-1.778 1.65.796 1.65 1.778zm4.127-2.667c0 .982-.739 1.778-1.65 1.778s-1.65-.796-1.65-1.778.739-1.778 1.65-1.778 1.65.796 1.65 1.778zM33.31 3.83c0 .982-.739 1.778-1.65 1.778s-1.65-.796-1.65-1.778.739-1.778 1.65-1.778 1.65.796 1.65 1.778zM20.935 16.872c0 .982-.739 1.778-1.65 1.778s-1.65-.796-1.65-1.778.739-1.778 1.65-1.778 1.65.796 1.65 1.778zm3.576-2.371c0 .982-.739 1.778-1.65 1.778s-1.65-.796-1.65-1.778.739-1.778 1.65-1.778 1.65.796 1.65 1.778zm4.125-2.668c0 .982-.739 1.778-1.65 1.778s-1.65-.796-1.65-1.778.739-1.778 1.65-1.778 1.65.796 1.65 1.778zm3.849-2.371c0 .982-.739 1.778-1.65 1.778s-1.65-.796-1.65-1.778.739-1.778 1.65-1.778 1.65.796 1.65 1.778zM3.609 8.276c0 .982-.739 1.778-1.65 1.778S.309 9.258.309 8.276s.739-1.778 1.65-1.778 1.65.796 1.65 1.778zm3.575-2.371c0 .982-.739 1.778-1.65 1.778s-1.65-.796-1.65-1.778.739-1.778 1.65-1.778 1.65.796 1.65 1.778zm4.126-2.667c0 .982-.739 1.778-1.65 1.778S8.01 4.22 8.01 3.238 8.749 1.46 9.66 1.46s1.65.796 1.65 1.778z"/><path d="M9.384 10.055c.911 0 1.65-.796 1.65-1.778s-.739-1.778-1.65-1.778c-.911 0-1.65.796-1.65 1.778s.739 1.778 1.65 1.778z"/></symbol><symbol id="icon-kropki-5" viewBox="0 0 356 32"><path d="M306.022 29.57c0 1.021-.832 1.849-1.858 1.849s-1.858-.828-1.858-1.849.832-1.849 1.858-1.849 1.858.828 1.858 1.849zm3.715-2.311c0 1.021-.832 1.849-1.858 1.849s-1.858-.828-1.858-1.849.832-1.849 1.858-1.849 1.858.828 1.858 1.849zm4.643-2.775c0 1.021-.832 1.849-1.858 1.849s-1.858-.828-1.858-1.849.832-1.849 1.858-1.849 1.858.828 1.858 1.849zm3.715-2.311c0 1.021-.832 1.849-1.858 1.849s-1.858-.828-1.858-1.849.832-1.849 1.858-1.849 1.858.828 1.858 1.849zm-2.322 6.473c0 1.021-.832 1.849-1.858 1.849s-1.858-.828-1.858-1.849.832-1.849 1.858-1.849 1.858.828 1.858 1.849zm3.716-2.312c0 1.021-.832 1.849-1.858 1.849s-1.858-.828-1.858-1.849.832-1.849 1.858-1.849 1.858.828 1.858 1.849zm4.643-2.774c0 1.021-.832 1.849-1.858 1.849s-1.858-.828-1.858-1.849.832-1.849 1.858-1.849 1.858.828 1.858 1.849zm3.715-2.312c0 1.021-.832 1.849-1.858 1.849s-1.858-.828-1.858-1.849.832-1.849 1.858-1.849 1.858.828 1.858 1.849zm-3.715 6.473c0 1.021-.832 1.849-1.858 1.849s-1.858-.828-1.858-1.849.832-1.849 1.858-1.849 1.858.828 1.858 1.849zm3.715-2.312c0 1.021-.832 1.849-1.858 1.849s-1.858-.828-1.858-1.849.832-1.849 1.858-1.849 1.858.828 1.858 1.849zm4.644-2.774c0 1.021-.832 1.849-1.858 1.849s-1.858-.828-1.858-1.849.832-1.849 1.858-1.849 1.858.828 1.858 1.849zm3.715-2.312c0 1.021-.832 1.849-1.858 1.849s-1.858-.828-1.858-1.849.832-1.849 1.858-1.849 1.858.828 1.858 1.849zm-3.715 6.011c0 1.021-.832 1.849-1.858 1.849s-1.858-.828-1.858-1.849.832-1.849 1.858-1.849 1.858.828 1.858 1.849zm3.715-2.312c0 1.021-.832 1.849-1.858 1.849s-1.858-.828-1.858-1.849.832-1.849 1.858-1.849 1.858.828 1.858 1.849zm4.644-2.774c0 1.021-.832 1.849-1.858 1.849s-1.858-.828-1.858-1.849.832-1.849 1.858-1.849 1.858.828 1.858 1.849zm3.715-2.312c0 1.021-.832 1.849-1.858 1.849s-1.858-.828-1.858-1.849.832-1.849 1.858-1.849 1.858.828 1.858 1.849zm-9.752 10.634c0 1.021-.832 1.849-1.858 1.849s-1.858-.828-1.858-1.849.832-1.849 1.858-1.849 1.858.828 1.858 1.849zm3.715-2.311c0 1.021-.832 1.849-1.858 1.849s-1.858-.828-1.858-1.849.832-1.849 1.858-1.849 1.858.828 1.858 1.849zm5.108 2.774c0 1.021-.832 1.849-1.858 1.849s-1.858-.828-1.858-1.849.832-1.849 1.858-1.849 1.858.828 1.858 1.849zm-.465-5.549c0 1.021-.832 1.849-1.858 1.849s-1.858-.828-1.858-1.849.832-1.849 1.858-1.849 1.858.828 1.858 1.849zm5.108 2.775c0 1.021-.832 1.849-1.858 1.849s-1.858-.828-1.858-1.849.832-1.849 1.858-1.849 1.858.828 1.858 1.849zm4.18 2.774c0 1.021-.832 1.849-1.858 1.849s-1.858-.828-1.858-1.849.832-1.849 1.858-1.849 1.858.828 1.858 1.849zm-5.572-7.86c0 1.021-.832 1.849-1.858 1.849s-1.858-.828-1.858-1.849.832-1.849 1.858-1.849 1.858.828 1.858 1.849zm5.572 2.774c0 1.021-.832 1.849-1.858 1.849s-1.858-.828-1.858-1.849.832-1.849 1.858-1.849 1.858.828 1.858 1.849zm3.715 2.774c0 1.021-.832 1.849-1.858 1.849s-1.858-.828-1.858-1.849.832-1.849 1.858-1.849 1.858.828 1.858 1.849zm-67.798-17.57c0 1.021-.832 1.849-1.858 1.849s-1.858-.828-1.858-1.849.832-1.849 1.858-1.849 1.858.828 1.858 1.849zm3.715-2.312c0 1.021-.832 1.849-1.858 1.849s-1.858-.828-1.858-1.849.832-1.849 1.858-1.849 1.858.828 1.858 1.849zm4.643-2.774c0 1.021-.832 1.849-1.858 1.849s-1.858-.828-1.858-1.849.832-1.849 1.858-1.849 1.858.828 1.858 1.849zm3.715-2.312c0 1.021-.832 1.849-1.858 1.849s-1.858-.828-1.858-1.849.832-1.849 1.858-1.849 1.858.828 1.858 1.849zm-19.503 6.936c0 1.021-.832 1.849-1.858 1.849s-1.858-.828-1.858-1.849.832-1.849 1.858-1.849 1.858.828 1.858 1.849zm3.715-2.312c0 1.021-.832 1.849-1.858 1.849s-1.858-.828-1.858-1.849.832-1.849 1.858-1.849 1.858.828 1.858 1.849zm4.643-2.774c0 1.021-.832 1.849-1.858 1.849s-1.858-.828-1.858-1.849.832-1.849 1.858-1.849 1.858.828 1.858 1.849zm3.715-2.312c0 1.021-.832 1.849-1.858 1.849s-1.858-.828-1.858-1.849.832-1.849 1.858-1.849 1.858.828 1.858 1.849zm4.179 27.279c0 1.021-.832 1.849-1.858 1.849s-1.858-.828-1.858-1.849.832-1.849 1.858-1.849 1.858.828 1.858 1.849zm3.716-2.311c0 1.021-.832 1.849-1.858 1.849s-1.858-.828-1.858-1.849.832-1.849 1.858-1.849 1.858.828 1.858 1.849zm4.643-2.775c0 1.021-.832 1.849-1.858 1.849s-1.858-.828-1.858-1.849.832-1.849 1.858-1.849 1.858.828 1.858 1.849zm3.715-2.311c0 1.021-.832 1.849-1.858 1.849s-1.858-.828-1.858-1.849.832-1.849 1.858-1.849 1.858.828 1.858 1.849zm-16.717 6.01c0 1.021-.832 1.849-1.858 1.849s-1.858-.828-1.858-1.849.832-1.849 1.858-1.849 1.858.828 1.858 1.849z"/><path d="M296.27 25.872c0 1.021-.832 1.849-1.858 1.849s-1.858-.828-1.858-1.849.832-1.849 1.858-1.849 1.858.828 1.858 1.849zm4.644-2.775c0 1.021-.832 1.849-1.858 1.849s-1.858-.828-1.858-1.849.832-1.849 1.858-1.849 1.858.828 1.858 1.849zm3.714-2.312c0 1.021-.832 1.849-1.858 1.849s-1.858-.828-1.858-1.849.832-1.849 1.858-1.849 1.858.828 1.858 1.849zm-10.215.925c0 1.021-.832 1.849-1.858 1.849s-1.858-.828-1.858-1.849.832-1.849 1.858-1.849 1.858.828 1.858 1.849zm3.714-2.312c0 1.021-.832 1.849-1.858 1.849s-1.858-.828-1.858-1.849.832-1.849 1.858-1.849 1.858.828 1.858 1.849zm4.644-2.774c0 1.021-.832 1.849-1.858 1.849s-1.858-.828-1.858-1.849.832-1.849 1.858-1.849 1.858.828 1.858 1.849zm3.715-2.312c0 1.021-.832 1.849-1.858 1.849s-1.858-.828-1.858-1.849.832-1.849 1.858-1.849 1.858.828 1.858 1.849zm-12.073-3.236c0 1.021-.832 1.849-1.858 1.849s-1.858-.828-1.858-1.849.832-1.849 1.858-1.849 1.858.828 1.858 1.849zm3.714-2.312c0 1.021-.832 1.849-1.858 1.849s-1.858-.828-1.858-1.849.832-1.849 1.858-1.849 1.858.828 1.858 1.849zm4.644-2.774c0 1.021-.832 1.849-1.858 1.849s-1.858-.828-1.858-1.849.832-1.849 1.858-1.849 1.858.828 1.858 1.849zm3.715-2.312c0 1.021-.832 1.849-1.858 1.849s-1.858-.828-1.858-1.849.832-1.849 1.858-1.849 1.858.828 1.858 1.849zm-13.002 13.409c0 1.021-.832 1.849-1.858 1.849s-1.858-.828-1.858-1.849.832-1.849 1.858-1.849 1.858.828 1.858 1.849zm3.714-2.312c0 1.021-.832 1.849-1.858 1.849s-1.858-.828-1.858-1.849.832-1.849 1.858-1.849 1.858.828 1.858 1.849zm4.644-2.774c0 1.021-.832 1.849-1.858 1.849s-1.858-.828-1.858-1.849.832-1.849 1.858-1.849 1.858.828 1.858 1.849zm3.715-2.312c0 1.021-.832 1.849-1.858 1.849s-1.858-.828-1.858-1.849.832-1.849 1.858-1.849 1.858.828 1.858 1.849zm-30.648-1.387c0 1.021-.728 1.849-1.625 1.849s-1.625-.828-1.625-1.849.728-1.849 1.625-1.849 1.625.828 1.625 1.849zm3.715-2.312c0 1.021-.728 1.849-1.625 1.849s-1.625-.828-1.625-1.849.728-1.849 1.625-1.849 1.625.828 1.625 1.849zm4.643-2.774c0 1.021-.728 1.849-1.625 1.849s-1.625-.828-1.625-1.849.728-1.849 1.625-1.849 1.625.828 1.625 1.849zm-2.089 6.935c.898 0 1.625-.828 1.625-1.849s-.728-1.849-1.625-1.849-1.625.828-1.625 1.849.728 1.849 1.625 1.849zM3.715 27.362a1.856 1.856 0 1 1-3.712-.002 1.856 1.856 0 0 1 3.712.002zm3.715-2.319a1.856 1.856 0 1 1-3.712-.002 1.856 1.856 0 0 1 3.712.002zm4.644-2.782a1.856 1.856 0 1 1-3.712-.002 1.856 1.856 0 0 1 3.712.002zm3.715-2.319a1.856 1.856 0 1 1-3.712-.002 1.856 1.856 0 0 1 3.712.002zm10.216 8.348c0 1.025-.832 1.855-1.858 1.855s-1.858-.831-1.858-1.855c0-1.025.832-1.855 1.858-1.855s1.858.831 1.858 1.855zm3.715-2.319c0 1.025-.832 1.855-1.858 1.855s-1.858-.831-1.858-1.855c0-1.025.832-1.855 1.858-1.855s1.858.831 1.858 1.855zm4.644-2.783c0 1.025-.832 1.855-1.858 1.855s-1.858-.831-1.858-1.855c0-1.025.832-1.855 1.858-1.855s1.858.831 1.858 1.855zm3.715-2.318c0 1.025-.832 1.855-1.858 1.855s-1.858-.831-1.858-1.855c0-1.025.832-1.855 1.858-1.855s1.858.831 1.858 1.855zm-3.715 6.029c0 1.025-.728 1.855-1.625 1.855s-1.625-.831-1.625-1.855c0-1.025.728-1.855 1.625-1.855s1.625.831 1.625 1.855z"/><path d="M38.078 24.58c0 1.025-.728 1.855-1.625 1.855s-1.625-.831-1.625-1.855c0-1.025.728-1.855 1.625-1.855s1.625.831 1.625 1.855zm4.18-2.319c0 1.025-.728 1.855-1.625 1.855s-1.625-.831-1.625-1.855c0-1.025.728-1.855 1.625-1.855s1.625.831 1.625 1.855zm4.179-2.319c0 1.025-.728 1.855-1.625 1.855s-1.625-.831-1.625-1.855c0-1.025.728-1.855 1.625-1.855s1.625.831 1.625 1.855zm4.644-3.71c0 1.025-.728 1.855-1.625 1.855s-1.625-.831-1.625-1.855c0-1.025.728-1.855 1.625-1.855s1.625.831 1.625 1.855zm-9.752 1.855c0 1.025-.728 1.855-1.625 1.855s-1.625-.831-1.625-1.855c0-1.025.728-1.855 1.625-1.855s1.625.831 1.625 1.855zM17.646 28.29a1.856 1.856 0 1 1-3.712-.002 1.856 1.856 0 0 1 3.712.002zm3.715-2.319a1.858 1.858 0 0 1-3.715 0c0-1.025.832-1.855 1.858-1.855s1.858.831 1.858 1.855zm4.644-2.783c0 1.025-.832 1.855-1.858 1.855s-1.858-.831-1.858-1.855c0-1.025.832-1.855 1.858-1.855s1.858.831 1.858 1.855zm3.715-2.318c0 1.025-.832 1.855-1.858 1.855s-1.858-.831-1.858-1.855c0-1.025.832-1.855 1.858-1.855s1.858.831 1.858 1.855zm-19.504 6.956a1.856 1.856 0 1 1-3.712-.002 1.856 1.856 0 0 1 3.712.002zm3.715-2.319a1.856 1.856 0 1 1-3.712-.002 1.856 1.856 0 0 1 3.712.002zm4.644-2.782a1.856 1.856 0 0 1-1.858 1.855 1.856 1.856 0 1 1 0-3.71c1.025 0 1.858.831 1.858 1.855zm3.715-2.319c0 1.025-.832 1.855-1.858 1.855s-1.858-.831-1.858-1.855c0-1.025.832-1.855 1.858-1.855s1.858.831 1.858 1.855z"/></symbol><symbol id="icon-kropki-4" viewBox="0 0 203 32"><path d="M155.222 29.617c0 .982-.739 1.778-1.65 1.778s-1.65-.796-1.65-1.778.739-1.778 1.65-1.778 1.65.796 1.65 1.778zm3.576-2.372c0 .982-.739 1.778-1.65 1.778s-1.65-.796-1.65-1.778.739-1.778 1.65-1.778 1.65.796 1.65 1.778zm4.124-2.667c0 .982-.739 1.778-1.65 1.778s-1.65-.796-1.65-1.778.739-1.778 1.65-1.778 1.65.796 1.65 1.778zm3.851-2.371c0 .982-.739 1.778-1.65 1.778s-1.65-.796-1.65-1.778.739-1.778 1.65-1.778 1.65.796 1.65 1.778zm-2.201 6.224c0 .982-.739 1.778-1.65 1.778s-1.65-.796-1.65-1.778.739-1.778 1.65-1.778 1.65.796 1.65 1.778zm3.575-2.371c0 .982-.739 1.778-1.65 1.778s-1.65-.796-1.65-1.778.739-1.778 1.65-1.778 1.65.796 1.65 1.778zm4.126-2.668c0 .982-.739 1.778-1.65 1.778s-1.65-.796-1.65-1.778.739-1.778 1.65-1.778 1.65.796 1.65 1.778zm3.85-2.371c0 .982-.739 1.778-1.65 1.778s-1.65-.796-1.65-1.778.739-1.778 1.65-1.778 1.65.796 1.65 1.778zm-3.574 6.521c0 .982-.739 1.778-1.65 1.778s-1.65-.796-1.65-1.778.739-1.778 1.65-1.778 1.65.796 1.65 1.778zm3.576-2.371c0 .982-.739 1.778-1.65 1.778s-1.65-.796-1.65-1.778.739-1.778 1.65-1.778 1.65.796 1.65 1.778zm4.125-2.668c0 .982-.739 1.778-1.65 1.778s-1.65-.796-1.65-1.778.739-1.778 1.65-1.778 1.65.796 1.65 1.778zm3.849-2.371c0 .982-.739 1.778-1.65 1.778s-1.65-.796-1.65-1.778.739-1.778 1.65-1.778 1.65.796 1.65 1.778zm-3.851 6.225c0 .982-.739 1.778-1.65 1.778s-1.65-.796-1.65-1.778.739-1.778 1.65-1.778 1.65.796 1.65 1.778zm3.575-2.372c0 .982-.739 1.778-1.65 1.778s-1.65-.796-1.65-1.778.739-1.778 1.65-1.778 1.65.796 1.65 1.778zm4.126-2.667c0 .982-.739 1.778-1.65 1.778s-1.65-.796-1.65-1.778.739-1.778 1.65-1.778 1.65.796 1.65 1.778zm3.85-2.371c0 .982-.739 1.778-1.65 1.778s-1.65-.796-1.65-1.778.739-1.778 1.65-1.778 1.65.796 1.65 1.778zm-9.074 10.67c0 .982-.739 1.778-1.65 1.778s-1.65-.796-1.65-1.778.739-1.778 1.65-1.778 1.65.796 1.65 1.778zm3.575-2.372c0 .982-.739 1.778-1.65 1.778s-1.65-.796-1.65-1.778.739-1.778 1.65-1.778 1.65.796 1.65 1.778zm4.95 2.668c0 .982-.739 1.778-1.65 1.778s-1.65-.796-1.65-1.778.739-1.778 1.65-1.778 1.65.796 1.65 1.778zm-.824-5.335c0 .982-.739 1.778-1.65 1.778s-1.65-.796-1.65-1.778.739-1.778 1.65-1.778 1.65.796 1.65 1.778zm4.95 2.667c0 .982-.739 1.778-1.65 1.778s-1.65-.796-1.65-1.778.739-1.778 1.65-1.778 1.65.796 1.65 1.778zm3.85 2.668c0 .982-.739 1.778-1.65 1.778s-1.65-.796-1.65-1.778.739-1.778 1.65-1.778 1.65.796 1.65 1.778zm-4.951-7.706c0 .982-.739 1.778-1.65 1.778s-1.65-.796-1.65-1.778.739-1.778 1.65-1.778 1.65.796 1.65 1.778zm4.951 2.667c0 .982-.739 1.778-1.65 1.778s-1.65-.796-1.65-1.778.739-1.778 1.65-1.778 1.65.796 1.65 1.778zm3.851 2.668c0 .982-.739 1.778-1.65 1.778s-1.65-.796-1.65-1.778.739-1.778 1.65-1.778 1.65.796 1.65 1.778zm-64.629-17.487c0 .982-.739 1.778-1.65 1.778s-1.65-.796-1.65-1.778.739-1.778 1.65-1.778 1.65.796 1.65 1.778zm3.574-2.371c0 .982-.739 1.778-1.65 1.778s-1.65-.796-1.65-1.778.739-1.778 1.65-1.778 1.65.796 1.65 1.778zm4.127-2.668c0 .982-.739 1.778-1.65 1.778s-1.65-.796-1.65-1.778.739-1.778 1.65-1.778 1.65.796 1.65 1.778zm3.848-2.371c0 .982-.739 1.778-1.65 1.778s-1.65-.796-1.65-1.778.739-1.778 1.65-1.778 1.65.796 1.65 1.778zm-18.426 7.113c0 .982-.739 1.778-1.65 1.778s-1.65-.796-1.65-1.778.739-1.778 1.65-1.778 1.65.796 1.65 1.778zm3.574-2.371c0 .982-.739 1.778-1.65 1.778s-1.65-.796-1.65-1.778.739-1.778 1.65-1.778 1.65.796 1.65 1.778zm4.126-2.667c0 .982-.739 1.778-1.65 1.778s-1.65-.796-1.65-1.778.739-1.778 1.65-1.778 1.65.796 1.65 1.778zm3.849-2.371c0 .982-.739 1.778-1.65 1.778s-1.65-.796-1.65-1.778.739-1.778 1.65-1.778 1.65.796 1.65 1.778zm3.851 27.268c0 .982-.739 1.778-1.65 1.778s-1.65-.796-1.65-1.778.739-1.778 1.65-1.778 1.65.796 1.65 1.778zm3.575-2.372c0 .982-.739 1.778-1.65 1.778s-1.65-.796-1.65-1.778.739-1.778 1.65-1.778 1.65.796 1.65 1.778zm4.126-2.667c0 .982-.739 1.778-1.65 1.778s-1.65-.796-1.65-1.778.739-1.778 1.65-1.778 1.65.796 1.65 1.778zm3.85-2.371c0 .982-.739 1.778-1.65 1.778s-1.65-.796-1.65-1.778.739-1.778 1.65-1.778 1.65.796 1.65 1.778zm-15.951 5.631c0 .982-.739 1.778-1.65 1.778s-1.65-.796-1.65-1.778.739-1.778 1.65-1.778 1.65.796 1.65 1.778zm3.575-2.371c0 .982-.739 1.778-1.65 1.778s-1.65-.796-1.65-1.778.739-1.778 1.65-1.778 1.65.796 1.65 1.778zm4.126-2.668c0 .982-.739 1.778-1.65 1.778s-1.65-.796-1.65-1.778.739-1.778 1.65-1.778 1.65.796 1.65 1.778zm3.849-2.37c0 .982-.739 1.778-1.65 1.778s-1.65-.796-1.65-1.778.739-1.778 1.65-1.778 1.65.796 1.65 1.778zm-9.899 1.185c0 .982-.739 1.778-1.65 1.778s-1.65-.796-1.65-1.778.739-1.778 1.65-1.778 1.65.796 1.65 1.778zm3.574-2.371c0 .982-.739 1.778-1.65 1.778s-1.65-.796-1.65-1.778.739-1.778 1.65-1.778 1.65.796 1.65 1.778zm4.127-2.668c0 .982-.739 1.778-1.65 1.778s-1.65-.796-1.65-1.778.739-1.778 1.65-1.778 1.65.796 1.65 1.778zm3.849-2.371c0 .982-.739 1.778-1.65 1.778s-1.65-.796-1.65-1.778.739-1.778 1.65-1.778 1.65.796 1.65 1.778zm-11.55-2.964c0 .982-.739 1.778-1.65 1.778s-1.65-.796-1.65-1.778.739-1.778 1.65-1.778 1.65.796 1.65 1.778zm3.574-2.371c0 .982-.739 1.778-1.65 1.778s-1.65-.796-1.65-1.778.739-1.778 1.65-1.778 1.65.796 1.65 1.778zm4.127-2.667c0 .982-.739 1.778-1.65 1.778s-1.65-.796-1.65-1.778.739-1.778 1.65-1.778 1.65.796 1.65 1.778zm3.849-2.372c0 .982-.739 1.778-1.65 1.778s-1.65-.796-1.65-1.778.739-1.778 1.65-1.778 1.65.796 1.65 1.778zm-12.375 13.042c0 .982-.739 1.778-1.65 1.778s-1.65-.796-1.65-1.778.739-1.778 1.65-1.778 1.65.796 1.65 1.778zm3.575-2.371c0 .982-.739 1.778-1.65 1.778s-1.65-.796-1.65-1.778.739-1.778 1.65-1.778 1.65.796 1.65 1.778zm4.125-2.668c0 .982-.739 1.778-1.65 1.778s-1.65-.796-1.65-1.778.739-1.778 1.65-1.778 1.65.796 1.65 1.778zm3.85-2.371c0 .982-.739 1.778-1.65 1.778s-1.65-.796-1.65-1.778.739-1.778 1.65-1.778 1.65.796 1.65 1.778zM126.07 8.276c0 .982-.739 1.778-1.65 1.778s-1.65-.796-1.65-1.778.739-1.778 1.65-1.778 1.65.796 1.65 1.778zm3.576-2.371c0 .982-.739 1.778-1.65 1.778s-1.65-.796-1.65-1.778.739-1.778 1.65-1.778 1.65.796 1.65 1.778zm4.125-2.667c0 .982-.739 1.778-1.65 1.778s-1.65-.796-1.65-1.778.739-1.778 1.65-1.778 1.65.796 1.65 1.778z"/><path d="M131.846 10.055c.911 0 1.65-.796 1.65-1.778s-.738-1.778-1.65-1.778c-.911 0-1.65.796-1.65 1.778s.739 1.778 1.65 1.778zm-70.341 11.42c.14.985-.487 1.906-1.401 2.057s-1.769-.525-1.909-1.51c-.14-.985.487-1.906 1.401-2.057s1.769.525 1.909 1.51zm3.248-2.972c.14.985-.487 1.906-1.401 2.057s-1.769-.525-1.909-1.51c-.14-.985.487-1.906 1.401-2.057s1.769.525 1.909 1.51zm3.758-3.359c.14.985-.487 1.906-1.401 2.057s-1.769-.525-1.909-1.51c-.14-.985.487-1.906 1.401-2.057s1.769.525 1.909 1.51zm3.523-3.016c.14.985-.487 1.906-1.401 2.057s-1.769-.525-1.909-1.51c-.14-.985.487-1.906 1.401-2.057s1.769.525 1.909 1.51zM8.886 20.647c0 .958-.749 1.735-1.674 1.735s-1.674-.777-1.674-1.735c0-.958.749-1.735 1.674-1.735s1.674.777 1.674 1.735zm3.625-2.314c0 .958-.749 1.735-1.674 1.735s-1.674-.777-1.674-1.735c0-.958.749-1.735 1.674-1.735s1.674.777 1.674 1.735zm4.186-2.603c0 .958-.749 1.735-1.674 1.735s-1.674-.777-1.674-1.735c0-.958.749-1.735 1.674-1.735s1.674.777 1.674 1.735zm3.905-2.314c0 .958-.749 1.735-1.674 1.735s-1.674-.777-1.674-1.735c0-.958.749-1.735 1.674-1.735s1.674.777 1.674 1.735zM10.56 24.985c0 .958-.749 1.735-1.674 1.735s-1.674-.777-1.674-1.735c0-.958.749-1.735 1.674-1.735s1.674.777 1.674 1.735zm3.626-2.314c0 .958-.749 1.735-1.674 1.735s-1.674-.777-1.674-1.735c0-.958.749-1.735 1.674-1.735s1.674.777 1.674 1.735zm4.185-2.603c0 .958-.749 1.735-1.674 1.735s-1.674-.777-1.674-1.735c0-.958.749-1.735 1.674-1.735s1.674.777 1.674 1.735zm3.905-2.314c0 .958-.749 1.735-1.674 1.735s-1.674-.777-1.674-1.735c0-.958.749-1.735 1.674-1.735s1.674.777 1.674 1.735zm-7.533 9.544c0 .958-.749 1.735-1.674 1.735s-1.674-.777-1.674-1.735c0-.958.749-1.735 1.674-1.735s1.674.777 1.674 1.735zm3.627-2.313c0 .958-.749 1.735-1.674 1.735s-1.674-.777-1.674-1.735c0-.958.749-1.735 1.674-1.735s1.674.777 1.674 1.735zm4.184-2.603c0 .958-.749 1.735-1.674 1.735s-1.674-.777-1.674-1.735c0-.958.749-1.735 1.674-1.735s1.674.777 1.674 1.735zm3.905-2.314c0 .958-.749 1.735-1.674 1.735s-1.674-.777-1.674-1.735c0-.958.749-1.735 1.674-1.735s1.674.777 1.674 1.735zm-6.974 8.677c0 .958-.749 1.735-1.674 1.735s-1.674-.777-1.674-1.735c0-.958.749-1.735 1.674-1.735s1.674.777 1.674 1.735zm3.626-2.314c0 .958-.749 1.735-1.674 1.735s-1.674-.777-1.674-1.735c0-.958.749-1.735 1.674-1.735s1.674.777 1.674 1.735zm4.186-2.603c0 .958-.749 1.735-1.674 1.735s-1.674-.777-1.674-1.735c0-.958.749-1.735 1.674-1.735s1.674.777 1.674 1.735zm3.904-2.314c0 .958-.749 1.735-1.674 1.735s-1.674-.777-1.674-1.735c0-.958.749-1.735 1.674-1.735s1.674.777 1.674 1.735z"/><path d="M25.623 29.034c0 .958-.749 1.735-1.674 1.735s-1.674-.777-1.674-1.735c0-.958.749-1.735 1.674-1.735s1.674.777 1.674 1.735zm3.626-2.314c0 .958-.749 1.735-1.674 1.735s-1.674-.777-1.674-1.735c0-.958.749-1.735 1.674-1.735s1.674.777 1.674 1.735zm4.185-2.603c0 .958-.749 1.735-1.674 1.735s-1.674-.777-1.674-1.735c0-.958.749-1.735 1.674-1.735s1.674.777 1.674 1.735zm3.904-2.313c0 .958-.749 1.735-1.674 1.735s-1.674-.777-1.674-1.735c0-.958.749-1.735 1.674-1.735s1.674.777 1.674 1.735zm-4.462 7.23c0 .958-.749 1.735-1.674 1.735s-1.674-.777-1.674-1.735c0-.958.749-1.735 1.674-1.735s1.674.777 1.674 1.735zm3.626-2.314c0 .958-.749 1.735-1.674 1.735s-1.674-.777-1.674-1.735c0-.958.749-1.735 1.674-1.735s1.674.777 1.674 1.735zm4.184-2.603c0 .958-.749 1.735-1.674 1.735s-1.674-.777-1.674-1.735c0-.958.749-1.735 1.674-1.735s1.674.777 1.674 1.735zm3.906-2.313c0 .958-.749 1.735-1.674 1.735s-1.674-.777-1.674-1.735c0-.958.749-1.735 1.674-1.735s1.674.777 1.674 1.735z"/><path d="M39.011 28.745c0 .958-.749 1.735-1.674 1.735s-1.674-.777-1.674-1.735c0-.958.749-1.735 1.674-1.735s1.674.777 1.674 1.735zm3.627-2.314c0 .958-.749 1.735-1.674 1.735s-1.674-.777-1.674-1.735c0-.958.749-1.735 1.674-1.735s1.674.777 1.674 1.735zm4.185-2.603c0 .958-.749 1.735-1.674 1.735s-1.674-.777-1.674-1.735c0-.958.749-1.735 1.674-1.735s1.674.777 1.674 1.735zm3.904-2.314c0 .958-.749 1.735-1.674 1.735s-1.674-.777-1.674-1.735c0-.958.749-1.735 1.674-1.735s1.674.777 1.674 1.735zm-4.742 6.941c0 .958-.749 1.735-1.674 1.735s-1.674-.777-1.674-1.735c0-.958.749-1.735 1.674-1.735s1.674.777 1.674 1.735zm3.626-2.313c0 .958-.749 1.735-1.674 1.735s-1.674-.777-1.674-1.735c0-.958.749-1.735 1.674-1.735s1.674.777 1.674 1.735zm4.185-2.603c0 .958-.749 1.735-1.674 1.735s-1.674-.777-1.674-1.735c0-.958.749-1.735 1.674-1.735s1.674.777 1.674 1.735zm3.905-2.314c0 .958-.749 1.735-1.674 1.735s-1.674-.777-1.674-1.735c0-.958.749-1.735 1.674-1.735s1.674.777 1.674 1.735z"/><path d="M52.401 20.936c0 .958-.749 1.735-1.674 1.735s-1.674-.777-1.674-1.735c0-.958.749-1.735 1.674-1.735s1.674.777 1.674 1.735zm3.626-2.314c0 .958-.749 1.735-1.674 1.735s-1.674-.777-1.674-1.735c0-.958.749-1.735 1.674-1.735s1.674.777 1.674 1.735zm4.185-2.603c0 .958-.749 1.735-1.674 1.735s-1.674-.777-1.674-1.735c0-.958.749-1.735 1.674-1.735s1.674.777 1.674 1.735zm3.905-2.314c0 .958-.749 1.735-1.674 1.735s-1.674-.777-1.674-1.735c0-.958.749-1.735 1.674-1.735s1.674.777 1.674 1.735z"/></symbol><symbol id="icon-Group-134" viewBox="0 0 205 32"><path d="M156.54 29.616c0 .982-.745 1.778-1.664 1.778s-1.664-.796-1.664-1.778.745-1.778 1.664-1.778 1.664.796 1.664 1.778zm3.606-2.371c0 .982-.745 1.778-1.664 1.778s-1.664-.796-1.664-1.778.745-1.778 1.664-1.778 1.664.796 1.664 1.778zm4.159-2.667c0 .982-.745 1.778-1.664 1.778s-1.664-.796-1.664-1.778.745-1.778 1.664-1.778 1.664.796 1.664 1.778zm3.884-2.372c0 .982-.745 1.778-1.664 1.778s-1.664-.796-1.664-1.778.745-1.778 1.664-1.778 1.664.796 1.664 1.778zm-2.22 6.225c0 .982-.745 1.778-1.664 1.778s-1.664-.796-1.664-1.778.745-1.778 1.664-1.778 1.664.796 1.664 1.778zm3.606-2.371c0 .982-.745 1.778-1.664 1.778s-1.664-.796-1.664-1.778.745-1.778 1.664-1.778 1.664.796 1.664 1.778zm4.16-2.668c0 .982-.745 1.778-1.664 1.778s-1.664-.796-1.664-1.778.745-1.778 1.664-1.778 1.664.796 1.664 1.778zm3.884-2.371c0 .982-.745 1.778-1.664 1.778s-1.664-.796-1.664-1.778.745-1.778 1.664-1.778 1.664.796 1.664 1.778zm-3.605 6.521c0 .982-.745 1.778-1.664 1.778s-1.664-.796-1.664-1.778.745-1.778 1.664-1.778 1.664.796 1.664 1.778zm3.605-2.371c0 .982-.745 1.778-1.664 1.778s-1.664-.796-1.664-1.778.745-1.778 1.664-1.778 1.664.796 1.664 1.778zm4.16-2.668c0 .982-.745 1.778-1.664 1.778s-1.664-.796-1.664-1.778.745-1.778 1.664-1.778 1.664.796 1.664 1.778zm3.883-2.371c0 .982-.745 1.778-1.664 1.778s-1.664-.796-1.664-1.778.745-1.778 1.664-1.778 1.664.796 1.664 1.778zm-3.884 6.224c0 .982-.745 1.778-1.664 1.778s-1.664-.796-1.664-1.778.745-1.778 1.664-1.778 1.664.796 1.664 1.778zm3.605-2.371c0 .982-.745 1.778-1.664 1.778s-1.664-.796-1.664-1.778.745-1.778 1.664-1.778 1.664.796 1.664 1.778zm4.16-2.667c0 .982-.745 1.778-1.664 1.778s-1.664-.796-1.664-1.778.745-1.778 1.664-1.778 1.664.796 1.664 1.778zm3.884-2.371c0 .982-.745 1.778-1.664 1.778s-1.664-.796-1.664-1.778.745-1.778 1.664-1.778 1.664.796 1.664 1.778zm-9.151 10.669c0 .982-.745 1.778-1.664 1.778s-1.664-.796-1.664-1.778.745-1.778 1.664-1.778 1.664.796 1.664 1.778zm3.606-2.371c0 .982-.745 1.778-1.664 1.778s-1.664-.796-1.664-1.778.745-1.778 1.664-1.778 1.664.796 1.664 1.778zm4.992 2.668c0 .982-.745 1.778-1.664 1.778s-1.664-.796-1.664-1.778.745-1.778 1.664-1.778 1.664.796 1.664 1.778zm-.832-5.335c0 .982-.745 1.778-1.664 1.778s-1.664-.796-1.664-1.778.745-1.778 1.664-1.778 1.664.796 1.664 1.778zm4.992 2.667c0 .982-.745 1.778-1.664 1.778s-1.664-.796-1.664-1.778.745-1.778 1.664-1.778 1.664.796 1.664 1.778zm3.884 2.668c0 .982-.745 1.778-1.664 1.778s-1.664-.796-1.664-1.778.745-1.778 1.664-1.778 1.664.796 1.664 1.778zm-4.993-7.707c0 .982-.745 1.778-1.664 1.778s-1.664-.796-1.664-1.778.745-1.778 1.664-1.778 1.664.796 1.664 1.778zm4.993 2.668c0 .982-.745 1.778-1.664 1.778s-1.664-.796-1.664-1.778.745-1.778 1.664-1.778 1.664.796 1.664 1.778zm3.883 2.668c0 .982-.745 1.778-1.664 1.778s-1.664-.796-1.664-1.778.745-1.778 1.664-1.778 1.664.796 1.664 1.778zm-65.179-17.487c0 .982-.745 1.778-1.664 1.778s-1.664-.796-1.664-1.778.745-1.778 1.664-1.778 1.664.796 1.664 1.778zm3.605-2.371c0 .982-.745 1.778-1.664 1.778s-1.664-.796-1.664-1.778.745-1.778 1.664-1.778 1.664.796 1.664 1.778zm4.161-2.668c0 .982-.745 1.778-1.664 1.778s-1.664-.796-1.664-1.778.745-1.778 1.664-1.778 1.664.796 1.664 1.778zm3.882-2.371c0 .982-.745 1.778-1.664 1.778s-1.664-.796-1.664-1.778.745-1.778 1.664-1.778 1.664.796 1.664 1.778zm-18.583 7.113c0 .982-.745 1.778-1.664 1.778s-1.664-.796-1.664-1.778.745-1.778 1.664-1.778 1.664.796 1.664 1.778zm3.606-2.371c0 .982-.745 1.778-1.664 1.778s-1.664-.796-1.664-1.778.745-1.778 1.664-1.778 1.664.796 1.664 1.778zm4.16-2.667c0 .982-.745 1.778-1.664 1.778s-1.664-.796-1.664-1.778.745-1.778 1.664-1.778 1.664.796 1.664 1.778zm3.882-2.371c0 .982-.745 1.778-1.664 1.778s-1.664-.796-1.664-1.778.745-1.778 1.664-1.778 1.664.796 1.664 1.778zm3.884 27.267c0 .982-.745 1.778-1.664 1.778s-1.664-.796-1.664-1.778.745-1.778 1.664-1.778 1.664.796 1.664 1.778zm3.605-2.371c0 .982-.745 1.778-1.664 1.778s-1.664-.796-1.664-1.778.745-1.778 1.664-1.778 1.664.796 1.664 1.778zm4.16-2.667c0 .982-.745 1.778-1.664 1.778s-1.664-.796-1.664-1.778.745-1.778 1.664-1.778 1.664.796 1.664 1.778zm3.884-2.372c0 .982-.745 1.778-1.664 1.778s-1.664-.796-1.664-1.778.745-1.778 1.664-1.778 1.664.796 1.664 1.778zm-16.087 5.632c0 .982-.745 1.778-1.664 1.778s-1.664-.796-1.664-1.778.745-1.778 1.664-1.778 1.664.796 1.664 1.778zm3.606-2.371c0 .982-.745 1.778-1.664 1.778s-1.664-.796-1.664-1.778.745-1.778 1.664-1.778 1.664.796 1.664 1.778zm4.16-2.667c0 .982-.745 1.778-1.664 1.778s-1.664-.796-1.664-1.778.745-1.778 1.664-1.778 1.664.796 1.664 1.778zm3.883-2.371c0 .982-.745 1.778-1.664 1.778s-1.664-.796-1.664-1.778.745-1.778 1.664-1.778 1.664.796 1.664 1.778zm-9.984 1.185c0 .982-.745 1.778-1.664 1.778s-1.664-.796-1.664-1.778.745-1.778 1.664-1.778 1.664.796 1.664 1.778zm3.605-2.371c0 .982-.745 1.778-1.664 1.778s-1.664-.796-1.664-1.778.745-1.778 1.664-1.778 1.664.796 1.664 1.778zm4.161-2.668c0 .982-.745 1.778-1.664 1.778s-1.664-.796-1.664-1.778.745-1.778 1.664-1.778 1.664.796 1.664 1.778zm3.883-2.371c0 .982-.745 1.778-1.664 1.778s-1.664-.796-1.664-1.778.745-1.778 1.664-1.778 1.664.796 1.664 1.778zm-11.649-2.964c0 .982-.745 1.778-1.664 1.778s-1.664-.796-1.664-1.778.745-1.778 1.664-1.778 1.664.796 1.664 1.778zm3.605-2.371c0 .982-.745 1.778-1.664 1.778s-1.664-.796-1.664-1.778.745-1.778 1.664-1.778 1.664.796 1.664 1.778zm4.161-2.667c0 .982-.745 1.778-1.664 1.778s-1.664-.796-1.664-1.778.745-1.778 1.664-1.778 1.664.796 1.664 1.778zm3.883-2.371c0 .982-.745 1.778-1.664 1.778s-1.664-.796-1.664-1.778.745-1.778 1.664-1.778 1.664.796 1.664 1.778zm-12.482 13.041c0 .982-.745 1.778-1.664 1.778s-1.664-.796-1.664-1.778.745-1.778 1.664-1.778 1.664.796 1.664 1.778zm3.607-2.371c0 .982-.745 1.778-1.664 1.778s-1.664-.796-1.664-1.778.745-1.778 1.664-1.778 1.664.796 1.664 1.778zm4.159-2.668c0 .982-.745 1.778-1.664 1.778s-1.664-.796-1.664-1.778.745-1.778 1.664-1.778 1.664.796 1.664 1.778zm3.883-2.371c0 .982-.745 1.778-1.664 1.778s-1.664-.796-1.664-1.778.745-1.778 1.664-1.778 1.664.796 1.664 1.778zM127.14 8.276c0 .982-.745 1.778-1.664 1.778s-1.664-.796-1.664-1.778.745-1.778 1.664-1.778 1.664.796 1.664 1.778zm3.606-2.371c0 .982-.745 1.778-1.664 1.778s-1.664-.796-1.664-1.778.745-1.778 1.664-1.778 1.664.796 1.664 1.778zm4.16-2.667c0 .982-.745 1.778-1.664 1.778s-1.664-.796-1.664-1.778.745-1.778 1.664-1.778 1.664.796 1.664 1.778z"/><path d="M132.964 10.055c.919 0 1.665-.796 1.665-1.778s-.746-1.778-1.665-1.778-1.664.796-1.664 1.778.745 1.778 1.664 1.778zm-76.523 11.42c.141.985-.491 1.906-1.413 2.057s-1.784-.525-1.925-1.51c-.141-.985.491-1.906 1.413-2.057s1.784.525 1.925 1.51zm3.276-2.971c.141.985-.491 1.906-1.413 2.057s-1.784-.525-1.925-1.51c-.141-.985.491-1.906 1.413-2.057s1.784.525 1.925 1.51zm3.789-3.36c.141.985-.491 1.906-1.413 2.057s-1.784-.525-1.925-1.51c-.141-.985.491-1.906 1.413-2.057s1.784.525 1.925 1.51zm3.554-3.016c.141.985-.491 1.906-1.413 2.057s-1.784-.525-1.925-1.51c-.141-.985.491-1.906 1.413-2.057s1.784.525 1.925 1.51zM3.481 21.473c0 .997-.779 1.805-1.741 1.805s-1.741-.808-1.741-1.805c0-.997.779-1.805 1.741-1.805s1.741.808 1.741 1.805zm3.771-2.406c0 .997-.779 1.805-1.741 1.805s-1.741-.808-1.741-1.805c0-.997.779-1.805 1.741-1.805s1.741.808 1.741 1.805zm4.353-2.707c0 .997-.779 1.805-1.741 1.805s-1.741-.808-1.741-1.805c0-.997.779-1.805 1.741-1.805s1.741.808 1.741 1.805zm4.061-2.407c0 .997-.779 1.805-1.741 1.805s-1.741-.808-1.741-1.805c0-.997.779-1.805 1.741-1.805s1.741.808 1.741 1.805zM5.223 25.984c0 .997-.779 1.805-1.741 1.805s-1.741-.808-1.741-1.805c0-.997.779-1.805 1.741-1.805s1.741.808 1.741 1.805zm3.771-2.406c0 .997-.779 1.805-1.741 1.805s-1.741-.808-1.741-1.805c0-.997.779-1.805 1.741-1.805s1.741.808 1.741 1.805zm4.352-2.707c0 .997-.779 1.805-1.741 1.805s-1.741-.808-1.741-1.805c0-.997.779-1.805 1.741-1.805s1.741.808 1.741 1.805zm4.061-2.406c0 .997-.779 1.805-1.741 1.805s-1.741-.808-1.741-1.805c0-.997.779-1.805 1.741-1.805s1.741.808 1.741 1.805zM9.573 28.39c0 .997-.779 1.805-1.741 1.805s-1.741-.808-1.741-1.805c0-.997.779-1.805 1.741-1.805s1.741.808 1.741 1.805zm3.772-2.406c0 .997-.779 1.805-1.741 1.805s-1.741-.808-1.741-1.805c0-.997.779-1.805 1.741-1.805s1.741.808 1.741 1.805zm4.351-2.707c0 .997-.779 1.805-1.741 1.805s-1.741-.808-1.741-1.805c0-.997.779-1.805 1.741-1.805s1.741.808 1.741 1.805zm4.062-2.406c0 .997-.779 1.805-1.741 1.805s-1.741-.808-1.741-1.805c0-.997.779-1.805 1.741-1.805s1.741.808 1.741 1.805zm-7.254 9.024c0 .997-.779 1.805-1.741 1.805s-1.741-.808-1.741-1.805c0-.997.779-1.805 1.741-1.805s1.741.808 1.741 1.805zm3.772-2.407c0 .997-.779 1.805-1.741 1.805s-1.741-.808-1.741-1.805c0-.997.779-1.805 1.741-1.805s1.741.808 1.741 1.805zm4.353-2.707c0 .997-.779 1.805-1.741 1.805s-1.741-.808-1.741-1.805c0-.997.779-1.805 1.741-1.805s1.741.808 1.741 1.805zm4.06-2.406c0 .997-.779 1.805-1.741 1.805s-1.741-.808-1.741-1.805c0-.997.779-1.805 1.741-1.805s1.741.808 1.741 1.805z"/><path d="M20.888 30.196c0 .997-.779 1.805-1.741 1.805s-1.741-.808-1.741-1.805c0-.997.779-1.805 1.741-1.805s1.741.808 1.741 1.805zm3.771-2.407c0 .997-.779 1.805-1.741 1.805s-1.741-.808-1.741-1.805c0-.997.779-1.805 1.741-1.805s1.741.808 1.741 1.805zm4.352-2.707c0 .997-.779 1.805-1.741 1.805s-1.741-.808-1.741-1.805c0-.997.779-1.805 1.741-1.805s1.741.808 1.741 1.805zm4.061-2.406c0 .997-.779 1.805-1.741 1.805s-1.741-.808-1.741-1.805c0-.997.779-1.805 1.741-1.805s1.741.808 1.741 1.805zm-4.641 7.519c0 .997-.779 1.805-1.741 1.805s-1.741-.808-1.741-1.805c0-.997.779-1.805 1.741-1.805s1.741.808 1.741 1.805zm3.771-2.406c0 .997-.779 1.805-1.741 1.805s-1.741-.808-1.741-1.805c0-.997.779-1.805 1.741-1.805s1.741.808 1.741 1.805zm4.352-2.707c0 .997-.779 1.805-1.741 1.805s-1.741-.808-1.741-1.805c0-.997.779-1.805 1.741-1.805s1.741.808 1.741 1.805zm4.062-2.406c0 .997-.779 1.805-1.741 1.805s-1.741-.808-1.741-1.805c0-.997.779-1.805 1.741-1.805s1.741.808 1.741 1.805z"/><path d="M34.812 29.895c0 .997-.779 1.805-1.741 1.805s-1.741-.808-1.741-1.805c0-.997.779-1.805 1.741-1.805s1.741.808 1.741 1.805zm3.771-2.407c0 .997-.779 1.805-1.741 1.805s-1.741-.808-1.741-1.805c0-.997.779-1.805 1.741-1.805s1.741.808 1.741 1.805zm4.353-2.707c0 .997-.779 1.805-1.741 1.805s-1.741-.808-1.741-1.805c0-.997.779-1.805 1.741-1.805s1.741.808 1.741 1.805zm4.06-2.406c0 .997-.779 1.805-1.741 1.805s-1.741-.808-1.741-1.805c0-.997.779-1.805 1.741-1.805s1.741.808 1.741 1.805zm-4.932 7.219c0 .997-.779 1.805-1.741 1.805s-1.741-.808-1.741-1.805c0-.997.779-1.805 1.741-1.805s1.741.808 1.741 1.805zm3.772-2.407c0 .997-.779 1.805-1.741 1.805s-1.741-.808-1.741-1.805c0-.997.779-1.805 1.741-1.805s1.741.808 1.741 1.805zm4.352-2.706c0 .997-.779 1.805-1.741 1.805s-1.741-.808-1.741-1.805c0-.997.779-1.805 1.741-1.805s1.741.808 1.741 1.805zm4.061-2.407c0 .997-.779 1.805-1.741 1.805s-1.741-.808-1.741-1.805c0-.997.779-1.805 1.741-1.805s1.741.808 1.741 1.805z"/><path d="M48.737 21.773c0 .997-.779 1.805-1.741 1.805s-1.741-.808-1.741-1.805c0-.997.779-1.805 1.741-1.805s1.741.808 1.741 1.805zm3.771-2.406c0 .997-.779 1.805-1.741 1.805s-1.741-.808-1.741-1.805c0-.997.779-1.805 1.741-1.805s1.741.808 1.741 1.805zm4.352-2.707c0 .997-.779 1.805-1.741 1.805s-1.741-.808-1.741-1.805c0-.997.779-1.805 1.741-1.805s1.741.808 1.741 1.805zm4.061-2.406c0 .997-.779 1.805-1.741 1.805s-1.741-.808-1.741-1.805c0-.997.779-1.805 1.741-1.805s1.741.808 1.741 1.805z"/></symbol><symbol id="icon-Kropki-6" viewBox="0 0 100 32"><path d="M45.81 25.797c0 .287-.219.52-.488.52s-.488-.233-.488-.52c0-.287.219-.52.488-.52s.488.233.488.52zm1.139-.693c0 .287-.219.52-.488.52s-.488-.233-.488-.52c0-.287.219-.52.488-.52s.488.233.488.52zm-2.034 2.601c0 .287-.219.52-.488.52s-.488-.233-.488-.52c0-.287.219-.52.488-.52s.488.233.488.52zm1.057-.694c0 .287-.219.52-.488.52s-.488-.233-.488-.52c0-.287.219-.52.488-.52s.488.233.488.52zm1.221-.78c0 .287-.219.52-.488.52s-.488-.233-.488-.52c0-.287.219-.52.488-.52s.488.233.488.52zm1.139-.694c0 .287-.219.52-.488.52s-.488-.233-.488-.52c0-.287.219-.52.488-.52s.488.233.488.52z"/><path d="M46.705 27.792c0 .287-.219.52-.488.52s-.488-.233-.488-.52c0-.287.219-.52.488-.52s.488.233.488.52zm1.057-.694c0 .287-.219.52-.488.52s-.488-.233-.488-.52c0-.287.219-.52.488-.52s.488.233.488.52zm1.221-.78c0 .287-.219.52-.488.52s-.488-.233-.488-.52c0-.287.219-.52.488-.52s.488.233.488.52zm1.139-.694c0 .287-.219.52-.488.52s-.488-.233-.488-.52c0-.287.219-.52.488-.52s.488.233.488.52zm-1.302 2.168c0 .287-.219.52-.488.52s-.488-.233-.488-.52c0-.287.219-.52.488-.52s.488.233.488.52zm1.058-.694c0 .287-.219.52-.488.52s-.488-.233-.488-.52c0-.287.219-.52.488-.52s.488.233.488.52zm1.22-.78c0 .287-.219.52-.488.52s-.488-.233-.488-.52c0-.287.219-.52.488-.52s.488.233.488.52zm1.14-.694c0 .287-.219.52-.488.52s-.488-.233-.488-.52c0-.287.219-.52.488-.52s.488.233.488.52z"/><path d="M50.61 27.705c0 .287-.219.52-.488.52s-.488-.233-.488-.52c0-.287.219-.52.488-.52s.488.233.488.52zm1.058-.694c0 .287-.219.52-.488.52s-.488-.233-.488-.52c0-.287.219-.52.488-.52s.488.233.488.52zm1.221-.78c0 .287-.219.52-.488.52s-.488-.233-.488-.52c0-.287.219-.52.488-.52s.488.233.488.52zm1.139-.694c0 .287-.219.52-.488.52s-.488-.233-.488-.52c0-.287.219-.52.488-.52s.488.233.488.52zm-1.384 2.081c0 .287-.219.52-.488.52s-.488-.233-.488-.52c0-.287.219-.52.488-.52s.488.233.488.52zm1.058-.693c0 .287-.219.52-.488.52s-.488-.233-.488-.52c0-.287.219-.52.488-.52s.488.233.488.52zm1.221-.781c0 .287-.219.52-.488.52s-.488-.233-.488-.52c0-.287.219-.52.488-.52s.488.233.488.52zm1.139-.694c0 .287-.219.52-.488.52s-.488-.233-.488-.52c0-.287.219-.52.488-.52s.488.233.488.52z"/><path d="M54.516 25.364c0 .287-.219.52-.488.52s-.488-.233-.488-.52c0-.287.219-.52.488-.52s.488.233.488.52zm1.058-.694c0 .287-.219.52-.488.52s-.488-.233-.488-.52c0-.287.219-.52.488-.52s.488.233.488.52zm1.22-.781c0 .287-.219.52-.488.52s-.488-.233-.488-.52c0-.287.219-.52.488-.52s.488.233.488.52zm1.139-.693c0 .287-.219.52-.488.52s-.488-.233-.488-.52c0-.287.219-.52.488-.52s.488.233.488.52z"/></symbol><symbol id="icon-ep_arrow-right-bold" viewBox="0 0 32 32"><path d="M10.586 3.272a2 2 0 0 0 0 2.828l9.9 9.9-9.9 9.9a1.998 1.998 0 0 0 .025 2.804 2.001 2.001 0 0 0 2.804.025l11.314-11.314a2 2 0 0 0 0-2.828L13.415 3.273a2 2 0 0 0-2.828 0z"/></symbol><symbol id="icon-ce" viewBox="0 0 75 32"><path d="m19.849 20.32-1.444 2.215.029.018 1.415-2.234zm15.545.749 2.644-.059-.068-3.06-3.018.512.442 2.607zm.181 8.134.673 2.557 2.017-.531-.047-2.085-2.643.059zm-20.4.387.593-2.577-.016-.004-.577 2.58zM5.104 25.097l1.711-2.016-.004-.003-1.707 2.02zm-3.64-8.263 2.644.013v-.013H1.464zm1.265-5.784L.356 9.883l-.002.003 2.374 1.163zm8.108-6.921.938 2.472.01-.004-.948-2.468zm25.977-.671 2.636.205.174-2.233L37.45.891l-.636 2.566zm-.645 8.289-.492 2.598 2.9.55.229-2.942-2.636-.205zm-7.05-3.393c-3.968 0-7.304.424-9.741 1.495-1.249.549-2.385 1.322-3.212 2.413-.853 1.125-1.26 2.437-1.26 3.823h5.288c0-.31.075-.482.186-.628.137-.181.447-.468 1.126-.767 1.419-.624 3.868-1.048 7.612-1.048V8.354zm-14.212 7.731c0 2.721 1.22 4.965 3.499 6.45l2.887-4.431c-.785-.512-1.098-1.091-1.098-2.02h-5.288zm3.527 6.469c2.161 1.368 5.009 1.882 8.206 1.882v-5.288c-2.76 0-4.438-.467-5.376-1.062l-2.83 4.468zm8.206 1.882c3.138 0 6.204-.253 9.196-.76l-.885-5.214a49.62 49.62 0 0 1-8.311.686v5.288zm6.11-3.309.181 8.134 5.287-.117-.181-8.134-5.287.117zm2.152 5.518c-3.023.796-6.357 1.204-10.017 1.204v5.288c4.052 0 7.845-.452 11.363-1.378l-1.346-5.114zm-10.018 1.204c-3.735 0-6.758-.293-9.116-.836l-1.187 5.153c2.875.662 6.325.971 10.302.971v-5.288zm-9.132-.84c-2.524-.565-4.347-1.164-5.563-1.758l-2.321 4.752c1.745.852 4.019 1.561 6.729 2.167l1.154-5.161zm-5.562-1.758c-1.303-.637-2.423-1.363-3.375-2.171l-3.421 4.032c1.321 1.12 2.818 2.081 4.475 2.89l2.321-4.752zm-3.379-2.174c-1.797-1.518-2.717-3.503-2.703-6.23l-5.288-.026c-.021 4.158 1.486 7.683 4.578 10.296l3.413-4.039zm-2.703-6.243c0-1.778.349-3.301.996-4.621L.355 9.886c-1.04 2.123-1.535 4.456-1.535 6.948h5.288zm.994-4.618c1.203-2.446 3.327-4.345 6.673-5.615L9.899 1.657C5.533 3.314 2.252 6.028.356 9.883l4.746 2.334zm6.683-5.618c3.518-1.351 7.444-2.045 11.808-2.045V-.735c-4.932 0-9.51.786-13.704 2.396l1.895 4.937zm11.808-2.045c4.451 0 8.643.494 12.585 1.472L37.451.892C33.06-.197 28.439-.735 23.594-.735v5.288zm10.585-1.3-.646 8.289 5.272.411.646-8.289-5.272-.411zm2.483 5.896c-2.751-.521-5.271-.795-7.542-.795v5.288c1.86 0 4.04.226 6.557.703l.985-5.196zm25.799 4.225-.015 2.644 2.687.015-.028-2.687-2.644.028zm-1.136-3.435-1.799 1.938.023.021 1.776-1.959zm-6.584.258 1.831 1.908.02-.019-1.851-1.889zm-1.601 3.125-2.609-.429-.502 3.056 3.097.017.015-2.644zm19.444 14.099 1.597 2.107.95-.721.089-1.189-2.637-.197zm-5.707 2.117-.569-2.582-.015.003.584 2.579zm-19.831-.723-.902 2.486.022.008.88-2.493zm-4.519-2.401-1.641 2.073.032.025 1.609-2.098zm-3.021-3.796-2.37 1.172.005.01 2.365-1.183zm3.098-16.036 1.758 1.975.001-.001-1.76-1.974zm24.17-2.866 1.057-2.424-.025-.011-1.033 2.434zm6.068 5.578-2.378 1.156.007.015 2.371-1.171zm1.033 4.622 2.638.192.007-.096v-.096h-2.644zm-.31 4.26-.013 2.644 2.471.012.179-2.465-2.637-.192zm-20.942-.103.013-2.644-3.45-.017.88 3.335 2.557-.674zm2.996 3.693-1.301 2.302.011.006 1.291-2.308zm16.061-.904v-2.644h-.528l-.488.203 1.016 2.441zm1.394 0 2.637.197.213-2.841h-2.849v2.644zm-7.968-7.517c-.021-1.913-.46-3.965-2.004-5.365l-3.553 3.917c-.031-.028.029.005.105.234.08.242.156.646.163 1.27l5.288-.056zm-1.981-5.343c-1.388-1.289-3.208-1.714-5.001-1.714v5.288c1.03 0 1.344.246 1.403.3l3.598-3.875zm-5.002-1.714c-1.969 0-3.801.617-5.233 2.021l3.702 3.777c.289-.283.712-.51 1.532-.51V6.288zM52.908 8.29c-1.302 1.25-2.086 2.823-2.379 4.603l5.218.858c.121-.733.403-1.243.823-1.646L52.907 8.29zm.216 7.676 9.322.052.029-5.288-9.322-.052-.029 5.288zm17.862 9.348c-.58.439-1.994 1.051-4.678 1.642l1.137 5.165c2.79-.614 5.18-1.414 6.736-2.593l-3.195-4.214zm-4.694 1.645c-2.562.58-5.025.864-7.395.864v5.288c2.795 0 5.651-.335 8.563-.995l-1.168-5.158zm-7.395.865c-2.492 0-4.544-.118-6.18-.338l-.705 5.241c1.945.262 4.247.385 6.886.385v-5.288zm-6.18-.338a23.987 23.987 0 0 1-4.792-1.164l-1.76 4.987a29.284 29.284 0 0 0 5.847 1.418l.705-5.241zm-4.771-1.157c-1.546-.561-2.804-1.241-3.811-2.014l-3.219 4.196c1.506 1.155 3.26 2.076 5.226 2.789l1.803-4.971zm-3.779-1.988c-.908-.719-1.679-1.669-2.297-2.905l-4.73 2.365c.931 1.862 2.174 3.443 3.745 4.686l3.282-4.146zm-2.292-2.895c-.556-1.125-.888-2.573-.888-4.431h-5.289c0 2.48.443 4.767 1.436 6.775l4.74-2.344zm-.888-4.432c0-1.86.335-3.503.969-4.964l-4.851-2.105c-.95 2.189-1.407 4.557-1.407 7.069h5.289zm.969-4.963c.666-1.536 1.483-2.672 2.405-3.493l-3.516-3.95c-1.591 1.417-2.823 3.224-3.74 5.338l4.851 2.105zm2.407-3.495c2.842-2.534 7.177-4.003 13.424-4.003V-.735c-7.008 0-12.796 1.646-16.943 5.344l3.519 3.947zm13.424-4.003c2.803 0 5.447.534 7.953 1.598l2.065-4.868C64.631-.064 61.284-.735 57.786-.735v5.288zm7.928 1.587c2.34 1.021 3.852 2.468 4.748 4.31l4.756-2.312c-1.515-3.116-4.048-5.387-7.389-6.845L65.715 6.14zm4.755 4.324c.494 1 .76 2.135.76 3.451h5.288c0-2.058-.423-4.004-1.306-5.793l-4.742 2.342zm.767 3.26-.31 4.261 5.274.384.31-4.261-5.275-.384zm2.34 1.808-20.942-.103-.026 5.288 20.941.103.026-5.288zm-23.512 3.215c.618 2.344 2.13 4.121 4.251 5.32l2.602-4.604c-1.046-.591-1.531-1.276-1.74-2.065l-5.114 1.349zm4.262 5.327c2.145 1.199 4.827 1.679 7.824 1.679v-5.288c-2.512 0-4.185-.415-5.243-1.006l-2.581 4.616zm7.824 1.679c3.216 0 6.748-.869 10.544-2.45l-2.032-4.882c-3.399 1.415-6.219 2.043-8.512 2.043v5.288zm9.528-2.247h1.394v-5.288h-1.394v5.288zm-1.242-2.841-.491 6.559 5.274.395.491-6.559-5.274-.395z"/></symbol></defs></svg>