<svg aria-hidden="true" style="position: absolute; width: 0; height: 0; overflow: hidden;" version="1.1" xmlns="http://www.w3.org/2000/svg" xmlns:xlink="http://www.w3.org/1999/xlink">
<defs>
<symbol id="icon-telegram" viewBox="0 0 44 32">
<path d="M17.343 21.048l-0.675 8.86c0.966 0 1.384-0.387 1.885-0.852l4.527-4.038 9.381 6.412c1.72 0.895 2.933 0.424 3.397-1.477l6.157-26.929 0.002-0.002c0.546-2.374-0.92-3.302-2.596-2.72l-36.194 12.933c-2.47 0.895-2.433 2.18-0.42 2.762l9.253 2.686 21.494-12.552c1.012-0.625 1.931-0.279 1.175 0.346l-17.386 14.57z"></path>
</symbol>
<symbol id="icon-inee" viewBox="0 0 32 32">
<path d="M16 0c-8.788 0-16 7.212-16 16 0 7.499 5.262 14.312 12.25 16v-5.293c-0.692 0.152-1.33 0.156-2.034-0.052-0.946-0.279-1.714-0.909-2.284-1.869-0.364-0.613-1.008-1.278-1.68-1.23l-0.165-1.868c1.453-0.124 2.711 0.886 3.457 2.14 0.332 0.558 0.713 0.884 1.203 1.029 0.473 0.14 0.982 0.072 1.574-0.137 0.149-1.186 0.692-1.63 1.102-2.255v-0.001c-4.167-0.622-5.828-2.832-6.488-4.578-0.874-2.317-0.405-5.212 1.14-7.041 0.030-0.036 0.084-0.129 0.063-0.194-0.708-2.139 0.155-3.909 0.187-4.097 0.817 0.242 0.95-0.243 3.551 1.337l0.449 0.27c0.188 0.112 0.129 0.048 0.317 0.034 1.086-0.295 2.23-0.458 3.358-0.472 1.136 0.015 2.273 0.178 3.404 0.484l0.145 0.015c-0.013-0.002 0.040-0.009 0.127-0.062 3.248-1.968 3.132-1.324 4.003-1.608 0.032 0.188 0.883 1.987 0.182 4.099-0.095 0.291 2.816 2.956 1.203 7.235-0.659 1.746-2.32 3.957-6.487 4.578v0.001c0.534 0.814 1.176 1.247 1.173 2.927v6.608c6.988-1.688 12.25-8.501 12.25-16 0-8.788-7.212-16-16-16v0z"></path>
</symbol>
<symbol id="icon-Vector-1" viewBox="0 0 17 32">
<path d="M15.959 14.685c1.642-4.393-1.758-6.797-4.012-8.377-0.431-0.323-0.862-0.624-1.211-0.901-0.624-0.519-1.083-1.204-1.324-1.972s-0.252-1.59-0.033-2.365c0.022-0.081 0.022-0.167-0.002-0.248s-0.069-0.154-0.132-0.211c-0.063-0.057-0.14-0.096-0.224-0.112s-0.17-0.010-0.25 0.018c-0.759 0.296-1.465 0.711-2.090 1.228-0.601 0.457-1.088 1.043-1.423 1.714s-0.511 1.408-0.512 2.156c-0.425 0.33-0.801 0.718-1.116 1.151-0.58 0.78-0.87 1.732-0.823 2.698-0.69 0.625-1.204 1.416-1.492 2.295s-0.339 1.817-0.15 2.722c-0.275 0.164-0.487 0.412-0.605 0.706s-0.135 0.618-0.047 0.923c0.087 0.304 0.273 0.572 0.53 0.762s0.569 0.292 0.89 0.29h0.030v2.498c0 0.253 0.102 0.497 0.284 0.676s0.429 0.28 0.686 0.28h0.754l1.228 10.493c0.026 0.234 0.138 0.45 0.315 0.606s0.407 0.244 0.646 0.243h5.111c0.239-0 0.469-0.087 0.647-0.244s0.291-0.372 0.319-0.606l1.228-10.493h0.754c0.257 0 0.504-0.101 0.686-0.28s0.284-0.422 0.284-0.676v-2.498h0.030c0.39 0 0.764-0.153 1.039-0.424s0.43-0.64 0.43-1.024c0.002-0.192-0.035-0.382-0.109-0.559s-0.183-0.338-0.322-0.473l-0.013 0.004zM4.896 6.715c0.621 2.298 3.017 3.203 5.202 4.010 0.059 0.036 0.125 0.058 0.193 0.066s0.138 0 0.203-0.021c0.065-0.022 0.125-0.057 0.175-0.104s0.088-0.104 0.113-0.168c0.025-0.063 0.035-0.132 0.030-0.199s-0.025-0.134-0.059-0.193c-0.034-0.059-0.080-0.111-0.136-0.15s-0.12-0.067-0.188-0.079c-2.353-0.879-4.573-1.699-4.741-4.048-0.039-0.646 0.084-1.291 0.358-1.879s0.692-1.099 1.215-1.49c0.328-0.269 0.68-0.508 1.052-0.714-0.024 0.294-0.024 0.59 0 0.884 0.050 0.673 0.237 1.33 0.549 1.93s0.744 1.133 1.27 1.566c0.358 0.302 0.802 0.612 1.293 0.943 1.133 0.803 2.422 1.699 3.241 2.914 0.437 0.623 0.709 1.344 0.791 2.097s-0.028 1.514-0.321 2.215h-1.905c-3.926 0-8.438-1.071-9.33-4.070-0.177-0.617-0.176-1.27 0.004-1.887s0.531-1.171 1.013-1.601l-0.022-0.021zM8.43 21.197l1.44 1.419-1.44 1.419-1.439-1.427 1.439-1.41zM11.731 24.923l-1.19 1.172-1.439-1.419 1.439-1.415 1.25 1.228-0.060 0.433zM8.43 28.177l-1.439-1.419 1.439-1.419 1.44 1.419-1.44 1.419zM7.771 24.685l-1.439 1.419-1.198-1.181-0.052-0.425 1.25-1.228 1.439 1.415zM5.668 26.758l-0.289 0.285-0.073-0.646 0.362 0.361zM5.517 28.211l0.815-0.803 1.582 1.572c0.008 0.032 0.018 0.063 0.030 0.093h-2.327l-0.099-0.862zM10.533 27.408l0.815 0.803-0.099 0.85h-2.392l1.676-1.652zM11.481 27.043l-0.289-0.285 0.366-0.361-0.078 0.646zM11.912 23.33l-0.72-0.722 0.914-0.901-0.194 1.623zM10.529 21.962l-1.366-1.342h2.732l-1.366 1.342zM6.327 21.962l-1.366-1.342h2.732l-1.366 1.342zM10.982 31.036h-5.107c-0.008-0.001-0.015-0.004-0.020-0.010s-0.009-0.012-0.010-0.020l-0.121-1.020h5.413l-0.116 1.020c-0.001 0.008-0.005 0.016-0.012 0.021s-0.014 0.008-0.023 0.008h-0.004zM14.934 16.235h-1.5c-0.065-0.006-0.131 0.001-0.193 0.022s-0.119 0.053-0.168 0.097c-0.048 0.043-0.087 0.096-0.114 0.155s-0.040 0.123-0.040 0.187c0 0.064 0.014 0.128 0.040 0.187s0.065 0.112 0.114 0.155c0.048 0.043 0.106 0.076 0.168 0.097s0.128 0.028 0.193 0.022h0.534v2.498c-0.001 0.008-0.005 0.016-0.011 0.021s-0.014 0.008-0.023 0.008h-11.020c-0.008 0-0.017-0.003-0.023-0.008s-0.010-0.013-0.011-0.021v-2.498h8.537c0.116-0.011 0.224-0.064 0.303-0.15s0.122-0.196 0.122-0.311-0.043-0.226-0.122-0.311c-0.079-0.085-0.186-0.139-0.303-0.15h-9.481c-0.074 0.007-0.148-0.002-0.219-0.026s-0.135-0.061-0.19-0.11c-0.055-0.049-0.099-0.109-0.128-0.176s-0.045-0.139-0.045-0.212c0-0.073 0.015-0.146 0.045-0.212s0.074-0.127 0.128-0.176c0.055-0.049 0.119-0.087 0.19-0.11s0.145-0.032 0.219-0.025h0.978c0.116-0.011 0.224-0.064 0.303-0.15s0.122-0.196 0.122-0.311-0.044-0.226-0.122-0.311c-0.079-0.085-0.186-0.139-0.303-0.15h-0.862c-0.123-0.646-0.103-1.311 0.059-1.949s0.463-1.234 0.881-1.746c0.302 0.926 1.077 2.192 3.017 3.199 1.823 0.939 4.236 1.419 7.171 1.419h1.724c0.074-0.007 0.148 0.002 0.219 0.025s0.135 0.061 0.19 0.11c0.055 0.049 0.098 0.109 0.128 0.176s0.045 0.139 0.045 0.212c0 0.073-0.015 0.146-0.045 0.212s-0.074 0.127-0.128 0.176c-0.055 0.049-0.119 0.087-0.19 0.11s-0.145 0.032-0.219 0.026h0.030z"></path>
</symbol>
<symbol id="icon-ice-crema" viewBox="0 0 32 32">
<path d="M16.108 0.107c0.080 0.214 0.241 1.252 0.241 1.573 0 0.797-0.295 1.54-0.837 2.122-0.449 0.482-0.897 0.75-1.975 1.185-1.198 0.489-1.694 0.783-2.256 1.339-0.569 0.569-0.904 1.192-1.024 1.921-0.134 0.797 0 1.359 0.408 1.68l0.208 0.161-0.328 0.208c-0.663 0.435-1.868 1.459-2.075 1.774-0.402 0.603-0.361 1.165 0.094 1.392l0.214 0.107-0.241 0.228c-0.361 0.341-0.435 0.576-0.382 1.192 0.033 0.408 0.020 0.629-0.074 0.964-0.114 0.435-0.114 0.442 0.033 0.75 0.147 0.301 0.562 0.683 0.937 0.843 0.181 0.080 0.187 0.107 0.228 0.723 0.020 0.355 0.053 1.486 0.080 2.517 0.020 1.031 0.067 1.975 0.107 2.089 0.033 0.121 0.161 0.281 0.274 0.361 0.388 0.268 0.656 0.556 0.83 0.89 0.194 0.382 0.408 1.319 1.058 4.559l0.455 2.276 0.281 0.268c0.536 0.529 1.56 0.77 3.247 0.77 1.694 0 2.705-0.234 3.24-0.763l0.288-0.274 0.415-2.109c0.917-4.613 0.997-4.867 1.714-5.436 0.221-0.181 0.435-0.402 0.475-0.502 0.047-0.114 0.094-0.991 0.127-2.316 0.027-1.178 0.067-2.343 0.094-2.591l0.040-0.449 0.435-0.328c0.549-0.422 0.763-0.803 0.763-1.393-0.007-0.696-0.462-1.459-1.292-2.142l-0.395-0.321 0.194-0.274c0.81-1.118 0.301-2.664-1.205-3.695l-0.455-0.315 0.167-0.174c0.743-0.797 0.864-3.173 0.241-4.827-0.375-0.984-1.232-2.055-2.283-2.845-0.515-0.388-1.935-1.245-2.062-1.245-0.027 0-0.027 0.047-0.007 0.107zM18.036 2.443c0.355 0.348 0.783 0.823 0.951 1.064 0.997 1.392 1.252 3.14 0.649 4.425-0.241 0.522-0.964 1.299-1.633 1.761-1.024 0.71-3.327 1.901-4.934 2.557-2.584 1.051-4.084 1.252-4.258 0.562-0.067-0.261 0.127-0.469 0.951-1.018 0.743-0.509 4.077-2.986 4.137-3.086 0.020-0.027-0.321 0.127-0.75 0.341-1.453 0.736-2.142 0.596-2.109-0.428 0.020-0.743 0.556-1.587 1.299-2.069 0.187-0.12 0.77-0.388 1.305-0.603 1.761-0.71 2.296-1.071 2.892-1.962 0.355-0.529 0.743-1.506 0.77-1.921 0.007-0.147 0.034-0.261 0.054-0.261s0.321 0.288 0.676 0.636zM19.864 10.049c0.489 0.274 0.997 0.743 1.218 1.111 0.388 0.663 0.187 1.325-0.649 2.169-0.91 0.924-2.464 1.808-4.171 2.37-1.573 0.515-3.079 0.756-5.235 0.83l-1.339 0.047 0.87 0.054c1.125 0.074 3.3 0.007 4.144-0.127 2.243-0.355 4.151-1.064 5.516-2.042 0.308-0.221 0.629-0.402 0.716-0.402 0.221 0 1.185 0.924 1.379 1.312 0.107 0.221 0.134 0.382 0.114 0.596-0.1 0.89-1.185 1.366-3.802 1.68-3.2 0.382-7.384 0.007-9.172-0.817-0.844-0.388-0.984-0.609-0.77-1.198 0.067-0.187 0.080-0.408 0.054-0.723-0.033-0.415-0.027-0.469 0.12-0.623 0.335-0.361 0.897-0.569 2.959-1.091 0.723-0.187 1.707-0.482 2.176-0.656 1.138-0.415 3.274-1.493 4.264-2.156 0.93-0.616 1.064-0.643 1.607-0.335zM10.974 18.243c1.406 0.408 2.651 0.529 4.967 0.482 1.741-0.034 2.812-0.141 4.358-0.415 0.315-0.053 0.589-0.1 0.623-0.1 0.074 0 0.053 2.571-0.027 3.247-0.087 0.716-0.281 1.272-0.489 1.406-0.214 0.141-1.285 0.288-2.718 0.368-2.939 0.161-5.958 0-6.895-0.375-0.509-0.207-0.562-0.475-0.569-2.959 0-1.654 0.013-1.881 0.1-1.848 0.053 0.020 0.348 0.107 0.649 0.194zM12.56 23.933c0.482 0.060 1.004 0.121 1.165 0.141l0.288 0.034-0.254 0.281c-0.328 0.355-0.83 1.064-1.011 1.426-0.207 0.415-0.274 0.442-0.582 0.274l-0.261-0.147-0.147-0.91c-0.080-0.495-0.167-0.971-0.187-1.051-0.060-0.174-0.12-0.174 0.991-0.047zM19.697 23.859c0 0.013-0.033 0.187-0.067 0.382-0.040 0.201-0.208 1.292-0.375 2.43-0.341 2.377-0.569 3.495-0.777 3.869-0.288 0.502-0.977 0.797-2.095 0.89-0.435 0.034-1.747-0.053-1.821-0.12-0.053-0.060 1.098-1.486 1.279-1.58 0.167-0.094 0.214-0.080 0.783 0.214 0.663 0.348 0.997 0.402 0.997 0.181s-0.174-0.435-0.602-0.73c-0.395-0.281-0.536-0.442-0.536-0.629 0-0.053 0.194-0.355 0.428-0.669s0.576-0.817 0.75-1.118l0.328-0.542 0.301 0.040c0.609 0.087 0.77 0.080 0.75-0.053-0.013-0.067-0.127-0.261-0.254-0.422-0.127-0.167-0.228-0.335-0.228-0.368 0-0.127 0.623-1.299 0.823-1.546 0.174-0.214 0.315-0.321 0.315-0.228zM15.513 24.395c0.335 0.221 1.593 1.312 1.674 1.446 0.034 0.060-1.259 2.082-1.513 2.37-0.027 0.034-0.167-0.033-0.308-0.141-0.141-0.114-0.663-0.475-1.165-0.803l-0.904-0.596 0.542-0.917c0.964-1.613 0.944-1.587 1.151-1.587 0.107 0 0.341 0.1 0.522 0.228zM18.050 24.636c-0.234 0.288-0.428 0.469-0.509 0.469-0.174 0-0.455-0.154-0.93-0.502l-0.395-0.288 0.79-0.047c0.428-0.020 0.844-0.047 0.917-0.060 0.536-0.087 0.536-0.080 0.127 0.428zM12.989 27.856c0.616 0.241 1.66 0.81 1.962 1.064 0.214 0.174 0.214 0.187 0.127 0.402-0.054 0.121-0.234 0.442-0.415 0.716-0.174 0.268-0.375 0.602-0.449 0.743-0.214 0.415-0.281 0.449-0.723 0.328-0.475-0.141-0.73-0.382-0.864-0.817-0.181-0.609-0.469-2.33-0.435-2.598 0.013-0.1 0.295-0.040 0.797 0.161z"></path>
</symbol>
<symbol id="icon-weight" viewBox="0 0 32 32">
<path d="M0 0h32v32h-32v-32z"></path>
<path d="M-989.333-132.444h1213.333v1928h-1213.333v-1928z"></path>
<path d="M14.177 0.547c-3.974 0.589-7.247 2.796-8.451 5.685-0.384 0.913-0.488 1.473-0.488 2.573 0.007 0.812 0.037 1.114 0.162 1.552 0.259 0.863 0.443 1.301 0.827 1.919l0.355 0.575-0.399 0.489c-3.154 3.924-3.502 9.444-0.872 13.793 0.982 1.632 2.585 3.234 4.152 4.169l0.465 0.273 12.743-0.108 0.303-0.165c1.056-0.597 2.549-1.926 3.383-3.004 1.256-1.639 2.076-3.551 2.423-5.621 0.118-0.74 0.118-2.932-0.007-3.63-0.377-2.149-1.182-3.989-2.453-5.621-0.244-0.309-0.436-0.568-0.436-0.589 0-0.014 0.133-0.237 0.288-0.489 0.362-0.575 0.687-1.315 0.864-1.962 0.199-0.719 0.199-2.516 0-3.234-0.709-2.552-2.837-4.679-5.843-5.851-0.842-0.331-2.283-0.683-3.213-0.798-0.864-0.101-2.999-0.079-3.804 0.043zM18.676 1.718c3.945 0.769 6.833 3.184 7.365 6.16 0.118 0.668 0.044 1.804-0.155 2.437-0.199 0.618-0.569 1.344-1.005 1.962-0.177 0.252-0.325 0.539-0.325 0.633s0.155 0.338 0.377 0.582c1.847 2.048 2.822 4.614 2.822 7.389-0.007 3.155-1.219 5.922-3.553 8.093-0.399 0.374-0.968 0.841-1.271 1.042l-0.554 0.374-12.211 0.050-0.473-0.302c-1.714-1.114-3.258-2.954-4.115-4.909-1.079-2.472-1.189-5.34-0.31-7.913 0.465-1.337 1.086-2.429 2.031-3.579 0.384-0.46 0.561-0.733 0.561-0.863 0-0.108-0.192-0.46-0.443-0.827-0.886-1.287-1.248-2.717-1.034-4.068 0.222-1.366 0.842-2.487 1.987-3.601 1.492-1.445 3.575-2.401 6.020-2.76 1.012-0.151 3.25-0.093 4.285 0.101z"></path>
<path d="M14.51 2.983c-3.029 0.496-5.4 2.178-6.176 4.384-0.177 0.496-0.207 0.69-0.207 1.402s0.030 0.906 0.207 1.402c0.111 0.316 0.318 0.755 0.458 0.977 0.384 0.618 0.554 0.64 1.315 0.18 1.138-0.697 2.445-1.208 3.804-1.488 0.916-0.187 2.674-0.259 3.671-0.144 1.559 0.18 3.25 0.74 4.602 1.538 0.384 0.223 0.776 0.41 0.872 0.41 0.561 0 1.278-1.617 1.278-2.875 0-2.796-2.674-5.189-6.464-5.786-0.805-0.129-2.585-0.129-3.361 0zM18.166 4.133c1.271 0.273 2.438 0.791 3.317 1.473 1.182 0.913 1.817 2.185 1.714 3.414-0.037 0.489-0.222 1.15-0.332 1.222-0.029 0.014-0.443-0.158-0.916-0.388-0.983-0.474-2.098-0.855-3.228-1.1-0.687-0.144-0.975-0.165-2.512-0.158-1.514 0-1.832 0.022-2.489 0.158-1.138 0.244-2.024 0.546-3.117 1.064-1.101 0.525-1.042 0.532-1.241-0.115-0.258-0.841-0.096-1.955 0.406-2.796 0.266-0.446 0.997-1.186 1.529-1.553 1.012-0.697 1.899-1.013 3.804-1.358 0.391-0.072 2.563 0.029 3.066 0.137z"></path>
<path d="M16.962 13.405c-0.207 0.259-0.207 0.503 0.007 0.712 0.14 0.137 0.281 0.173 0.79 0.208 0.99 0.072 1.935 0.359 2.785 0.848 0.606 0.359 1.529 1.229 1.943 1.854 0.613 0.898 1.034 2.185 1.034 3.134 0 0.331 0.029 0.431 0.185 0.575 0.236 0.237 0.547 0.237 0.776 0 0.163-0.165 0.17-0.208 0.125-0.913-0.207-3.479-3.184-6.382-6.744-6.577l-0.739-0.043-0.163 0.201z"></path>
</symbol>
<symbol id="icon-cow" viewBox="0 0 31 32">
<path d="M6.002 0.778c-0.254 0.219-0.979 1.733-1.24 2.559-0.31 1.024-0.416 1.791-0.373 2.852 0.056 1.514 0.437 2.661 1.275 3.861 0.218 0.314 0.394 0.585 0.394 0.607 0 0.015-0.134 0.029-0.303 0.029-0.726 0-2.085 0.241-3.128 0.556-1.655 0.497-2.627 1.367-2.627 2.34 0 0.344 0.31 0.929 0.641 1.228 0.641 0.578 2.043 1.126 3.55 1.389 0.521 0.095 2.071 0.256 2.416 0.263 0.063 0 0.085 0.336 0.085 1.44 0 0.951 0.035 1.689 0.106 2.142 0.254 1.623 1.043 3.341 2.085 4.555l0.359 0.417-0.24 0.387c-0.352 0.548-0.486 0.965-0.528 1.587-0.106 1.492 0.824 2.815 2.62 3.744 3.423 1.777 8.742 1.082 10.735-1.404 0.972-1.214 1.085-2.603 0.317-3.861l-0.239-0.388 0.43-0.519c0.803-0.965 1.324-1.93 1.719-3.151 0.331-1.038 0.458-2.040 0.458-3.627 0-0.724 0.021-1.323 0.056-1.323 0.324-0.007 1.881-0.175 2.374-0.263 1.515-0.263 2.888-0.804 3.55-1.389 0.331-0.3 0.641-0.885 0.641-1.228 0-1.082-1.099-1.96-3.142-2.486-0.669-0.175-1.93-0.387-2.543-0.424l-0.289-0.022 0.317-0.439c0.394-0.534 0.888-1.572 1.078-2.252 0.535-1.967 0.204-4.255-0.944-6.442-0.479-0.907-0.81-1.119-1.198-0.76-0.148 0.139-0.211 0.329-0.352 1.016-0.437 2.186-1.247 3.919-2.43 5.199l-0.521 0.57h-11.144l-0.465-0.505c-1.155-1.272-1.993-3.071-2.43-5.264-0.141-0.687-0.204-0.877-0.352-1.016-0.232-0.212-0.458-0.205-0.718 0.022zM6.903 5.114c0.373 0.819 0.838 1.587 1.388 2.296l0.437 0.563-0.458 0.344c-0.43 0.329-0.831 0.797-1.141 1.331l-0.134 0.241-0.338-0.461c-1.155-1.594-1.444-3.546-0.831-5.571 0.296-0.98 0.289-0.972 0.556-0.124 0.127 0.409 0.366 1.031 0.521 1.382zM25.239 3.571c0.289 0.87 0.402 1.565 0.402 2.464 0 1.331-0.352 2.457-1.092 3.466l-0.331 0.453-0.247-0.417c-0.289-0.512-0.782-1.046-1.233-1.353-0.19-0.124-0.338-0.249-0.338-0.263 0-0.022 0.134-0.19 0.303-0.373 0.782-0.87 1.62-2.435 2.036-3.78 0.127-0.417 0.254-0.76 0.275-0.76s0.127 0.256 0.225 0.563zM21.64 8.916c0.782 0.329 1.529 1.272 1.648 2.069 0.063 0.439 0.211 0.717 0.402 0.76 0.084 0.015 0.669 0.066 1.296 0.11 2.226 0.146 3.98 0.621 4.727 1.272 0.345 0.307 0.31 0.563-0.106 0.877-0.831 0.629-2.627 1.104-4.459 1.184-1.212 0.051-1.465 0.088-1.627 0.256-0.12 0.124-0.134 0.256-0.134 1.579 0 1.791-0.092 2.822-0.317 3.656-0.317 1.133-0.944 2.34-1.677 3.195l-0.303 0.351-0.627-0.373c-0.761-0.453-1.472-0.746-2.325-0.943-2.67-0.636-5.621-0.249-7.608 1.002l-0.458 0.293-0.289-0.344c-0.394-0.461-1.014-1.448-1.261-2.003-0.542-1.258-0.704-2.281-0.704-4.533 0-2.186 0.113-2.025-1.507-2.113-2.071-0.11-3.649-0.483-4.642-1.111-0.733-0.468-0.613-0.885 0.409-1.375 0.979-0.475 2.325-0.76 4.191-0.877 1.451-0.095 1.486-0.117 1.62-0.819 0.197-1.060 0.979-1.938 1.965-2.215 0.246-0.073 1.627-0.088 5.854-0.080l5.53 0.015 0.401 0.168zM17.681 24.051c1.726 0.424 3.015 1.214 3.571 2.193 0.134 0.227 0.19 0.461 0.218 0.819 0.028 0.446 0.007 0.556-0.162 0.921-0.782 1.66-3.656 2.756-6.579 2.508-3.515-0.293-5.826-2.252-4.917-4.175 0.493-1.038 2.163-2.033 3.924-2.325 0.289-0.044 0.578-0.095 0.634-0.11s0.69-0.015 1.409 0c0.979 0.022 1.451 0.066 1.902 0.168z"></path>
<path d="M10.693 12.579c-0.437 0.146-0.733 0.336-1.127 0.731-0.345 0.329-0.373 0.717-0.085 0.95 0.268 0.219 0.521 0.19 0.845-0.095 0.409-0.358 0.726-0.505 1.12-0.505 0.394-0.007 0.697 0.132 1.12 0.505 0.324 0.285 0.578 0.314 0.845 0.095 0.141-0.117 0.183-0.212 0.183-0.431 0-0.227-0.049-0.329-0.296-0.578-0.697-0.702-1.733-0.972-2.606-0.673z"></path>
<path d="M18.906 12.571c-0.451 0.168-1.029 0.548-1.261 0.833-0.225 0.278-0.232 0.592 0 0.826 0.232 0.249 0.514 0.234 0.852-0.044 0.831-0.687 1.451-0.709 2.219-0.073 0.197 0.168 0.423 0.3 0.493 0.3 0.345 0 0.627-0.307 0.627-0.673 0-0.234-0.585-0.775-1.113-1.031-0.585-0.285-1.282-0.336-1.817-0.139z"></path>
<path d="M11.714 26.106c-0.204 0.197-0.275 0.483-0.169 0.709 0.078 0.183 0.197 0.256 0.683 0.388 0.218 0.058 0.31 0.132 0.387 0.314 0.099 0.241 0.106 0.241 0.648 0.263l0.542 0.022v-0.205c-0.007-0.293-0.169-0.717-0.38-1.009-0.247-0.336-0.676-0.556-1.162-0.6-0.331-0.029-0.416-0.015-0.549 0.117z"></path>
<path d="M18.442 26.054c-0.352 0.095-0.859 0.57-1 0.943-0.063 0.168-0.127 0.468-0.134 0.665-0.014 0.314 0.014 0.388 0.183 0.541 0.416 0.366 0.965 0.080 0.965-0.504 0-0.285 0.211-0.483 0.585-0.556 0.394-0.073 0.535-0.234 0.542-0.607 0-0.49-0.437-0.68-1.141-0.483z"></path>
</symbol>
<symbol id="icon-fbb" viewBox="0 0 16 32">
<path d="M14.143 15.972h-4.034v14.865h-6.112v-14.865h-2.907v-5.224h2.907v-3.381c0-2.418 1.142-6.203 6.166-6.203l4.527 0.019v5.071h-3.285c-0.539 0-1.296 0.271-1.296 1.424v3.075h4.567l-0.534 5.219z"></path>
</symbol>
<symbol id="icon-charm_menu-hamburger-1" viewBox="0 0 47 32">
<path stroke-linejoin="round" stroke-linecap="round" stroke-width="4.3636" d="M1.96 29.154h42.965M1.96 15.615h42.965M1.96 2.077h42.965"/>
</symbol>
<symbol id="icon-Vector-2" viewBox="0 0 32 32">
<path d="M18.088 15.585l12.282-12.195c0.243-0.281 0.369-0.643 0.355-1.014s-0.169-0.721-0.433-0.983c-0.264-0.262-0.617-0.415-0.99-0.43s-0.737 0.112-1.021 0.353l-12.281 12.195-12.281-12.209c-0.279-0.277-0.657-0.433-1.052-0.433s-0.773 0.156-1.052 0.433c-0.279 0.277-0.436 0.653-0.436 1.044s0.157 0.767 0.436 1.044l12.296 12.195-12.296 12.195c-0.155 0.132-0.281 0.294-0.37 0.477s-0.139 0.381-0.147 0.584 0.026 0.405 0.101 0.593c0.074 0.189 0.187 0.36 0.332 0.504s0.317 0.255 0.507 0.329c0.19 0.074 0.394 0.108 0.598 0.1s0.404-0.057 0.588-0.146 0.347-0.213 0.48-0.367l12.296-12.195 12.281 12.195c0.283 0.241 0.648 0.367 1.021 0.353s0.727-0.168 0.99-0.43c0.264-0.262 0.418-0.613 0.433-0.983s-0.112-0.732-0.355-1.014l-12.282-12.195z"></path>
</symbol>
<symbol id="icon-Arrow" viewBox="0 0 82 32">
<path d="M81.414 17.414c0.781-0.781 0.781-2.047 0-2.828l-12.728-12.728c-0.781-0.781-2.047-0.781-2.828 0s-0.781 2.047 0 2.828l11.314 11.314-11.314 11.314c-0.781 0.781-0.781 2.047 0 2.828s2.047 0.781 2.828 0l12.728-12.728zM0 18h80v-4h-80v4z"></path>
</symbol>
<symbol id="icon-untitled" viewBox="0 0 104 32"><path d="M85.595 17.785c.214 1.507-.745 2.915-2.143 3.146s-2.705-.803-2.92-2.31c-.214-1.507.745-2.915 2.143-3.146s2.705.803 2.92 2.31zM90.563 13.241c.214 1.507-.745 2.915-2.143 3.146s-2.705-.803-2.92-2.31c-.214-1.507.745-2.915 2.143-3.146s2.705.803 2.92 2.31zM96.31 8.103c.214 1.507-.745 2.915-2.143 3.146s-2.705-.803-2.92-2.31c-.214-1.507.745-2.915 2.143-3.146s2.705.803 2.92 2.31zM101.7 3.49c.214 1.507-.745 2.915-2.143 3.146s-2.705-.803-2.92-2.31c-.214-1.507.745-2.915 2.143-3.146s2.705.803 2.92 2.31zM5.12 16.519c0 1.466-1.146 2.654-2.56 2.654S0 17.985 0 16.519s1.146-2.654 2.56-2.654 2.56 1.188 2.56 2.654zM10.665 12.98c0 1.466-1.146 2.654-2.56 2.654s-2.56-1.188-2.56-2.654 1.146-2.654 2.56-2.654 2.56 1.188 2.56 2.654zM17.066 8.999c0 1.466-1.146 2.654-2.56 2.654s-2.56-1.188-2.56-2.654 1.146-2.654 2.56-2.654 2.56 1.188 2.56 2.654zM23.038 5.46c0 1.466-1.146 2.654-2.56 2.654s-2.56-1.188-2.56-2.654 1.146-2.654 2.56-2.654 2.56 1.188 2.56 2.654zM7.68 23.153c0 1.466-1.146 2.654-2.56 2.654s-2.56-1.188-2.56-2.654 1.146-2.654 2.56-2.654 2.56 1.188 2.56 2.654zM13.226 19.615c0 1.466-1.146 2.654-2.56 2.654s-2.56-1.188-2.56-2.654 1.146-2.654 2.56-2.654 2.56 1.188 2.56 2.654zM19.627 15.634c0 1.466-1.146 2.654-2.56 2.654s-2.56-1.188-2.56-2.654 1.146-2.654 2.56-2.654 2.56 1.188 2.56 2.654zM25.598 12.095c0 1.466-1.146 2.654-2.56 2.654s-2.56-1.188-2.56-2.654 1.146-2.654 2.56-2.654 2.56 1.188 2.56 2.654zM14.078 26.691c0 1.466-1.146 2.654-2.56 2.654s-2.56-1.188-2.56-2.654 1.146-2.654 2.56-2.654 2.56 1.188 2.56 2.654zM19.625 23.153c0 1.466-1.146 2.654-2.56 2.654s-2.56-1.188-2.56-2.654 1.146-2.654 2.56-2.654 2.56 1.188 2.56 2.654zM26.024 19.172c0 1.466-1.146 2.654-2.56 2.654s-2.56-1.188-2.56-2.654 1.146-2.654 2.56-2.654 2.56 1.188 2.56 2.654zM31.996 15.634c0 1.466-1.146 2.654-2.56 2.654s-2.56-1.188-2.56-2.654 1.146-2.654 2.56-2.654 2.56 1.188 2.56 2.654zM21.33 28.904c0 1.466-1.146 2.654-2.56 2.654s-2.56-1.188-2.56-2.654 1.146-2.654 2.56-2.654 2.56 1.188 2.56 2.654zM26.876 25.365c0 1.466-1.146 2.654-2.56 2.654s-2.56-1.188-2.56-2.654 1.146-2.654 2.56-2.654 2.56 1.188 2.56 2.654zM33.278 21.384c0 1.466-1.146 2.654-2.56 2.654s-2.56-1.188-2.56-2.654 1.146-2.654 2.56-2.654 2.56 1.188 2.56 2.654zM39.248 17.846c0 1.466-1.146 2.654-2.56 2.654s-2.56-1.188-2.56-2.654 1.146-2.654 2.56-2.654 2.56 1.188 2.56 2.654z"/><path d="M30.717 29.346c0 1.466-1.146 2.654-2.56 2.654s-2.56-1.188-2.56-2.654 1.146-2.654 2.56-2.654 2.56 1.188 2.56 2.654zM36.263 25.808c0 1.466-1.146 2.654-2.56 2.654s-2.56-1.188-2.56-2.654 1.146-2.654 2.56-2.654 2.56 1.188 2.56 2.654zM42.664 21.826c0 1.466-1.146 2.654-2.56 2.654s-2.56-1.188-2.56-2.654 1.146-2.654 2.56-2.654 2.56 1.188 2.56 2.654zM48.635 18.288c0 1.466-1.146 2.654-2.56 2.654s-2.56-1.188-2.56-2.654 1.146-2.654 2.56-2.654 2.56 1.188 2.56 2.654zM41.811 29.346c0 1.466-1.146 2.654-2.56 2.654s-2.56-1.188-2.56-2.654 1.146-2.654 2.56-2.654 2.56 1.188 2.56 2.654zM47.356 25.807c0 1.466-1.146 2.654-2.56 2.654s-2.56-1.188-2.56-2.654 1.146-2.654 2.56-2.654 2.56 1.188 2.56 2.654zM53.756 21.826c0 1.466-1.146 2.654-2.56 2.654s-2.56-1.188-2.56-2.654 1.146-2.654 2.56-2.654 2.56 1.188 2.56 2.654zM59.729 18.288c0 1.466-1.146 2.654-2.56 2.654s-2.56-1.188-2.56-2.654 1.146-2.654 2.56-2.654 2.56 1.188 2.56 2.654z"/><path d="M51.194 28.904c0 1.466-1.146 2.654-2.56 2.654s-2.56-1.188-2.56-2.654 1.146-2.654 2.56-2.654 2.56 1.188 2.56 2.654zM56.74 25.365c0 1.466-1.146 2.654-2.56 2.654s-2.56-1.188-2.56-2.654 1.146-2.654 2.56-2.654 2.56 1.188 2.56 2.654zM63.141 21.384c0 1.466-1.146 2.654-2.56 2.654s-2.56-1.188-2.56-2.654 1.146-2.654 2.56-2.654 2.56 1.188 2.56 2.654zM69.112 17.846c0 1.466-1.146 2.654-2.56 2.654s-2.56-1.188-2.56-2.654 1.146-2.654 2.56-2.654 2.56 1.188 2.56 2.654zM61.859 28.461c0 1.466-1.146 2.654-2.56 2.654s-2.56-1.188-2.56-2.654 1.146-2.654 2.56-2.654 2.56 1.188 2.56 2.654zM67.405 24.923c0 1.466-1.146 2.654-2.56 2.654s-2.56-1.188-2.56-2.654 1.146-2.654 2.56-2.654 2.56 1.188 2.56 2.654zM73.806 20.942c0 1.466-1.146 2.654-2.56 2.654s-2.56-1.188-2.56-2.654 1.146-2.654 2.56-2.654 2.56 1.188 2.56 2.654zM79.778 17.403c0 1.466-1.146 2.654-2.56 2.654s-2.56-1.188-2.56-2.654 1.146-2.654 2.56-2.654 2.56 1.188 2.56 2.654z"/><path d="M71.672 16.961c0 1.466-1.146 2.654-2.56 2.654s-2.56-1.188-2.56-2.654 1.146-2.654 2.56-2.654 2.56 1.188 2.56 2.654zM77.218 13.422c0 1.466-1.146 2.654-2.56 2.654s-2.56-1.188-2.56-2.654 1.146-2.654 2.56-2.654 2.56 1.188 2.56 2.654zM83.618 9.441c0 1.466-1.146 2.654-2.56 2.654s-2.56-1.188-2.56-2.654 1.146-2.654 2.56-2.654 2.56 1.188 2.56 2.654zM89.59 5.903c0 1.466-1.146 2.654-2.56 2.654s-2.56-1.188-2.56-2.654 1.146-2.654 2.56-2.654 2.56 1.188 2.56 2.654z"/></symbol><symbol id="icon-Group-124" viewBox="0 0 81 32"><path d="M32.761 29.617c0 .982-.739 1.778-1.65 1.778s-1.65-.796-1.65-1.778.739-1.778 1.65-1.778 1.65.796 1.65 1.778zM36.336 27.245c0 .982-.739 1.778-1.65 1.778s-1.65-.796-1.65-1.778.739-1.778 1.65-1.778 1.65.796 1.65 1.778zM40.461 24.578c0 .982-.739 1.778-1.65 1.778s-1.65-.796-1.65-1.778.739-1.778 1.65-1.778 1.65.796 1.65 1.778zM44.312 22.207c0 .982-.739 1.778-1.65 1.778s-1.65-.796-1.65-1.778.739-1.778 1.65-1.778 1.65.796 1.65 1.778zM42.11 28.431c0 .982-.739 1.778-1.65 1.778s-1.65-.796-1.65-1.778.739-1.778 1.65-1.778 1.65.796 1.65 1.778zM45.686 26.06c0 .982-.739 1.778-1.65 1.778s-1.65-.796-1.65-1.778.739-1.778 1.65-1.778 1.65.796 1.65 1.778zM49.811 23.392c0 .982-.739 1.778-1.65 1.778s-1.65-.796-1.65-1.778.739-1.778 1.65-1.778 1.65.796 1.65 1.778zM53.662 21.021c0 .982-.739 1.778-1.65 1.778s-1.65-.796-1.65-1.778.739-1.778 1.65-1.778 1.65.796 1.65 1.778zM50.087 27.542c0 .982-.739 1.778-1.65 1.778s-1.65-.796-1.65-1.778.739-1.778 1.65-1.778 1.65.796 1.65 1.778zM53.663 25.171c0 .982-.739 1.778-1.65 1.778s-1.65-.796-1.65-1.778.739-1.778 1.65-1.778 1.65.796 1.65 1.778zM57.789 22.503c0 .982-.739 1.778-1.65 1.778s-1.65-.796-1.65-1.778.739-1.778 1.65-1.778 1.65.796 1.65 1.778zM61.637 20.132c0 .982-.739 1.778-1.65 1.778s-1.65-.796-1.65-1.778.739-1.778 1.65-1.778 1.65.796 1.65 1.778zM57.787 26.357c0 .982-.739 1.778-1.65 1.778s-1.65-.796-1.65-1.778.739-1.778 1.65-1.778 1.65.796 1.65 1.778zM61.362 23.985c0 .982-.739 1.778-1.65 1.778s-1.65-.796-1.65-1.778.739-1.778 1.65-1.778 1.65.796 1.65 1.778zM65.487 21.318c0 .982-.739 1.778-1.65 1.778s-1.65-.796-1.65-1.778.739-1.778 1.65-1.778 1.65.796 1.65 1.778zM69.338 18.947c0 .982-.739 1.778-1.65 1.778s-1.65-.796-1.65-1.778.739-1.778 1.65-1.778 1.65.796 1.65 1.778zM60.263 29.617c0 .982-.739 1.778-1.65 1.778s-1.65-.796-1.65-1.778.739-1.778 1.65-1.778 1.65.796 1.65 1.778zM63.838 27.245c0 .982-.739 1.778-1.65 1.778s-1.65-.796-1.65-1.778.739-1.778 1.65-1.778 1.65.796 1.65 1.778zM68.789 29.913c0 .982-.739 1.778-1.65 1.778s-1.65-.796-1.65-1.778.739-1.778 1.65-1.778 1.65.796 1.65 1.778zM67.965 24.578c0 .982-.739 1.778-1.65 1.778s-1.65-.796-1.65-1.778.739-1.778 1.65-1.778 1.65.796 1.65 1.778zM72.914 27.245c0 .982-.739 1.778-1.65 1.778s-1.65-.796-1.65-1.778.739-1.778 1.65-1.778 1.65.796 1.65 1.778zM76.765 29.913c0 .982-.739 1.778-1.65 1.778s-1.65-.796-1.65-1.778.739-1.778 1.65-1.778 1.65.796 1.65 1.778zM71.814 22.207c0 .982-.739 1.778-1.65 1.778s-1.65-.796-1.65-1.778.739-1.778 1.65-1.778 1.65.796 1.65 1.778zM76.765 24.874c0 .982-.739 1.778-1.65 1.778s-1.65-.796-1.65-1.778.739-1.778 1.65-1.778 1.65.796 1.65 1.778zM80.615 27.542c0 .982-.739 1.778-1.65 1.778s-1.65-.796-1.65-1.778.739-1.778 1.65-1.778 1.65.796 1.65 1.778zM15.986 10.055c0 .982-.739 1.778-1.65 1.778s-1.65-.796-1.65-1.778.739-1.778 1.65-1.778 1.65.796 1.65 1.778zM19.56 7.684c0 .982-.739 1.778-1.65 1.778s-1.65-.796-1.65-1.778.739-1.778 1.65-1.778 1.65.796 1.65 1.778zM23.687 5.016c0 .982-.739 1.778-1.65 1.778s-1.65-.796-1.65-1.778.739-1.778 1.65-1.778 1.65.796 1.65 1.778zM27.536 2.645c0 .982-.739 1.778-1.65 1.778s-1.65-.796-1.65-1.778.739-1.778 1.65-1.778 1.65.796 1.65 1.778zM9.109 9.758c0 .982-.739 1.778-1.65 1.778s-1.65-.796-1.65-1.778.739-1.778 1.65-1.778 1.65.796 1.65 1.778zM12.684 7.387c0 .982-.739 1.778-1.65 1.778s-1.65-.796-1.65-1.778.739-1.778 1.65-1.778 1.65.796 1.65 1.778zM16.809 4.72c0 .982-.739 1.778-1.65 1.778s-1.65-.796-1.65-1.778.739-1.778 1.65-1.778 1.65.796 1.65 1.778zM20.659 2.349c0 .982-.739 1.778-1.65 1.778s-1.65-.796-1.65-1.778.739-1.778 1.65-1.778 1.65.796 1.65 1.778zM24.51 29.617c0 .982-.739 1.778-1.65 1.778s-1.65-.796-1.65-1.778.739-1.778 1.65-1.778 1.65.796 1.65 1.778zM28.085 27.245c0 .982-.739 1.778-1.65 1.778s-1.65-.796-1.65-1.778.739-1.778 1.65-1.778 1.65.796 1.65 1.778zM32.21 24.578c0 .982-.739 1.778-1.65 1.778s-1.65-.796-1.65-1.778.739-1.778 1.65-1.778 1.65.796 1.65 1.778zM36.06 22.207c0 .982-.739 1.778-1.65 1.778s-1.65-.796-1.65-1.778.739-1.778 1.65-1.778 1.65.796 1.65 1.778zM20.11 27.838c0 .982-.739 1.778-1.65 1.778s-1.65-.796-1.65-1.778.739-1.778 1.65-1.778 1.65.796 1.65 1.778zM23.685 25.467c0 .982-.739 1.778-1.65 1.778s-1.65-.796-1.65-1.778.739-1.778 1.65-1.778 1.65.796 1.65 1.778zM27.81 22.799c0 .982-.739 1.778-1.65 1.778s-1.65-.796-1.65-1.778.739-1.778 1.65-1.778 1.65.796 1.65 1.778zM31.66 20.429c0 .982-.739 1.778-1.65 1.778s-1.65-.796-1.65-1.778.739-1.778 1.65-1.778 1.65.796 1.65 1.778zM21.76 21.614c0 .982-.739 1.778-1.65 1.778s-1.65-.796-1.65-1.778.739-1.778 1.65-1.778 1.65.796 1.65 1.778zM25.334 19.243c0 .982-.739 1.778-1.65 1.778s-1.65-.796-1.65-1.778.739-1.778 1.65-1.778 1.65.796 1.65 1.778zM29.461 16.575c0 .982-.739 1.778-1.65 1.778s-1.65-.796-1.65-1.778.739-1.778 1.65-1.778 1.65.796 1.65 1.778zM33.31 14.204c0 .982-.739 1.778-1.65 1.778s-1.65-.796-1.65-1.778.739-1.778 1.65-1.778 1.65.796 1.65 1.778zM21.76 11.24c0 .982-.739 1.778-1.65 1.778s-1.65-.796-1.65-1.778.739-1.778 1.65-1.778 1.65.796 1.65 1.778zM25.334 8.869c0 .982-.739 1.778-1.65 1.778s-1.65-.796-1.65-1.778.739-1.778 1.65-1.778 1.65.796 1.65 1.778zM29.461 6.202c0 .982-.739 1.778-1.65 1.778s-1.65-.796-1.65-1.778.739-1.778 1.65-1.778 1.65.796 1.65 1.778zM33.31 3.83c0 .982-.739 1.778-1.65 1.778s-1.65-.796-1.65-1.778.739-1.778 1.65-1.778 1.65.796 1.65 1.778zM20.935 16.872c0 .982-.739 1.778-1.65 1.778s-1.65-.796-1.65-1.778.739-1.778 1.65-1.778 1.65.796 1.65 1.778zM24.511 14.501c0 .982-.739 1.778-1.65 1.778s-1.65-.796-1.65-1.778.739-1.778 1.65-1.778 1.65.796 1.65 1.778zM28.636 11.833c0 .982-.739 1.778-1.65 1.778s-1.65-.796-1.65-1.778.739-1.778 1.65-1.778 1.65.796 1.65 1.778zM32.485 9.462c0 .982-.739 1.778-1.65 1.778s-1.65-.796-1.65-1.778.739-1.778 1.65-1.778 1.65.796 1.65 1.778zM3.609 8.276c0 .982-.739 1.778-1.65 1.778S.309 9.258.309 8.276s.739-1.778 1.65-1.778 1.65.796 1.65 1.778zM7.184 5.905c0 .982-.739 1.778-1.65 1.778s-1.65-.796-1.65-1.778.739-1.778 1.65-1.778 1.65.796 1.65 1.778zM11.31 3.238c0 .982-.739 1.778-1.65 1.778S8.01 4.22 8.01 3.238 8.749 1.46 9.66 1.46s1.65.796 1.65 1.778z"/><path d="M9.384 10.055c.911 0 1.65-.796 1.65-1.778s-.739-1.778-1.65-1.778c-.911 0-1.65.796-1.65 1.778s.739 1.778 1.65 1.778z"/></symbol>
<symbol id="icon-kropki-5" viewBox="0 0 356 32"><path d="M306.022 29.57c0 1.021-.832 1.849-1.858 1.849s-1.858-.828-1.858-1.849.832-1.849 1.858-1.849 1.858.828 1.858 1.849zM309.737 27.259c0 1.021-.832 1.849-1.858 1.849s-1.858-.828-1.858-1.849.832-1.849 1.858-1.849 1.858.828 1.858 1.849zM314.38 24.484c0 1.021-.832 1.849-1.858 1.849s-1.858-.828-1.858-1.849.832-1.849 1.858-1.849 1.858.828 1.858 1.849zM318.095 22.173c0 1.021-.832 1.849-1.858 1.849s-1.858-.828-1.858-1.849.832-1.849 1.858-1.849 1.858.828 1.858 1.849zM315.773 28.646c0 1.021-.832 1.849-1.858 1.849s-1.858-.828-1.858-1.849.832-1.849 1.858-1.849 1.858.828 1.858 1.849zM319.489 26.334c0 1.021-.832 1.849-1.858 1.849s-1.858-.828-1.858-1.849.832-1.849 1.858-1.849 1.858.828 1.858 1.849zM324.132 23.56c0 1.021-.832 1.849-1.858 1.849s-1.858-.828-1.858-1.849.832-1.849 1.858-1.849 1.858.828 1.858 1.849zM327.847 21.248c0 1.021-.832 1.849-1.858 1.849s-1.858-.828-1.858-1.849.832-1.849 1.858-1.849 1.858.828 1.858 1.849zM324.132 27.721c0 1.021-.832 1.849-1.858 1.849s-1.858-.828-1.858-1.849.832-1.849 1.858-1.849 1.858.828 1.858 1.849zM327.847 25.409c0 1.021-.832 1.849-1.858 1.849s-1.858-.828-1.858-1.849.832-1.849 1.858-1.849 1.858.828 1.858 1.849zM332.491 22.635c0 1.021-.832 1.849-1.858 1.849s-1.858-.828-1.858-1.849.832-1.849 1.858-1.849 1.858.828 1.858 1.849zM336.206 20.323c0 1.021-.832 1.849-1.858 1.849s-1.858-.828-1.858-1.849.832-1.849 1.858-1.849 1.858.828 1.858 1.849zM332.491 26.334c0 1.021-.832 1.849-1.858 1.849s-1.858-.828-1.858-1.849.832-1.849 1.858-1.849 1.858.828 1.858 1.849zM336.206 24.022c0 1.021-.832 1.849-1.858 1.849s-1.858-.828-1.858-1.849.832-1.849 1.858-1.849 1.858.828 1.858 1.849zM340.85 21.248c0 1.021-.832 1.849-1.858 1.849s-1.858-.828-1.858-1.849.832-1.849 1.858-1.849 1.858.828 1.858 1.849zM344.565 18.936c0 1.021-.832 1.849-1.858 1.849s-1.858-.828-1.858-1.849.832-1.849 1.858-1.849 1.858.828 1.858 1.849zM334.813 29.57c0 1.021-.832 1.849-1.858 1.849s-1.858-.828-1.858-1.849.832-1.849 1.858-1.849 1.858.828 1.858 1.849zM338.528 27.259c0 1.021-.832 1.849-1.858 1.849s-1.858-.828-1.858-1.849.832-1.849 1.858-1.849 1.858.828 1.858 1.849zM343.636 30.033c0 1.021-.832 1.849-1.858 1.849s-1.858-.828-1.858-1.849.832-1.849 1.858-1.849 1.858.828 1.858 1.849zM343.171 24.484c0 1.021-.832 1.849-1.858 1.849s-1.858-.828-1.858-1.849.832-1.849 1.858-1.849 1.858.828 1.858 1.849zM348.279 27.259c0 1.021-.832 1.849-1.858 1.849s-1.858-.828-1.858-1.849.832-1.849 1.858-1.849 1.858.828 1.858 1.849zM352.459 30.033c0 1.021-.832 1.849-1.858 1.849s-1.858-.828-1.858-1.849.832-1.849 1.858-1.849 1.858.828 1.858 1.849zM346.887 22.173c0 1.021-.832 1.849-1.858 1.849s-1.858-.828-1.858-1.849.832-1.849 1.858-1.849 1.858.828 1.858 1.849zM352.459 24.947c0 1.021-.832 1.849-1.858 1.849s-1.858-.828-1.858-1.849.832-1.849 1.858-1.849 1.858.828 1.858 1.849zM356.174 27.721c0 1.021-.832 1.849-1.858 1.849s-1.858-.828-1.858-1.849.832-1.849 1.858-1.849 1.858.828 1.858 1.849zM288.376 10.151c0 1.021-.832 1.849-1.858 1.849s-1.858-.828-1.858-1.849.832-1.849 1.858-1.849 1.858.828 1.858 1.849zM292.091 7.839c0 1.021-.832 1.849-1.858 1.849s-1.858-.828-1.858-1.849.832-1.849 1.858-1.849 1.858.828 1.858 1.849zM296.734 5.065c0 1.021-.832 1.849-1.858 1.849s-1.858-.828-1.858-1.849.832-1.849 1.858-1.849 1.858.828 1.858 1.849zM300.449 2.753c0 1.021-.832 1.849-1.858 1.849s-1.858-.828-1.858-1.849.832-1.849 1.858-1.849 1.858.828 1.858 1.849zM280.946 9.689c0 1.021-.832 1.849-1.858 1.849s-1.858-.828-1.858-1.849.832-1.849 1.858-1.849 1.858.828 1.858 1.849zM284.661 7.377c0 1.021-.832 1.849-1.858 1.849s-1.858-.828-1.858-1.849.832-1.849 1.858-1.849 1.858.828 1.858 1.849zM289.304 4.603c0 1.021-.832 1.849-1.858 1.849s-1.858-.828-1.858-1.849.832-1.849 1.858-1.849 1.858.828 1.858 1.849zM293.019 2.291c0 1.021-.832 1.849-1.858 1.849s-1.858-.828-1.858-1.849.832-1.849 1.858-1.849 1.858.828 1.858 1.849zM297.198 29.57c0 1.021-.832 1.849-1.858 1.849s-1.858-.828-1.858-1.849.832-1.849 1.858-1.849 1.858.828 1.858 1.849zM300.914 27.259c0 1.021-.832 1.849-1.858 1.849s-1.858-.828-1.858-1.849.832-1.849 1.858-1.849 1.858.828 1.858 1.849zM305.557 24.484c0 1.021-.832 1.849-1.858 1.849s-1.858-.828-1.858-1.849.832-1.849 1.858-1.849 1.858.828 1.858 1.849zM309.272 22.173c0 1.021-.832 1.849-1.858 1.849s-1.858-.828-1.858-1.849.832-1.849 1.858-1.849 1.858.828 1.858 1.849zM292.555 28.183c0 1.021-.832 1.849-1.858 1.849s-1.858-.828-1.858-1.849.832-1.849 1.858-1.849 1.858.828 1.858 1.849z"/><path d="M296.27 25.872c0 1.021-.832 1.849-1.858 1.849s-1.858-.828-1.858-1.849.832-1.849 1.858-1.849 1.858.828 1.858 1.849zM300.914 23.097c0 1.021-.832 1.849-1.858 1.849s-1.858-.828-1.858-1.849.832-1.849 1.858-1.849 1.858.828 1.858 1.849zM304.628 20.785c0 1.021-.832 1.849-1.858 1.849s-1.858-.828-1.858-1.849.832-1.849 1.858-1.849 1.858.828 1.858 1.849zM294.413 21.71c0 1.021-.832 1.849-1.858 1.849s-1.858-.828-1.858-1.849.832-1.849 1.858-1.849 1.858.828 1.858 1.849zM298.127 19.398c0 1.021-.832 1.849-1.858 1.849s-1.858-.828-1.858-1.849.832-1.849 1.858-1.849 1.858.828 1.858 1.849zM302.771 16.624c0 1.021-.832 1.849-1.858 1.849s-1.858-.828-1.858-1.849.832-1.849 1.858-1.849 1.858.828 1.858 1.849zM306.486 14.312c0 1.021-.832 1.849-1.858 1.849s-1.858-.828-1.858-1.849.832-1.849 1.858-1.849 1.858.828 1.858 1.849zM294.413 11.076c0 1.021-.832 1.849-1.858 1.849s-1.858-.828-1.858-1.849.832-1.849 1.858-1.849 1.858.828 1.858 1.849zM298.127 8.764c0 1.021-.832 1.849-1.858 1.849s-1.858-.828-1.858-1.849.832-1.849 1.858-1.849 1.858.828 1.858 1.849zM302.771 5.99c0 1.021-.832 1.849-1.858 1.849s-1.858-.828-1.858-1.849.832-1.849 1.858-1.849 1.858.828 1.858 1.849zM306.486 3.678c0 1.021-.832 1.849-1.858 1.849s-1.858-.828-1.858-1.849.832-1.849 1.858-1.849 1.858.828 1.858 1.849zM293.484 17.087c0 1.021-.832 1.849-1.858 1.849s-1.858-.828-1.858-1.849.832-1.849 1.858-1.849 1.858.828 1.858 1.849zM297.198 14.775c0 1.021-.832 1.849-1.858 1.849s-1.858-.828-1.858-1.849.832-1.849 1.858-1.849 1.858.828 1.858 1.849zM301.842 12.001c0 1.021-.832 1.849-1.858 1.849s-1.858-.828-1.858-1.849.832-1.849 1.858-1.849 1.858.828 1.858 1.849zM305.557 9.689c0 1.021-.832 1.849-1.858 1.849s-1.858-.828-1.858-1.849.832-1.849 1.858-1.849 1.858.828 1.858 1.849zM274.909 8.302c0 1.021-.728 1.849-1.625 1.849s-1.625-.828-1.625-1.849.728-1.849 1.625-1.849 1.625.828 1.625 1.849zM278.624 5.99c0 1.021-.728 1.849-1.625 1.849s-1.625-.828-1.625-1.849.728-1.849 1.625-1.849 1.625.828 1.625 1.849zM283.267 3.216c0 1.021-.728 1.849-1.625 1.849s-1.625-.828-1.625-1.849.728-1.849 1.625-1.849 1.625.828 1.625 1.849zM281.178 10.151c.898 0 1.625-.828 1.625-1.849s-.728-1.849-1.625-1.849-1.625.828-1.625 1.849.728 1.849 1.625 1.849zM3.715 27.362a1.856 1.856 0 1 1-3.712-.002 1.856 1.856 0 0 1 3.712.002zM7.43 25.043a1.856 1.856 0 1 1-3.712-.002 1.856 1.856 0 0 1 3.712.002zM12.074 22.261a1.856 1.856 0 1 1-3.712-.002 1.856 1.856 0 0 1 3.712.002zM15.789 19.942a1.856 1.856 0 1 1-3.712-.002 1.856 1.856 0 0 1 3.712.002zM26.005 28.29c0 1.025-.832 1.855-1.858 1.855s-1.858-.831-1.858-1.855c0-1.025.832-1.855 1.858-1.855s1.858.831 1.858 1.855zM29.72 25.971c0 1.025-.832 1.855-1.858 1.855s-1.858-.831-1.858-1.855c0-1.025.832-1.855 1.858-1.855s1.858.831 1.858 1.855zM34.364 23.188c0 1.025-.832 1.855-1.858 1.855s-1.858-.831-1.858-1.855c0-1.025.832-1.855 1.858-1.855s1.858.831 1.858 1.855zM38.079 20.87c0 1.025-.832 1.855-1.858 1.855s-1.858-.831-1.858-1.855c0-1.025.832-1.855 1.858-1.855s1.858.831 1.858 1.855zM34.364 26.899c0 1.025-.728 1.855-1.625 1.855s-1.625-.831-1.625-1.855c0-1.025.728-1.855 1.625-1.855s1.625.831 1.625 1.855z"/><path d="M38.078 24.58c0 1.025-.728 1.855-1.625 1.855s-1.625-.831-1.625-1.855c0-1.025.728-1.855 1.625-1.855s1.625.831 1.625 1.855zM42.258 22.261c0 1.025-.728 1.855-1.625 1.855s-1.625-.831-1.625-1.855c0-1.025.728-1.855 1.625-1.855s1.625.831 1.625 1.855zM46.437 19.942c0 1.025-.728 1.855-1.625 1.855s-1.625-.831-1.625-1.855c0-1.025.728-1.855 1.625-1.855s1.625.831 1.625 1.855zM51.081 16.232c0 1.025-.728 1.855-1.625 1.855s-1.625-.831-1.625-1.855c0-1.025.728-1.855 1.625-1.855s1.625.831 1.625 1.855zM41.329 18.087c0 1.025-.728 1.855-1.625 1.855s-1.625-.831-1.625-1.855c0-1.025.728-1.855 1.625-1.855s1.625.831 1.625 1.855zM17.646 28.29a1.856 1.856 0 1 1-3.712-.002 1.856 1.856 0 0 1 3.712.002zM21.361 25.971a1.858 1.858 0 0 1-3.715 0c0-1.025.832-1.855 1.858-1.855s1.858.831 1.858 1.855zM26.005 23.188c0 1.025-.832 1.855-1.858 1.855s-1.858-.831-1.858-1.855c0-1.025.832-1.855 1.858-1.855s1.858.831 1.858 1.855zM29.72 20.87c0 1.025-.832 1.855-1.858 1.855s-1.858-.831-1.858-1.855c0-1.025.832-1.855 1.858-1.855s1.858.831 1.858 1.855zM10.216 27.826a1.856 1.856 0 1 1-3.712-.002 1.856 1.856 0 0 1 3.712.002zM13.931 25.507a1.856 1.856 0 1 1-3.712-.002 1.856 1.856 0 0 1 3.712.002zM18.575 22.725c0 1.025-.832 1.855-1.858 1.855a1.856 1.856 0 1 1 0-3.71c1.025 0 1.858.831 1.858 1.855zM22.29 20.406c0 1.025-.832 1.855-1.858 1.855s-1.858-.831-1.858-1.855c0-1.025.832-1.855 1.858-1.855s1.858.831 1.858 1.855z"/></symbol>
<symbol id="icon-kropki-4" viewBox="0 0 203 32"><path d="M155.222 29.617c0 .982-.739 1.778-1.65 1.778s-1.65-.796-1.65-1.778.739-1.778 1.65-1.778 1.65.796 1.65 1.778zM158.798 27.245c0 .982-.739 1.778-1.65 1.778s-1.65-.796-1.65-1.778.739-1.778 1.65-1.778 1.65.796 1.65 1.778zM162.922 24.578c0 .982-.739 1.778-1.65 1.778s-1.65-.796-1.65-1.778.739-1.778 1.65-1.778 1.65.796 1.65 1.778zM166.773 22.207c0 .982-.739 1.778-1.65 1.778s-1.65-.796-1.65-1.778.739-1.778 1.65-1.778 1.65.796 1.65 1.778zM164.572 28.431c0 .982-.739 1.778-1.65 1.778s-1.65-.796-1.65-1.778.739-1.778 1.65-1.778 1.65.796 1.65 1.778zM168.147 26.06c0 .982-.739 1.778-1.65 1.778s-1.65-.796-1.65-1.778.739-1.778 1.65-1.778 1.65.796 1.65 1.778zM172.273 23.392c0 .982-.739 1.778-1.65 1.778s-1.65-.796-1.65-1.778.739-1.778 1.65-1.778 1.65.796 1.65 1.778zM176.123 21.021c0 .982-.739 1.778-1.65 1.778s-1.65-.796-1.65-1.778.739-1.778 1.65-1.778 1.65.796 1.65 1.778zM172.549 27.542c0 .982-.739 1.778-1.65 1.778s-1.65-.796-1.65-1.778.739-1.778 1.65-1.778 1.65.796 1.65 1.778zM176.125 25.171c0 .982-.739 1.778-1.65 1.778s-1.65-.796-1.65-1.778.739-1.778 1.65-1.778 1.65.796 1.65 1.778zM180.25 22.503c0 .982-.739 1.778-1.65 1.778s-1.65-.796-1.65-1.778.739-1.778 1.65-1.778 1.65.796 1.65 1.778zM184.099 20.132c0 .982-.739 1.778-1.65 1.778s-1.65-.796-1.65-1.778.739-1.778 1.65-1.778 1.65.796 1.65 1.778zM180.248 26.357c0 .982-.739 1.778-1.65 1.778s-1.65-.796-1.65-1.778.739-1.778 1.65-1.778 1.65.796 1.65 1.778zM183.823 23.985c0 .982-.739 1.778-1.65 1.778s-1.65-.796-1.65-1.778.739-1.778 1.65-1.778 1.65.796 1.65 1.778zM187.949 21.318c0 .982-.739 1.778-1.65 1.778s-1.65-.796-1.65-1.778.739-1.778 1.65-1.778 1.65.796 1.65 1.778zM191.799 18.947c0 .982-.739 1.778-1.65 1.778s-1.65-.796-1.65-1.778.739-1.778 1.65-1.778 1.65.796 1.65 1.778zM182.725 29.617c0 .982-.739 1.778-1.65 1.778s-1.65-.796-1.65-1.778.739-1.778 1.65-1.778 1.65.796 1.65 1.778zM186.3 27.245c0 .982-.739 1.778-1.65 1.778s-1.65-.796-1.65-1.778.739-1.778 1.65-1.778 1.65.796 1.65 1.778zM191.25 29.913c0 .982-.739 1.778-1.65 1.778s-1.65-.796-1.65-1.778.739-1.778 1.65-1.778 1.65.796 1.65 1.778zM190.426 24.578c0 .982-.739 1.778-1.65 1.778s-1.65-.796-1.65-1.778.739-1.778 1.65-1.778 1.65.796 1.65 1.778zM195.376 27.245c0 .982-.739 1.778-1.65 1.778s-1.65-.796-1.65-1.778.739-1.778 1.65-1.778 1.65.796 1.65 1.778zM199.226 29.913c0 .982-.739 1.778-1.65 1.778s-1.65-.796-1.65-1.778.739-1.778 1.65-1.778 1.65.796 1.65 1.778zM194.275 22.207c0 .982-.739 1.778-1.65 1.778s-1.65-.796-1.65-1.778.739-1.778 1.65-1.778 1.65.796 1.65 1.778zM199.226 24.874c0 .982-.739 1.778-1.65 1.778s-1.65-.796-1.65-1.778.739-1.778 1.65-1.778 1.65.796 1.65 1.778zM203.077 27.542c0 .982-.739 1.778-1.65 1.778s-1.65-.796-1.65-1.778.739-1.778 1.65-1.778 1.65.796 1.65 1.778zM138.448 10.055c0 .982-.739 1.778-1.65 1.778s-1.65-.796-1.65-1.778.739-1.778 1.65-1.778 1.65.796 1.65 1.778zM142.022 7.684c0 .982-.739 1.778-1.65 1.778s-1.65-.796-1.65-1.778.739-1.778 1.65-1.778 1.65.796 1.65 1.778zM146.149 5.016c0 .982-.739 1.778-1.65 1.778s-1.65-.796-1.65-1.778.739-1.778 1.65-1.778 1.65.796 1.65 1.778zM149.997 2.645c0 .982-.739 1.778-1.65 1.778s-1.65-.796-1.65-1.778.739-1.778 1.65-1.778 1.65.796 1.65 1.778zM131.571 9.758c0 .982-.739 1.778-1.65 1.778s-1.65-.796-1.65-1.778.739-1.778 1.65-1.778 1.65.796 1.65 1.778zM135.145 7.387c0 .982-.739 1.778-1.65 1.778s-1.65-.796-1.65-1.778.739-1.778 1.65-1.778 1.65.796 1.65 1.778zM139.271 4.72c0 .982-.739 1.778-1.65 1.778s-1.65-.796-1.65-1.778.739-1.778 1.65-1.778 1.65.796 1.65 1.778zM143.12 2.349c0 .982-.739 1.778-1.65 1.778s-1.65-.796-1.65-1.778.739-1.778 1.65-1.778 1.65.796 1.65 1.778zM146.971 29.617c0 .982-.739 1.778-1.65 1.778s-1.65-.796-1.65-1.778.739-1.778 1.65-1.778 1.65.796 1.65 1.778zM150.546 27.245c0 .982-.739 1.778-1.65 1.778s-1.65-.796-1.65-1.778.739-1.778 1.65-1.778 1.65.796 1.65 1.778zM154.672 24.578c0 .982-.739 1.778-1.65 1.778s-1.65-.796-1.65-1.778.739-1.778 1.65-1.778 1.65.796 1.65 1.778zM158.522 22.207c0 .982-.739 1.778-1.65 1.778s-1.65-.796-1.65-1.778.739-1.778 1.65-1.778 1.65.796 1.65 1.778zM142.571 27.838c0 .982-.739 1.778-1.65 1.778s-1.65-.796-1.65-1.778.739-1.778 1.65-1.778 1.65.796 1.65 1.778zM146.146 25.467c0 .982-.739 1.778-1.65 1.778s-1.65-.796-1.65-1.778.739-1.778 1.65-1.778 1.65.796 1.65 1.778zM150.272 22.799c0 .982-.739 1.778-1.65 1.778s-1.65-.796-1.65-1.778.739-1.778 1.65-1.778 1.65.796 1.65 1.778zM154.121 20.429c0 .982-.739 1.778-1.65 1.778s-1.65-.796-1.65-1.778.739-1.778 1.65-1.778 1.65.796 1.65 1.778zM144.222 21.614c0 .982-.739 1.778-1.65 1.778s-1.65-.796-1.65-1.778.739-1.778 1.65-1.778 1.65.796 1.65 1.778zM147.796 19.243c0 .982-.739 1.778-1.65 1.778s-1.65-.796-1.65-1.778.739-1.778 1.65-1.778 1.65.796 1.65 1.778zM151.923 16.575c0 .982-.739 1.778-1.65 1.778s-1.65-.796-1.65-1.778.739-1.778 1.65-1.778 1.65.796 1.65 1.778zM155.772 14.204c0 .982-.739 1.778-1.65 1.778s-1.65-.796-1.65-1.778.739-1.778 1.65-1.778 1.65.796 1.65 1.778zM144.222 11.24c0 .982-.739 1.778-1.65 1.778s-1.65-.796-1.65-1.778.739-1.778 1.65-1.778 1.65.796 1.65 1.778zM147.796 8.869c0 .982-.739 1.778-1.65 1.778s-1.65-.796-1.65-1.778.739-1.778 1.65-1.778 1.65.796 1.65 1.778zM151.923 6.202c0 .982-.739 1.778-1.65 1.778s-1.65-.796-1.65-1.778.739-1.778 1.65-1.778 1.65.796 1.65 1.778zM155.772 3.83c0 .982-.739 1.778-1.65 1.778s-1.65-.796-1.65-1.778.739-1.778 1.65-1.778 1.65.796 1.65 1.778zM143.397 16.872c0 .982-.739 1.778-1.65 1.778s-1.65-.796-1.65-1.778.739-1.778 1.65-1.778 1.65.796 1.65 1.778zM146.972 14.501c0 .982-.739 1.778-1.65 1.778s-1.65-.796-1.65-1.778.739-1.778 1.65-1.778 1.65.796 1.65 1.778zM151.097 11.833c0 .982-.739 1.778-1.65 1.778s-1.65-.796-1.65-1.778.739-1.778 1.65-1.778 1.65.796 1.65 1.778zM154.947 9.462c0 .982-.739 1.778-1.65 1.778s-1.65-.796-1.65-1.778.739-1.778 1.65-1.778 1.65.796 1.65 1.778zM126.07 8.276c0 .982-.739 1.778-1.65 1.778s-1.65-.796-1.65-1.778.739-1.778 1.65-1.778 1.65.796 1.65 1.778zM129.646 5.905c0 .982-.739 1.778-1.65 1.778s-1.65-.796-1.65-1.778.739-1.778 1.65-1.778 1.65.796 1.65 1.778zM133.771 3.238c0 .982-.739 1.778-1.65 1.778s-1.65-.796-1.65-1.778.739-1.778 1.65-1.778 1.65.796 1.65 1.778z"/><path d="M131.846 10.055c.911 0 1.65-.796 1.65-1.778s-.738-1.778-1.65-1.778c-.911 0-1.65.796-1.65 1.778s.739 1.778 1.65 1.778zM61.505 21.475c.14.985-.487 1.906-1.401 2.057s-1.769-.525-1.909-1.51c-.14-.985.487-1.906 1.401-2.057s1.769.525 1.909 1.51zM64.753 18.503c.14.985-.487 1.906-1.401 2.057s-1.769-.525-1.909-1.51c-.14-.985.487-1.906 1.401-2.057s1.769.525 1.909 1.51zM68.511 15.144c.14.985-.487 1.906-1.401 2.057s-1.769-.525-1.909-1.51c-.14-.985.487-1.906 1.401-2.057s1.769.525 1.909 1.51zM72.034 12.128c.14.985-.487 1.906-1.401 2.057s-1.769-.525-1.909-1.51c-.14-.985.487-1.906 1.401-2.057s1.769.525 1.909 1.51zM8.886 20.647c0 .958-.749 1.735-1.674 1.735s-1.674-.777-1.674-1.735c0-.958.749-1.735 1.674-1.735s1.674.777 1.674 1.735zM12.511 18.333c0 .958-.749 1.735-1.674 1.735s-1.674-.777-1.674-1.735c0-.958.749-1.735 1.674-1.735s1.674.777 1.674 1.735zM16.697 15.73c0 .958-.749 1.735-1.674 1.735s-1.674-.777-1.674-1.735c0-.958.749-1.735 1.674-1.735s1.674.777 1.674 1.735zM20.602 13.416c0 .958-.749 1.735-1.674 1.735s-1.674-.777-1.674-1.735c0-.958.749-1.735 1.674-1.735s1.674.777 1.674 1.735zM10.56 24.985c0 .958-.749 1.735-1.674 1.735s-1.674-.777-1.674-1.735c0-.958.749-1.735 1.674-1.735s1.674.777 1.674 1.735zM14.186 22.671c0 .958-.749 1.735-1.674 1.735s-1.674-.777-1.674-1.735c0-.958.749-1.735 1.674-1.735s1.674.777 1.674 1.735zM18.371 20.068c0 .958-.749 1.735-1.674 1.735s-1.674-.777-1.674-1.735c0-.958.749-1.735 1.674-1.735s1.674.777 1.674 1.735zM22.276 17.754c0 .958-.749 1.735-1.674 1.735s-1.674-.777-1.674-1.735c0-.958.749-1.735 1.674-1.735s1.674.777 1.674 1.735zM14.743 27.298c0 .958-.749 1.735-1.674 1.735s-1.674-.777-1.674-1.735c0-.958.749-1.735 1.674-1.735s1.674.777 1.674 1.735zM18.37 24.985c0 .958-.749 1.735-1.674 1.735s-1.674-.777-1.674-1.735c0-.958.749-1.735 1.674-1.735s1.674.777 1.674 1.735zM22.554 22.382c0 .958-.749 1.735-1.674 1.735s-1.674-.777-1.674-1.735c0-.958.749-1.735 1.674-1.735s1.674.777 1.674 1.735zM26.459 20.068c0 .958-.749 1.735-1.674 1.735s-1.674-.777-1.674-1.735c0-.958.749-1.735 1.674-1.735s1.674.777 1.674 1.735zM19.485 28.745c0 .958-.749 1.735-1.674 1.735s-1.674-.777-1.674-1.735c0-.958.749-1.735 1.674-1.735s1.674.777 1.674 1.735zM23.111 26.431c0 .958-.749 1.735-1.674 1.735s-1.674-.777-1.674-1.735c0-.958.749-1.735 1.674-1.735s1.674.777 1.674 1.735zM27.297 23.828c0 .958-.749 1.735-1.674 1.735s-1.674-.777-1.674-1.735c0-.958.749-1.735 1.674-1.735s1.674.777 1.674 1.735zM31.201 21.514c0 .958-.749 1.735-1.674 1.735s-1.674-.777-1.674-1.735c0-.958.749-1.735 1.674-1.735s1.674.777 1.674 1.735z"/><path d="M25.623 29.034c0 .958-.749 1.735-1.674 1.735s-1.674-.777-1.674-1.735c0-.958.749-1.735 1.674-1.735s1.674.777 1.674 1.735zM29.249 26.72c0 .958-.749 1.735-1.674 1.735s-1.674-.777-1.674-1.735c0-.958.749-1.735 1.674-1.735s1.674.777 1.674 1.735zM33.434 24.117c0 .958-.749 1.735-1.674 1.735s-1.674-.777-1.674-1.735c0-.958.749-1.735 1.674-1.735s1.674.777 1.674 1.735zM37.338 21.804c0 .958-.749 1.735-1.674 1.735s-1.674-.777-1.674-1.735c0-.958.749-1.735 1.674-1.735s1.674.777 1.674 1.735zM32.876 29.034c0 .958-.749 1.735-1.674 1.735s-1.674-.777-1.674-1.735c0-.958.749-1.735 1.674-1.735s1.674.777 1.674 1.735zM36.502 26.72c0 .958-.749 1.735-1.674 1.735s-1.674-.777-1.674-1.735c0-.958.749-1.735 1.674-1.735s1.674.777 1.674 1.735zM40.686 24.117c0 .958-.749 1.735-1.674 1.735s-1.674-.777-1.674-1.735c0-.958.749-1.735 1.674-1.735s1.674.777 1.674 1.735zM44.592 21.804c0 .958-.749 1.735-1.674 1.735s-1.674-.777-1.674-1.735c0-.958.749-1.735 1.674-1.735s1.674.777 1.674 1.735z"/><path d="M39.011 28.745c0 .958-.749 1.735-1.674 1.735s-1.674-.777-1.674-1.735c0-.958.749-1.735 1.674-1.735s1.674.777 1.674 1.735zM42.638 26.431c0 .958-.749 1.735-1.674 1.735s-1.674-.777-1.674-1.735c0-.958.749-1.735 1.674-1.735s1.674.777 1.674 1.735zM46.823 23.828c0 .958-.749 1.735-1.674 1.735s-1.674-.777-1.674-1.735c0-.958.749-1.735 1.674-1.735s1.674.777 1.674 1.735zM50.727 21.514c0 .958-.749 1.735-1.674 1.735s-1.674-.777-1.674-1.735c0-.958.749-1.735 1.674-1.735s1.674.777 1.674 1.735zM45.985 28.455c0 .958-.749 1.735-1.674 1.735s-1.674-.777-1.674-1.735c0-.958.749-1.735 1.674-1.735s1.674.777 1.674 1.735zM49.611 26.142c0 .958-.749 1.735-1.674 1.735s-1.674-.777-1.674-1.735c0-.958.749-1.735 1.674-1.735s1.674.777 1.674 1.735zM53.796 23.539c0 .958-.749 1.735-1.674 1.735s-1.674-.777-1.674-1.735c0-.958.749-1.735 1.674-1.735s1.674.777 1.674 1.735zM57.701 21.225c0 .958-.749 1.735-1.674 1.735s-1.674-.777-1.674-1.735c0-.958.749-1.735 1.674-1.735s1.674.777 1.674 1.735z"/><path d="M52.401 20.936c0 .958-.749 1.735-1.674 1.735s-1.674-.777-1.674-1.735c0-.958.749-1.735 1.674-1.735s1.674.777 1.674 1.735zM56.027 18.622c0 .958-.749 1.735-1.674 1.735s-1.674-.777-1.674-1.735c0-.958.749-1.735 1.674-1.735s1.674.777 1.674 1.735zM60.212 16.019c0 .958-.749 1.735-1.674 1.735s-1.674-.777-1.674-1.735c0-.958.749-1.735 1.674-1.735s1.674.777 1.674 1.735zM64.117 13.705c0 .958-.749 1.735-1.674 1.735s-1.674-.777-1.674-1.735c0-.958.749-1.735 1.674-1.735s1.674.777 1.674 1.735z"/></symbol>
<symbol id="icon-Group-134" viewBox="0 0 205 32"><path d="M156.54 29.616c0 .982-.745 1.778-1.664 1.778s-1.664-.796-1.664-1.778.745-1.778 1.664-1.778 1.664.796 1.664 1.778zM160.146 27.245c0 .982-.745 1.778-1.664 1.778s-1.664-.796-1.664-1.778.745-1.778 1.664-1.778 1.664.796 1.664 1.778zM164.305 24.578c0 .982-.745 1.778-1.664 1.778s-1.664-.796-1.664-1.778.745-1.778 1.664-1.778 1.664.796 1.664 1.778zM168.189 22.206c0 .982-.745 1.778-1.664 1.778s-1.664-.796-1.664-1.778.745-1.778 1.664-1.778 1.664.796 1.664 1.778zM165.969 28.431c0 .982-.745 1.778-1.664 1.778s-1.664-.796-1.664-1.778.745-1.778 1.664-1.778 1.664.796 1.664 1.778zM169.575 26.06c0 .982-.745 1.778-1.664 1.778s-1.664-.796-1.664-1.778.745-1.778 1.664-1.778 1.664.796 1.664 1.778zM173.735 23.392c0 .982-.745 1.778-1.664 1.778s-1.664-.796-1.664-1.778.745-1.778 1.664-1.778 1.664.796 1.664 1.778zM177.619 21.021c0 .982-.745 1.778-1.664 1.778s-1.664-.796-1.664-1.778.745-1.778 1.664-1.778 1.664.796 1.664 1.778zM174.014 27.542c0 .982-.745 1.778-1.664 1.778s-1.664-.796-1.664-1.778.745-1.778 1.664-1.778 1.664.796 1.664 1.778zM177.619 25.171c0 .982-.745 1.778-1.664 1.778s-1.664-.796-1.664-1.778.745-1.778 1.664-1.778 1.664.796 1.664 1.778zM181.779 22.503c0 .982-.745 1.778-1.664 1.778s-1.664-.796-1.664-1.778.745-1.778 1.664-1.778 1.664.796 1.664 1.778zM185.662 20.132c0 .982-.745 1.778-1.664 1.778s-1.664-.796-1.664-1.778.745-1.778 1.664-1.778 1.664.796 1.664 1.778zM181.778 26.356c0 .982-.745 1.778-1.664 1.778s-1.664-.796-1.664-1.778.745-1.778 1.664-1.778 1.664.796 1.664 1.778zM185.383 23.985c0 .982-.745 1.778-1.664 1.778s-1.664-.796-1.664-1.778.745-1.778 1.664-1.778 1.664.796 1.664 1.778zM189.543 21.318c0 .982-.745 1.778-1.664 1.778s-1.664-.796-1.664-1.778.745-1.778 1.664-1.778 1.664.796 1.664 1.778zM193.427 18.947c0 .982-.745 1.778-1.664 1.778s-1.664-.796-1.664-1.778.745-1.778 1.664-1.778 1.664.796 1.664 1.778zM184.276 29.616c0 .982-.745 1.778-1.664 1.778s-1.664-.796-1.664-1.778.745-1.778 1.664-1.778 1.664.796 1.664 1.778zM187.882 27.245c0 .982-.745 1.778-1.664 1.778s-1.664-.796-1.664-1.778.745-1.778 1.664-1.778 1.664.796 1.664 1.778zM192.874 29.913c0 .982-.745 1.778-1.664 1.778s-1.664-.796-1.664-1.778.745-1.778 1.664-1.778 1.664.796 1.664 1.778zM192.042 24.578c0 .982-.745 1.778-1.664 1.778s-1.664-.796-1.664-1.778.745-1.778 1.664-1.778 1.664.796 1.664 1.778zM197.034 27.245c0 .982-.745 1.778-1.664 1.778s-1.664-.796-1.664-1.778.745-1.778 1.664-1.778 1.664.796 1.664 1.778zM200.918 29.913c0 .982-.745 1.778-1.664 1.778s-1.664-.796-1.664-1.778.745-1.778 1.664-1.778 1.664.796 1.664 1.778zM195.925 22.206c0 .982-.745 1.778-1.664 1.778s-1.664-.796-1.664-1.778.745-1.778 1.664-1.778 1.664.796 1.664 1.778zM200.918 24.874c0 .982-.745 1.778-1.664 1.778s-1.664-.796-1.664-1.778.745-1.778 1.664-1.778 1.664.796 1.664 1.778zM204.801 27.542c0 .982-.745 1.778-1.664 1.778s-1.664-.796-1.664-1.778.745-1.778 1.664-1.778 1.664.796 1.664 1.778zM139.622 10.055c0 .982-.745 1.778-1.664 1.778s-1.664-.796-1.664-1.778.745-1.778 1.664-1.778 1.664.796 1.664 1.778zM143.227 7.684c0 .982-.745 1.778-1.664 1.778s-1.664-.796-1.664-1.778.745-1.778 1.664-1.778 1.664.796 1.664 1.778zM147.388 5.016c0 .982-.745 1.778-1.664 1.778s-1.664-.796-1.664-1.778.745-1.778 1.664-1.778 1.664.796 1.664 1.778zM151.27 2.645c0 .982-.745 1.778-1.664 1.778s-1.664-.796-1.664-1.778.745-1.778 1.664-1.778 1.664.796 1.664 1.778zM132.687 9.758c0 .982-.745 1.778-1.664 1.778s-1.664-.796-1.664-1.778.745-1.778 1.664-1.778 1.664.796 1.664 1.778zM136.293 7.387c0 .982-.745 1.778-1.664 1.778s-1.664-.796-1.664-1.778.745-1.778 1.664-1.778 1.664.796 1.664 1.778zM140.453 4.72c0 .982-.745 1.778-1.664 1.778s-1.664-.796-1.664-1.778.745-1.778 1.664-1.778 1.664.796 1.664 1.778zM144.335 2.349c0 .982-.745 1.778-1.664 1.778s-1.664-.796-1.664-1.778.745-1.778 1.664-1.778 1.664.796 1.664 1.778zM148.219 29.616c0 .982-.745 1.778-1.664 1.778s-1.664-.796-1.664-1.778.745-1.778 1.664-1.778 1.664.796 1.664 1.778zM151.824 27.245c0 .982-.745 1.778-1.664 1.778s-1.664-.796-1.664-1.778.745-1.778 1.664-1.778 1.664.796 1.664 1.778zM155.984 24.578c0 .982-.745 1.778-1.664 1.778s-1.664-.796-1.664-1.778.745-1.778 1.664-1.778 1.664.796 1.664 1.778zM159.868 22.206c0 .982-.745 1.778-1.664 1.778s-1.664-.796-1.664-1.778.745-1.778 1.664-1.778 1.664.796 1.664 1.778zM143.781 27.838c0 .982-.745 1.778-1.664 1.778s-1.664-.796-1.664-1.778.745-1.778 1.664-1.778 1.664.796 1.664 1.778zM147.387 25.467c0 .982-.745 1.778-1.664 1.778s-1.664-.796-1.664-1.778.745-1.778 1.664-1.778 1.664.796 1.664 1.778zM151.547 22.8c0 .982-.745 1.778-1.664 1.778s-1.664-.796-1.664-1.778.745-1.778 1.664-1.778 1.664.796 1.664 1.778zM155.43 20.429c0 .982-.745 1.778-1.664 1.778s-1.664-.796-1.664-1.778.745-1.778 1.664-1.778 1.664.796 1.664 1.778zM145.446 21.614c0 .982-.745 1.778-1.664 1.778s-1.664-.796-1.664-1.778.745-1.778 1.664-1.778 1.664.796 1.664 1.778zM149.051 19.243c0 .982-.745 1.778-1.664 1.778s-1.664-.796-1.664-1.778.745-1.778 1.664-1.778 1.664.796 1.664 1.778zM153.212 16.575c0 .982-.745 1.778-1.664 1.778s-1.664-.796-1.664-1.778.745-1.778 1.664-1.778 1.664.796 1.664 1.778zM157.095 14.204c0 .982-.745 1.778-1.664 1.778s-1.664-.796-1.664-1.778.745-1.778 1.664-1.778 1.664.796 1.664 1.778zM145.446 11.24c0 .982-.745 1.778-1.664 1.778s-1.664-.796-1.664-1.778.745-1.778 1.664-1.778 1.664.796 1.664 1.778zM149.051 8.869c0 .982-.745 1.778-1.664 1.778s-1.664-.796-1.664-1.778.745-1.778 1.664-1.778 1.664.796 1.664 1.778zM153.212 6.202c0 .982-.745 1.778-1.664 1.778s-1.664-.796-1.664-1.778.745-1.778 1.664-1.778 1.664.796 1.664 1.778zM157.095 3.831c0 .982-.745 1.778-1.664 1.778s-1.664-.796-1.664-1.778.745-1.778 1.664-1.778 1.664.796 1.664 1.778zM144.613 16.872c0 .982-.745 1.778-1.664 1.778s-1.664-.796-1.664-1.778.745-1.778 1.664-1.778 1.664.796 1.664 1.778zM148.22 14.501c0 .982-.745 1.778-1.664 1.778s-1.664-.796-1.664-1.778.745-1.778 1.664-1.778 1.664.796 1.664 1.778zM152.379 11.833c0 .982-.745 1.778-1.664 1.778s-1.664-.796-1.664-1.778.745-1.778 1.664-1.778 1.664.796 1.664 1.778zM156.262 9.462c0 .982-.745 1.778-1.664 1.778s-1.664-.796-1.664-1.778.745-1.778 1.664-1.778 1.664.796 1.664 1.778zM127.14 8.276c0 .982-.745 1.778-1.664 1.778s-1.664-.796-1.664-1.778.745-1.778 1.664-1.778 1.664.796 1.664 1.778zM130.746 5.905c0 .982-.745 1.778-1.664 1.778s-1.664-.796-1.664-1.778.745-1.778 1.664-1.778 1.664.796 1.664 1.778zM134.906 3.238c0 .982-.745 1.778-1.664 1.778s-1.664-.796-1.664-1.778.745-1.778 1.664-1.778 1.664.796 1.664 1.778z"/><path d="M132.964 10.055c.919 0 1.665-.796 1.665-1.778s-.746-1.778-1.665-1.778-1.664.796-1.664 1.778.745 1.778 1.664 1.778zM56.441 21.475c.141.985-.491 1.906-1.413 2.057s-1.784-.525-1.925-1.51c-.141-.985.491-1.906 1.413-2.057s1.784.525 1.925 1.51zM59.717 18.504c.141.985-.491 1.906-1.413 2.057s-1.784-.525-1.925-1.51c-.141-.985.491-1.906 1.413-2.057s1.784.525 1.925 1.51zM63.506 15.144c.141.985-.491 1.906-1.413 2.057s-1.784-.525-1.925-1.51c-.141-.985.491-1.906 1.413-2.057s1.784.525 1.925 1.51zM67.06 12.128c.141.985-.491 1.906-1.413 2.057s-1.784-.525-1.925-1.51c-.141-.985.491-1.906 1.413-2.057s1.784.525 1.925 1.51zM3.481 21.473c0 .997-.779 1.805-1.741 1.805s-1.741-.808-1.741-1.805c0-.997.779-1.805 1.741-1.805s1.741.808 1.741 1.805zM7.252 19.067c0 .997-.779 1.805-1.741 1.805s-1.741-.808-1.741-1.805c0-.997.779-1.805 1.741-1.805s1.741.808 1.741 1.805zM11.605 16.36c0 .997-.779 1.805-1.741 1.805s-1.741-.808-1.741-1.805c0-.997.779-1.805 1.741-1.805s1.741.808 1.741 1.805zM15.666 13.953c0 .997-.779 1.805-1.741 1.805s-1.741-.808-1.741-1.805c0-.997.779-1.805 1.741-1.805s1.741.808 1.741 1.805zM5.223 25.984c0 .997-.779 1.805-1.741 1.805s-1.741-.808-1.741-1.805c0-.997.779-1.805 1.741-1.805s1.741.808 1.741 1.805zM8.994 23.578c0 .997-.779 1.805-1.741 1.805s-1.741-.808-1.741-1.805c0-.997.779-1.805 1.741-1.805s1.741.808 1.741 1.805zM13.346 20.871c0 .997-.779 1.805-1.741 1.805s-1.741-.808-1.741-1.805c0-.997.779-1.805 1.741-1.805s1.741.808 1.741 1.805zM17.407 18.465c0 .997-.779 1.805-1.741 1.805s-1.741-.808-1.741-1.805c0-.997.779-1.805 1.741-1.805s1.741.808 1.741 1.805zM9.573 28.39c0 .997-.779 1.805-1.741 1.805s-1.741-.808-1.741-1.805c0-.997.779-1.805 1.741-1.805s1.741.808 1.741 1.805zM13.345 25.984c0 .997-.779 1.805-1.741 1.805s-1.741-.808-1.741-1.805c0-.997.779-1.805 1.741-1.805s1.741.808 1.741 1.805zM17.696 23.277c0 .997-.779 1.805-1.741 1.805s-1.741-.808-1.741-1.805c0-.997.779-1.805 1.741-1.805s1.741.808 1.741 1.805zM21.758 20.871c0 .997-.779 1.805-1.741 1.805s-1.741-.808-1.741-1.805c0-.997.779-1.805 1.741-1.805s1.741.808 1.741 1.805zM14.504 29.895c0 .997-.779 1.805-1.741 1.805s-1.741-.808-1.741-1.805c0-.997.779-1.805 1.741-1.805s1.741.808 1.741 1.805zM18.276 27.488c0 .997-.779 1.805-1.741 1.805s-1.741-.808-1.741-1.805c0-.997.779-1.805 1.741-1.805s1.741.808 1.741 1.805zM22.629 24.781c0 .997-.779 1.805-1.741 1.805s-1.741-.808-1.741-1.805c0-.997.779-1.805 1.741-1.805s1.741.808 1.741 1.805zM26.689 22.375c0 .997-.779 1.805-1.741 1.805s-1.741-.808-1.741-1.805c0-.997.779-1.805 1.741-1.805s1.741.808 1.741 1.805z"/><path d="M20.888 30.196c0 .997-.779 1.805-1.741 1.805s-1.741-.808-1.741-1.805c0-.997.779-1.805 1.741-1.805s1.741.808 1.741 1.805zM24.659 27.789c0 .997-.779 1.805-1.741 1.805s-1.741-.808-1.741-1.805c0-.997.779-1.805 1.741-1.805s1.741.808 1.741 1.805zM29.011 25.082c0 .997-.779 1.805-1.741 1.805s-1.741-.808-1.741-1.805c0-.997.779-1.805 1.741-1.805s1.741.808 1.741 1.805zM33.072 22.676c0 .997-.779 1.805-1.741 1.805s-1.741-.808-1.741-1.805c0-.997.779-1.805 1.741-1.805s1.741.808 1.741 1.805zM28.431 30.195c0 .997-.779 1.805-1.741 1.805s-1.741-.808-1.741-1.805c0-.997.779-1.805 1.741-1.805s1.741.808 1.741 1.805zM32.202 27.789c0 .997-.779 1.805-1.741 1.805s-1.741-.808-1.741-1.805c0-.997.779-1.805 1.741-1.805s1.741.808 1.741 1.805zM36.554 25.082c0 .997-.779 1.805-1.741 1.805s-1.741-.808-1.741-1.805c0-.997.779-1.805 1.741-1.805s1.741.808 1.741 1.805zM40.616 22.676c0 .997-.779 1.805-1.741 1.805s-1.741-.808-1.741-1.805c0-.997.779-1.805 1.741-1.805s1.741.808 1.741 1.805z"/><path d="M34.812 29.895c0 .997-.779 1.805-1.741 1.805s-1.741-.808-1.741-1.805c0-.997.779-1.805 1.741-1.805s1.741.808 1.741 1.805zM38.583 27.488c0 .997-.779 1.805-1.741 1.805s-1.741-.808-1.741-1.805c0-.997.779-1.805 1.741-1.805s1.741.808 1.741 1.805zM42.936 24.781c0 .997-.779 1.805-1.741 1.805s-1.741-.808-1.741-1.805c0-.997.779-1.805 1.741-1.805s1.741.808 1.741 1.805zM46.996 22.375c0 .997-.779 1.805-1.741 1.805s-1.741-.808-1.741-1.805c0-.997.779-1.805 1.741-1.805s1.741.808 1.741 1.805zM42.064 29.594c0 .997-.779 1.805-1.741 1.805s-1.741-.808-1.741-1.805c0-.997.779-1.805 1.741-1.805s1.741.808 1.741 1.805zM45.836 27.187c0 .997-.779 1.805-1.741 1.805s-1.741-.808-1.741-1.805c0-.997.779-1.805 1.741-1.805s1.741.808 1.741 1.805zM50.188 24.481c0 .997-.779 1.805-1.741 1.805s-1.741-.808-1.741-1.805c0-.997.779-1.805 1.741-1.805s1.741.808 1.741 1.805zM54.249 22.074c0 .997-.779 1.805-1.741 1.805s-1.741-.808-1.741-1.805c0-.997.779-1.805 1.741-1.805s1.741.808 1.741 1.805z"/><path d="M48.737 21.773c0 .997-.779 1.805-1.741 1.805s-1.741-.808-1.741-1.805c0-.997.779-1.805 1.741-1.805s1.741.808 1.741 1.805zM52.508 19.367c0 .997-.779 1.805-1.741 1.805s-1.741-.808-1.741-1.805c0-.997.779-1.805 1.741-1.805s1.741.808 1.741 1.805zM56.86 16.66c0 .997-.779 1.805-1.741 1.805s-1.741-.808-1.741-1.805c0-.997.779-1.805 1.741-1.805s1.741.808 1.741 1.805zM60.921 14.254c0 .997-.779 1.805-1.741 1.805s-1.741-.808-1.741-1.805c0-.997.779-1.805 1.741-1.805s1.741.808 1.741 1.805z"/></symbol>
<symbol id="icon-Kropki-6" viewBox="0 0 100 32"><path d="M45.81 25.797c0 .287-.219.52-.488.52s-.488-.233-.488-.52c0-.287.219-.52.488-.52s.488.233.488.52zM46.949 25.104c0 .287-.219.52-.488.52s-.488-.233-.488-.52c0-.287.219-.52.488-.52s.488.233.488.52zM44.915 27.705c0 .287-.219.52-.488.52s-.488-.233-.488-.52c0-.287.219-.52.488-.52s.488.233.488.52zM45.972 27.011c0 .287-.219.52-.488.52s-.488-.233-.488-.52c0-.287.219-.52.488-.52s.488.233.488.52zM47.193 26.231c0 .287-.219.52-.488.52s-.488-.233-.488-.52c0-.287.219-.52.488-.52s.488.233.488.52zM48.332 25.537c0 .287-.219.52-.488.52s-.488-.233-.488-.52c0-.287.219-.52.488-.52s.488.233.488.52z"/><path d="M46.705 27.792c0 .287-.219.52-.488.52s-.488-.233-.488-.52c0-.287.219-.52.488-.52s.488.233.488.52zM47.762 27.098c0 .287-.219.52-.488.52s-.488-.233-.488-.52c0-.287.219-.52.488-.52s.488.233.488.52zM48.983 26.318c0 .287-.219.52-.488.52s-.488-.233-.488-.52c0-.287.219-.52.488-.52s.488.233.488.52zM50.122 25.624c0 .287-.219.52-.488.52s-.488-.233-.488-.52c0-.287.219-.52.488-.52s.488.233.488.52zM48.82 27.792c0 .287-.219.52-.488.52s-.488-.233-.488-.52c0-.287.219-.52.488-.52s.488.233.488.52zM49.878 27.098c0 .287-.219.52-.488.52s-.488-.233-.488-.52c0-.287.219-.52.488-.52s.488.233.488.52zM51.098 26.318c0 .287-.219.52-.488.52s-.488-.233-.488-.52c0-.287.219-.52.488-.52s.488.233.488.52zM52.238 25.624c0 .287-.219.52-.488.52s-.488-.233-.488-.52c0-.287.219-.52.488-.52s.488.233.488.52z"/><path d="M50.61 27.705c0 .287-.219.52-.488.52s-.488-.233-.488-.52c0-.287.219-.52.488-.52s.488.233.488.52zM51.668 27.011c0 .287-.219.52-.488.52s-.488-.233-.488-.52c0-.287.219-.52.488-.52s.488.233.488.52zM52.889 26.231c0 .287-.219.52-.488.52s-.488-.233-.488-.52c0-.287.219-.52.488-.52s.488.233.488.52zM54.028 25.537c0 .287-.219.52-.488.52s-.488-.233-.488-.52c0-.287.219-.52.488-.52s.488.233.488.52zM52.644 27.618c0 .287-.219.52-.488.52s-.488-.233-.488-.52c0-.287.219-.52.488-.52s.488.233.488.52zM53.702 26.925c0 .287-.219.52-.488.52s-.488-.233-.488-.52c0-.287.219-.52.488-.52s.488.233.488.52zM54.923 26.144c0 .287-.219.52-.488.52s-.488-.233-.488-.52c0-.287.219-.52.488-.52s.488.233.488.52zM56.062 25.45c0 .287-.219.52-.488.52s-.488-.233-.488-.52c0-.287.219-.52.488-.52s.488.233.488.52z"/><path d="M54.516 25.364c0 .287-.219.52-.488.52s-.488-.233-.488-.52c0-.287.219-.52.488-.52s.488.233.488.52zM55.574 24.67c0 .287-.219.52-.488.52s-.488-.233-.488-.52c0-.287.219-.52.488-.52s.488.233.488.52zM56.794 23.889c0 .287-.219.52-.488.52s-.488-.233-.488-.52c0-.287.219-.52.488-.52s.488.233.488.52zM57.933 23.196c0 .287-.219.52-.488.52s-.488-.233-.488-.52c0-.287.219-.52.488-.52s.488.233.488.52z"/></symbol>
</defs>
</svg>

